<?xml version="1.0" encoding="utf-8"?>
<!-- Generator: Adobe Illustrator 16.0.0, SVG Export Plug-In . SVG Version: 6.00 Build 0)  -->
<!DOCTYPE svg PUBLIC "-//W3C//DTD SVG 1.1//EN" "http://www.w3.org/Graphics/SVG/1.1/DTD/svg11.dtd">
<svg version="1.1" id="Layer_1" xmlns="http://www.w3.org/2000/svg" xmlns:xlink="http://www.w3.org/1999/xlink" x="0px" y="0px"
	 width="172.467px" height="44.193px" viewBox="0 0 172.467 44.193" enable-background="new 0 0 172.467 44.193"
	 xml:space="preserve">
<g>
	<path fill="#010101" d="M70.146,16.566c-0.796-0.687-1.726-1.307-2.788-1.859c-1.062-0.552-2.201-0.828-3.418-0.828
		c-1.174,0-2.28,0.221-3.319,0.662c-1.041,0.443-1.942,1.053-2.706,1.826c-0.763,0.775-1.365,1.682-1.809,2.721
		c-0.443,1.041-0.663,2.147-0.663,3.32c0,1.172,0.22,2.279,0.663,3.318c0.443,1.038,1.045,1.941,1.809,2.704
		c0.764,0.763,1.665,1.367,2.706,1.81c1.039,0.443,2.145,0.662,3.319,0.662c1.239,0,2.395-0.236,3.468-0.712
		c1.073-0.477,1.997-1.136,2.772-1.974c0.111-0.134,0.249-0.234,0.414-0.301c0.167-0.066,0.338-0.098,0.515-0.098
		c0.287,0,0.503,0.098,0.646,0.296c0.144,0.2,0.217,0.422,0.217,0.665c0,0.354-0.1,0.63-0.298,0.83
		c-0.976,1.062-2.126,1.886-3.453,2.473s-2.755,0.879-4.281,0.879c-1.46,0-2.833-0.277-4.116-0.83
		c-1.283-0.553-2.4-1.305-3.351-2.256c-0.952-0.952-1.705-2.068-2.257-3.352c-0.555-1.283-0.83-2.655-0.83-4.115
		c0-1.461,0.275-2.833,0.83-4.116c0.552-1.282,1.305-2.406,2.257-3.37c0.95-0.961,2.067-1.719,3.351-2.271
		c1.284-0.553,2.656-0.832,4.116-0.832c1.482,0,2.871,0.29,4.165,0.864c1.295,0.575,2.429,1.36,3.402,2.356
		c0.109,0.111,0.21,0.256,0.299,0.432c0.088,0.178,0.133,0.354,0.133,0.531c0,0.288-0.1,0.509-0.3,0.664
		c-0.198,0.154-0.432,0.232-0.697,0.232C70.612,16.898,70.346,16.785,70.146,16.566z"/>
	<path fill="#010101" d="M75.707,12.783c0-0.288,0.1-0.531,0.298-0.73c0.201-0.199,0.443-0.299,0.731-0.299s0.531,0.1,0.73,0.299
		s0.299,0.442,0.299,0.73v19.149c0,0.287-0.1,0.53-0.299,0.73c-0.199,0.198-0.442,0.298-0.73,0.298s-0.53-0.1-0.731-0.298
		c-0.198-0.2-0.298-0.443-0.298-0.73V12.783z"/>
	<path fill="#010101" d="M81.285,13.114c0-0.376,0.132-0.696,0.399-0.962c0.266-0.266,0.586-0.398,0.962-0.398
		c0.375,0,0.696,0.133,0.962,0.398c0.266,0.266,0.398,0.586,0.398,0.962c0,0.377-0.132,0.697-0.398,0.961
		c-0.266,0.267-0.587,0.399-0.962,0.399c-0.376,0-0.697-0.133-0.962-0.399C81.417,13.812,81.285,13.491,81.285,13.114z
		 M81.618,17.861c0-0.288,0.099-0.531,0.298-0.73c0.199-0.199,0.442-0.299,0.73-0.299c0.287,0,0.531,0.1,0.73,0.299
		s0.297,0.442,0.297,0.73v14.071c0,0.287-0.098,0.53-0.297,0.73c-0.199,0.198-0.443,0.298-0.73,0.298c-0.288,0-0.531-0.1-0.73-0.298
		c-0.199-0.2-0.298-0.443-0.298-0.73V17.861z"/>
	<path fill="#010101" d="M94.763,16.932c0.884,0,1.682,0.132,2.389,0.398c0.709,0.265,1.317,0.568,1.826,0.912
		c0.508,0.344,0.9,0.686,1.179,1.029c0.275,0.342,0.415,0.604,0.415,0.779c0,0.244-0.101,0.453-0.3,0.631s-0.42,0.266-0.664,0.266
		c-0.287,0-0.531-0.1-0.73-0.299c-0.553-0.486-1.184-0.88-1.892-1.178c-0.708-0.3-1.472-0.449-2.29-0.449
		c-0.817,0-1.587,0.156-2.306,0.466c-0.719,0.308-1.35,0.734-1.892,1.276c-0.542,0.543-0.968,1.179-1.278,1.91
		c-0.309,0.73-0.464,1.505-0.464,2.321c0,0.82,0.155,1.589,0.464,2.308c0.31,0.718,0.736,1.35,1.278,1.891
		c0.542,0.544,1.173,0.97,1.892,1.278c0.719,0.31,1.489,0.465,2.306,0.465c0.818,0,1.582-0.149,2.29-0.448
		c0.708-0.298,1.339-0.714,1.892-1.243c0.199-0.2,0.443-0.299,0.73-0.299c0.266,0,0.503,0.093,0.714,0.281
		c0.209,0.188,0.315,0.426,0.315,0.714c0,0.177-0.128,0.438-0.382,0.779c-0.254,0.343-0.637,0.68-1.145,1.012
		c-0.51,0.332-1.135,0.62-1.875,0.863c-0.741,0.243-1.589,0.365-2.54,0.365c-1.106,0-2.141-0.197-3.103-0.597
		c-0.962-0.398-1.809-0.951-2.539-1.66c-0.73-0.708-1.305-1.548-1.726-2.522c-0.42-0.974-0.63-2.035-0.63-3.187
		c0-1.105,0.204-2.141,0.613-3.103c0.409-0.963,0.973-1.803,1.692-2.522c0.721-0.719,1.571-1.294,2.557-1.726
		C92.544,17.213,93.612,16.975,94.763,16.932z"/>
	<path fill="#010101" d="M103.393,12.815c0-0.286,0.101-0.531,0.299-0.731c0.2-0.197,0.443-0.297,0.731-0.297
		c0.287,0,0.53,0.1,0.73,0.297c0.198,0.2,0.298,0.445,0.298,0.731v11.02l6.705-6.672c0.198-0.199,0.441-0.298,0.729-0.298
		s0.531,0.099,0.729,0.298c0.201,0.198,0.299,0.444,0.299,0.73s-0.098,0.531-0.299,0.729l-4.777,4.647l5.076,8.164
		c0.088,0.155,0.133,0.32,0.133,0.498c0,0.241-0.094,0.48-0.282,0.713c-0.187,0.231-0.426,0.349-0.714,0.349
		c-0.377,0-0.674-0.176-0.895-0.531l-4.813-7.7l-1.892,1.893v5.277c0,0.287-0.1,0.53-0.298,0.73c-0.2,0.198-0.443,0.298-0.73,0.298
		c-0.288,0-0.531-0.1-0.731-0.298c-0.198-0.2-0.299-0.443-0.299-0.73V12.815z"/>
	<path fill="#010101" d="M144.07,17.463c0.067-0.178,0.188-0.32,0.365-0.433c0.179-0.109,0.365-0.165,0.564-0.165
		c0.311,0,0.56,0.104,0.748,0.314c0.187,0.209,0.281,0.438,0.281,0.682c0,0.131-0.034,0.266-0.101,0.397
		c-0.021,0.044-0.104,0.271-0.247,0.68c-0.146,0.41-0.41,1.134-0.797,2.175c-0.389,1.041-0.918,2.451-1.594,4.23
		c-0.674,1.784-1.544,4.045-2.604,6.787c-0.089,0.244-0.216,0.443-0.382,0.599s-0.403,0.231-0.714,0.231s-0.559-0.094-0.747-0.283
		c-0.188-0.188-0.314-0.37-0.381-0.547c-0.93-2.543-1.715-4.695-2.357-6.455c-0.641-1.759-1.161-3.175-1.559-4.248
		c-0.399-1.073-0.686-1.853-0.863-2.34c-0.178-0.485-0.265-0.74-0.265-0.762c-0.067-0.135-0.101-0.287-0.101-0.465
		c0-0.288,0.084-0.526,0.249-0.715c0.167-0.188,0.404-0.281,0.712-0.281c0.245,0,0.455,0.056,0.632,0.165
		c0.177,0.112,0.298,0.255,0.364,0.433l4.315,11.782L144.07,17.463z"/>
	<path fill="#010101" d="M149.099,13.114c0-0.376,0.134-0.696,0.4-0.962c0.265-0.266,0.587-0.398,0.961-0.398
		c0.377,0,0.696,0.133,0.964,0.398c0.265,0.266,0.396,0.586,0.396,0.962c0,0.377-0.132,0.697-0.396,0.961
		c-0.268,0.267-0.587,0.399-0.964,0.399c-0.374,0-0.696-0.133-0.961-0.399C149.233,13.812,149.099,13.491,149.099,13.114z
		 M149.433,17.861c0-0.288,0.098-0.531,0.296-0.73c0.2-0.199,0.443-0.299,0.731-0.299c0.289,0,0.532,0.1,0.73,0.299
		s0.299,0.442,0.299,0.73v14.071c0,0.287-0.101,0.53-0.299,0.73c-0.198,0.198-0.441,0.298-0.73,0.298
		c-0.288,0-0.531-0.1-0.731-0.298c-0.198-0.2-0.296-0.443-0.296-0.73V17.861z"/>
	<path fill="#010101" d="M169.2,29.941c-0.729,0.817-1.609,1.519-2.638,2.105c-1.028,0.588-2.141,0.881-3.336,0.881
		c-1.106,0-2.14-0.198-3.104-0.599c-0.962-0.396-1.808-0.949-2.539-1.658c-0.729-0.708-1.303-1.547-1.725-2.522
		c-0.422-0.974-0.632-2.035-0.632-3.185c0-1.107,0.205-2.153,0.613-3.137c0.411-0.985,0.976-1.844,1.694-2.573
		c0.72-0.73,1.571-1.305,2.555-1.725c0.984-0.421,2.052-0.631,3.203-0.631c1.062,0,2.075,0.215,3.036,0.646
		c0.963,0.432,1.809,1.012,2.539,1.742c0.729,0.73,1.312,1.584,1.742,2.556c0.432,0.974,0.647,2.014,0.647,3.121v7.002
		c0,0.287-0.1,0.53-0.298,0.729c-0.2,0.2-0.443,0.3-0.73,0.3c-0.288,0-0.531-0.1-0.731-0.3c-0.198-0.198-0.298-0.441-0.298-0.729
		V29.941z M169.2,24.964c0-0.82-0.155-1.594-0.464-2.325c-0.31-0.73-0.737-1.365-1.277-1.908c-0.544-0.541-1.18-0.969-1.909-1.276
		c-0.729-0.31-1.505-0.466-2.323-0.466s-1.589,0.156-2.307,0.466c-0.719,0.308-1.349,0.735-1.893,1.276
		c-0.543,0.543-0.966,1.178-1.279,1.908c-0.308,0.731-0.463,1.505-0.463,2.325c0,0.817,0.155,1.588,0.463,2.306
		c0.313,0.718,0.736,1.349,1.279,1.891c0.544,0.544,1.174,0.968,1.893,1.279c0.718,0.311,1.488,0.463,2.307,0.463
		c0.797,0,1.549-0.149,2.257-0.446c0.708-0.301,1.332-0.715,1.874-1.245c0.543-0.532,0.975-1.157,1.295-1.876
		C168.973,26.615,169.156,25.825,169.2,24.964z"/>
	<path fill="#010101" d="M129.911,29.941c-0.729,0.817-1.608,1.519-2.638,2.105c-1.029,0.588-2.142,0.881-3.337,0.881
		c-1.107,0-2.141-0.198-3.102-0.599c-0.963-0.396-1.81-0.949-2.541-1.658c-0.729-0.708-1.303-1.547-1.723-2.522
		c-0.422-0.974-0.632-2.035-0.632-3.185c0-1.107,0.203-2.153,0.612-3.137c0.41-0.985,0.975-1.844,1.693-2.573
		c0.72-0.73,1.571-1.305,2.555-1.725c0.986-0.421,2.052-0.631,3.203-0.631c1.062,0,2.074,0.215,3.038,0.646
		c0.961,0.432,1.808,1.012,2.537,1.742c0.731,0.73,1.312,1.584,1.744,2.556c0.43,0.974,0.647,2.014,0.647,3.121v7.002
		c0,0.287-0.1,0.53-0.3,0.729c-0.2,0.2-0.443,0.3-0.729,0.3c-0.287,0-0.532-0.1-0.729-0.3c-0.199-0.198-0.3-0.441-0.3-0.729V29.941z
		 M129.911,24.964c0-0.82-0.157-1.594-0.465-2.325c-0.309-0.73-0.735-1.365-1.277-1.908c-0.543-0.541-1.18-0.969-1.908-1.276
		c-0.73-0.31-1.505-0.466-2.324-0.466c-0.817,0-1.589,0.156-2.305,0.466c-0.72,0.308-1.35,0.735-1.894,1.276
		c-0.541,0.543-0.968,1.178-1.277,1.908c-0.311,0.731-0.463,1.505-0.463,2.325c0,0.817,0.152,1.588,0.463,2.306
		c0.31,0.718,0.736,1.349,1.277,1.891c0.544,0.544,1.174,0.968,1.894,1.279c0.716,0.311,1.487,0.463,2.305,0.463
		c0.797,0,1.551-0.149,2.259-0.446c0.707-0.301,1.332-0.715,1.874-1.245c0.541-0.532,0.974-1.157,1.293-1.876
		C129.684,26.615,129.866,25.825,129.911,24.964z"/>
</g>
<g>
	<linearGradient id="SVGID_1_" gradientUnits="userSpaceOnUse" x1="4.3398" y1="25.6494" x2="18.0297" y2="39.5293">
		<stop  offset="0" style="stop-color:#4F6F33"/>
		<stop  offset="0.1758" style="stop-color:#679C41"/>
		<stop  offset="0.8667" style="stop-color:#679C41"/>
		<stop  offset="1" style="stop-color:#4F6F33"/>
	</linearGradient>
	<polygon fill-rule="evenodd" clip-rule="evenodd" fill="url(#SVGID_1_)" points="13.26,37.884 6.115,30.727 4.34,28.46 
		4.048,25.945 4.34,23.836 6.08,24.276 19.647,37.891 20.115,39.539 16.598,40.775 	"/>
	<linearGradient id="SVGID_2_" gradientUnits="userSpaceOnUse" x1="29.0239" y1="15.0713" x2="11.2159" y2="32.9541">
		<stop  offset="0" style="stop-color:#A7CF38"/>
		<stop  offset="0.7879" style="stop-color:#8BC63F"/>
		<stop  offset="1" style="stop-color:#6FAD43"/>
	</linearGradient>
	<path fill-rule="evenodd" clip-rule="evenodd" fill="url(#SVGID_2_)" d="M25.889,14.996L2.884,21.152
		c-3.268,0.826-3.609,2.753-1.776,4.593l5.069,5.073c-2.373-3.513-1.973-5.981-0.035-6.45l14.851-3.95
		c2.43-0.639,3.333,0.271,2.691,2.742l-3.975,14.821c-0.295,1.874-3.344,2.396-6.388-0.006l5.045,5.051
		c2.177,2.135,3.859,1.203,4.617-1.683l6.15-23.102C30.013,14.856,29.099,14.116,25.889,14.996z"/>
	<defs>
		<filter id="Adobe_OpacityMaskFilter" filterUnits="userSpaceOnUse" x="21.328" y="14.887" width="8.142" height="17.898">
			<feColorMatrix  type="matrix" values="1 0 0 0 0  0 1 0 0 0  0 0 1 0 0  0 0 0 1 0"/>
		</filter>
	</defs>
	<mask maskUnits="userSpaceOnUse" x="21.328" y="14.887" width="8.142" height="17.898" id="SVGID_3_">
		<g filter="url(#Adobe_OpacityMaskFilter)">
			<linearGradient id="SVGID_4_" gradientUnits="userSpaceOnUse" x1="26.8999" y1="16.9023" x2="23.4208" y2="30.9684">
				<stop  offset="0" style="stop-color:#FFFFFF"/>
				<stop  offset="1" style="stop-color:#010101"/>
			</linearGradient>
			<path fill-rule="evenodd" clip-rule="evenodd" fill="url(#SVGID_4_)" d="M28.935,14.887l-5.511,5.639l0,0
				c0.492,0.444,0.531,1.263,0.197,2.541l-2.292,8.555l3.848,1.164l3.996-14.636C29.639,16.352,29.555,15.344,28.935,14.887z"/>
		</g>
	</mask>
	<path opacity="0.3" mask="url(#SVGID_3_)" fill-rule="evenodd" clip-rule="evenodd" fill="#FFFFFF" d="M28.935,14.887l-5.511,5.639
		l0,0c0.492,0.444,0.531,1.263,0.197,2.541l-2.292,8.555l3.848,1.164l3.996-14.636C29.639,16.352,29.555,15.344,28.935,14.887z"/>
	<linearGradient id="SVGID_5_" gradientUnits="userSpaceOnUse" x1="25.3013" y1="4.1826" x2="40.0687" y2="18.6965">
		<stop  offset="0" style="stop-color:#156C37"/>
		<stop  offset="0.1758" style="stop-color:#188F45"/>
		<stop  offset="0.8667" style="stop-color:#188F45"/>
		<stop  offset="1" style="stop-color:#156C37"/>
	</linearGradient>
	<polygon fill-rule="evenodd" clip-rule="evenodd" fill="url(#SVGID_5_)" points="30.684,6.218 37.829,13.374 41.116,18.201 
		38.919,20.615 37.864,19.825 24.296,6.213 23.201,3.877 25.398,2.99 28.478,4.01 	"/>
	<g>
		<linearGradient id="SVGID_6_" gradientUnits="userSpaceOnUse" x1="14.5562" y1="14.7695" x2="30.6841" y2="14.7695">
			<stop  offset="0" style="stop-color:#20AF56"/>
			<stop  offset="0.7879" style="stop-color:#20AF56"/>
			<stop  offset="1" style="stop-color:#188F45"/>
		</linearGradient>
		<path fill-rule="evenodd" clip-rule="evenodd" fill="url(#SVGID_6_)" d="M23.464,23.656l-0.451,0.121
			c-2.43,0.637-3.333-0.272-2.69-2.742l3.973-14.822c0.296-1.875,3.345-2.396,6.388,0.005L25.64,1.167
			c-2.176-2.134-3.859-1.204-4.617,1.685l-6.15,23.1c-0.879,3.385,0.035,4.125,3.246,3.248l4.158-1.113L23.464,23.656z"/>
		<linearGradient id="SVGID_7_" gradientUnits="userSpaceOnUse" x1="26.7827" y1="20.127" x2="44.0063" y2="20.127">
			<stop  offset="0" style="stop-color:#20AF56"/>
			<stop  offset="0.7879" style="stop-color:#20AF56"/>
			<stop  offset="1" style="stop-color:#188F45"/>
		</linearGradient>
		<path fill-rule="evenodd" clip-rule="evenodd" fill="url(#SVGID_7_)" d="M42.897,18.447l-5.069-5.073
			c2.373,3.513,1.974,5.983,0.036,6.451l-9.924,2.641l-1.157,4.413l14.339-3.837C44.39,22.215,44.731,20.287,42.897,18.447z"/>
	</g>
	<defs>
		<filter id="Adobe_OpacityMaskFilter_1_" filterUnits="userSpaceOnUse" x="14.474" y="11.316" width="8.142" height="17.899">
			<feColorMatrix  type="matrix" values="1 0 0 0 0  0 1 0 0 0  0 0 1 0 0  0 0 0 1 0"/>
		</filter>
	</defs>
	<mask maskUnits="userSpaceOnUse" x="14.474" y="11.316" width="8.142" height="17.899" id="SVGID_8_">
		<g filter="url(#Adobe_OpacityMaskFilter_1_)">
			
				<linearGradient id="SVGID_9_" gradientUnits="userSpaceOnUse" x1="-556.2896" y1="296.7852" x2="-559.7686" y2="310.8512" gradientTransform="matrix(-1 0 0 -1 -539.2432 323.9844)">
				<stop  offset="0" style="stop-color:#FFFFFF"/>
				<stop  offset="1" style="stop-color:#010101"/>
			</linearGradient>
			<path fill-rule="evenodd" clip-rule="evenodd" fill="url(#SVGID_9_)" d="M15.009,29.216l5.512-5.639l0,0
				c-0.493-0.443-0.531-1.265-0.198-2.542l2.293-8.555l-3.848-1.164l-3.995,14.635C14.305,27.75,14.389,28.756,15.009,29.216z"/>
		</g>
	</mask>
	<path opacity="0.3" mask="url(#SVGID_8_)" fill-rule="evenodd" clip-rule="evenodd" fill="#FFFFFF" d="M15.009,29.216l5.512-5.639
		l0,0c-0.493-0.443-0.531-1.265-0.198-2.542l2.293-8.555l-3.848-1.164l-3.995,14.635C14.305,27.75,14.389,28.756,15.009,29.216z"/>
</g>
</svg>
