<?xml version="1.0" encoding="utf-8"?>
<!-- Generator: Adobe Illustrator 16.0.0, SVG Export Plug-In . SVG Version: 6.00 Build 0)  -->
<!DOCTYPE svg PUBLIC "-//W3C//DTD SVG 1.1//EN" "http://www.w3.org/Graphics/SVG/1.1/DTD/svg11.dtd">
<svg version="1.1" id="Layer_1" xmlns="http://www.w3.org/2000/svg" xmlns:xlink="http://www.w3.org/1999/xlink" x="0px" y="0px"
	 width="232.5px" height="42px" viewBox="0 0 232.5 42" enable-background="new 0 0 232.5 42" xml:space="preserve">
<g>
	<path fill="#231F20" d="M169.709,29.286v-11.37h3.854v5.369l3.384-5.369h4.389l-3.69,5.169l3.855,6.201h-4.482l-3.455-5.959v5.959
		H169.709z M206.131,27.066c0.32,0.139,0.742,0.212,0.996,0.217c3.312,0.06,3.35-7.561,0-7.503
		c-0.254,0.007-0.676,0.077-0.996,0.216V27.066z M198.549,17.771c0.975-0.324,2.744-0.261,3.758,0.151v-4.418h3.824v4.404
		c1.019-0.4,2.763-0.461,3.723-0.138c4.66,1.541,4.66,9.98,0,11.524c-0.96,0.318-2.704,0.262-3.723-0.138v4.431h-3.824v-4.445
		c-1.014,0.411-2.783,0.477-3.758,0.152C193.876,27.748,193.898,19.307,198.549,17.771z M201.276,27.283
		c0.262-0.005,0.707-0.084,1.03-0.23v-7.041c-0.323-0.146-0.769-0.225-1.03-0.231C197.905,19.723,197.937,27.343,201.276,27.283z
		 M150.348,17.886c2.386-0.7,4.386-0.237,6.407,1.187c-0.344,0.619-0.688,1.461-1.035,2.077c-1.777-1.601-3.108-1.454-3.999-0.765
		c-0.889,0.688-1.334,1.697-1.334,3.146c0,1.452,0.445,2.461,1.334,3.146c0.891,0.688,2.222,0.834,3.999-0.765l1.035,2.077
		c-2.021,1.426-4.021,1.888-6.407,1.187C145.237,27.675,145.237,19.387,150.348,17.886z M127.789,29.314c-2.548,0-2.776,0-6.154,0
		h-0.346v-0.347V18.264v-0.347h0.346c3.775,0,3.513,0,6.495,0c0.3,0.025,3.217-0.169,3.344,2.577
		c-0.012,1.054-0.515,1.922-1.375,2.503c1.608,0.563,2.277,2.037,1.936,3.658l0,0C131.623,28.602,129.671,29.34,127.789,29.314z
		 M127.069,27.258c1.761-0.014,1.761-2.67,0-2.682l-2.047-0.016v2.697C126.047,27.258,125.548,27.258,127.069,27.258z
		 M125.022,19.888v2.438l1.71-0.001c1.471-0.009,1.471-2.413,0-2.424C126.162,19.896,125.593,19.892,125.022,19.888z
		 M193.253,22.255v4.181c0.011,0.716,0.05,1.302,0.126,1.758c0.08,0.453,0.159,0.794,0.239,1.017c-1.338,0-2.464,0.021-3.824,0.012
		c-0.128-0.245-0.271-0.577-0.307-0.913c-0.347,0.313-0.702,0.592-1.094,0.761c-5.003,2.146-7.532-3.471-4.856-5.9
		c1.254-1.134,4.238-1.491,5.83-1.383c-0.08-3.448-4.381-1.252-5.572-0.872l-0.608-2.26
		C183.982,17.951,193.199,15.065,193.253,22.255z M189.39,23.646c-0.956-0.11-2.144,0.293-2.779,0.892
		c-1.587,1.488,1.009,3.558,2.184,1.673C189.217,25.528,189.39,24.503,189.39,23.646z M218.743,22.015
		c0-0.512,0.021-0.894,0.19-1.376c0.498-1.396,2.748-1.454,3.184,0c0.151,0.495,0.213,0.858,0.192,1.376H218.743z M225.915,24.272
		c-0.035-3.289-0.761-6.526-5.123-6.702c-3.797-0.035-5.91,2.395-5.933,5.911c0.019,3.616,2.438,6.148,6.257,6.014
		c1.921-0.068,3.02-0.474,4.416-1.457l-1.035-1.856c-2.356,1.321-5.754,1.521-5.754-1.909H225.915z M137.646,22.015
		c0-0.512,0.023-0.894,0.192-1.376c0.495-1.396,2.748-1.454,3.182,0c0.15,0.495,0.215,0.858,0.192,1.376H137.646z M144.817,24.272
		c-0.033-3.289-0.756-6.526-5.12-6.702c-3.8-0.035-5.909,2.395-5.933,5.911c0.019,3.616,2.438,6.148,6.257,6.014
		c1.922-0.068,3.018-0.474,4.416-1.457l-1.035-1.856c-2.359,1.321-5.756,1.521-5.756-1.909H144.817z M107.811,17.916v11.37h3.824
		v-4.914h3.529v4.914h3.824v-11.37h-3.824v4.198h-3.529v-4.198H107.811z M158.089,17.916v2.506h2.995v8.864h3.821v-8.864h2.998
		v-2.506H158.089z M92.411,29.286h3.824l5.376-10.382v10.382h3.824V13.5h-3.824l-5.376,10.662V13.5h-3.824V29.286z"/>
	<g>
		<defs>
			<path id="SVGID_1_" d="M35.769,14.862l6.971,13.352H28.796L35.769,14.862z M21.828,14.862l6.969,13.352H14.855L21.828,14.862z
				 M42.736,28.214l6.972,13.355H35.766L42.736,28.214z M28.796,28.214l6.972,13.355H21.826L28.796,28.214z M42.736,1.508
				l6.972,13.354H35.766L42.736,1.508z M56.676,1.508l6.974,13.354H49.708L56.676,1.508z M14.855,1.508l6.972,13.354H7.885
				L14.855,1.508z M28.796,1.508l6.972,13.354H21.826L28.796,1.508z M49.708,14.862l6.971,13.352H42.736L49.708,14.862z"/>
		</defs>
		<clipPath id="SVGID_2_">
			<use xlink:href="#SVGID_1_"  overflow="visible"/>
		</clipPath>
		
			<linearGradient id="SVGID_3_" gradientUnits="userSpaceOnUse" x1="-214.3867" y1="218.6533" x2="-212.1104" y2="218.6533" gradientTransform="matrix(24.4936 0 0 17.5963 5258.9951 -3825.9453)">
			<stop  offset="0" style="stop-color:#8BC541"/>
			<stop  offset="0.01" style="stop-color:#D0E188"/>
			<stop  offset="0.22" style="stop-color:#A3CD39"/>
			<stop  offset="0.46" style="stop-color:#8BC541"/>
			<stop  offset="0.68" style="stop-color:#7FB342"/>
			<stop  offset="1" style="stop-color:#578A3E"/>
		</linearGradient>
		<rect x="7.885" y="1.508" clip-path="url(#SVGID_2_)" fill="url(#SVGID_3_)" width="55.765" height="40.061"/>
	</g>
	<path fill="#8BC541" d="M67.043,8.092c12.755-3.854,19.655,15.361,0.121,21.46c-4.194,1.296-8.767,1.812-12.341,2.003l1.859-3.544
		c3.806-0.23,8.141-1.107,11.679-2.499c10.06-3.955,9.259-14.285,1.834-14.627c-4.843,0.006-7.347,5.306-6.545,3.771L67.043,8.092z"
		/>
	<defs>
		<filter id="Adobe_OpacityMaskFilter" filterUnits="userSpaceOnUse" x="54.823" y="7.585" width="24.529" height="23.969">
			<feColorMatrix  type="matrix" values="1 0 0 0 0  0 1 0 0 0  0 0 1 0 0  0 0 0 1 0"/>
		</filter>
	</defs>
	<mask maskUnits="userSpaceOnUse" x="54.823" y="7.585" width="24.529" height="23.969" id="SVGID_4_">
		<g filter="url(#Adobe_OpacityMaskFilter)">
			<g>
				<defs>
					<rect id="SVGID_5_" x="26.391" y="7.585" width="56.015" height="27.145"/>
				</defs>
				<clipPath id="SVGID_6_">
					<use xlink:href="#SVGID_5_"  overflow="visible"/>
				</clipPath>
				<g>
					<defs>
						<polygon id="SVGID_7_" points="25.808,34.715 82.379,35.936 82.993,7.599 26.417,6.377 						"/>
					</defs>
					<clipPath id="SVGID_8_" clip-path="url(#SVGID_6_)">
						<use xlink:href="#SVGID_7_"  overflow="visible"/>
					</clipPath>
					<g transform="matrix(1 0 0 1 0 -9.536743e-07)" clip-path="url(#SVGID_8_)">
						
							<image overflow="visible" width="256" height="1" xlink:href="B710C036F724B3BE.jpg"  transform="matrix(0.221 0.0048 -0.6115 28.3393 26.4165 6.3774)">
						</image>
					</g>
				</g>
			</g>
		</g>
	</mask>
	<path mask="url(#SVGID_4_)" fill="#231F20" d="M67.043,8.092c12.755-3.854,19.655,15.361,0.121,21.46
		c-4.194,1.296-8.767,1.812-12.341,2.003l1.859-3.544c3.806-0.23,8.141-1.107,11.679-2.499c10.06-3.955,9.259-14.285,1.834-14.627
		c-4.843,0.006-7.347,5.306-6.545,3.771L67.043,8.092z"/>
	<path fill-rule="evenodd" clip-rule="evenodd" fill="#EA2227" d="M7.887,14.864L14.855,1.51H0.915L7.887,14.864z M21.828,14.864
		L28.796,1.51H14.855L21.828,14.864z M35.769,14.864L42.739,1.51H28.796L35.769,14.864z M49.708,14.864L56.679,1.51H42.736
		L49.708,14.864z M63.65,14.864L70.619,1.51H56.676L63.65,14.864z M56.679,28.217l6.971-13.353H49.708L56.679,28.217z
		 M42.736,28.217l6.972-13.353H35.766L42.736,28.217z M28.796,28.217l6.972-13.353H21.828L28.796,28.217z M14.855,28.217
		l6.972-13.353H7.885L14.855,28.217z M21.828,41.569l6.969-13.353H14.855L21.828,41.569z M35.769,41.569l6.971-13.353H28.796
		L35.769,41.569z M49.708,41.569l6.971-13.353H42.736L49.708,41.569z"/>
	<defs>
		<filter id="Adobe_OpacityMaskFilter_1_" filterUnits="userSpaceOnUse" x="0.915" y="1.51" width="40.541" height="40.06">
			<feColorMatrix  type="matrix" values="1 0 0 0 0  0 1 0 0 0  0 0 1 0 0  0 0 0 1 0"/>
		</filter>
	</defs>
	<mask maskUnits="userSpaceOnUse" x="0.915" y="1.51" width="40.541" height="40.06" id="SVGID_9_">
		<g filter="url(#Adobe_OpacityMaskFilter_1_)">
			<g>
				<defs>
					<rect id="SVGID_10_" x="-6.5" y="1.51" width="47.956" height="64.3"/>
				</defs>
				<clipPath id="SVGID_11_">
					<use xlink:href="#SVGID_10_"  overflow="visible"/>
				</clipPath>
				
					<rect x="-14.516" y="3.351" transform="matrix(0.9419 -0.3358 0.3358 0.9419 -14.2921 0.7297)" clip-path="url(#SVGID_11_)" fill="#FFFFFF" width="18.96" height="76.672"/>
				
					<rect x="30.513" y="-12.703" transform="matrix(-0.9419 0.3359 -0.3359 -0.9419 86.2728 36.3407)" clip-path="url(#SVGID_11_)" width="18.962" height="76.67"/>
				<g>
					<defs>
						
							<rect id="SVGID_12_" x="-0.548" y="-4.677" transform="matrix(-0.9419 0.3358 -0.3358 -0.9419 45.2466 59.4964)" width="36.054" height="76.674"/>
					</defs>
					<clipPath id="SVGID_13_" clip-path="url(#SVGID_11_)">
						<use xlink:href="#SVGID_12_"  overflow="visible"/>
					</clipPath>
					<g transform="matrix(1 0 2.980232e-08 1 -9.536743e-07 0)" clip-path="url(#SVGID_13_)">
						
							<image overflow="visible" width="256" height="1" xlink:href="B710C036F724B3B8.jpg"  transform="matrix(0.1327 -0.0473 25.75 72.2187 -12.3765 3.6045)">
						</image>
					</g>
				</g>
			</g>
		</g>
	</mask>
	<path mask="url(#SVGID_9_)" fill-rule="evenodd" clip-rule="evenodd" fill="#FFFFFF" d="M41.456,41.569l-8.06-40.06H0.915
		c8.476,16.233,12.496,23.94,20.913,40.06H41.456z"/>
	<defs>
		<filter id="Adobe_OpacityMaskFilter_2_" filterUnits="userSpaceOnUse" x="33.243" y="1.51" width="37.376" height="40.06">
			<feColorMatrix  type="matrix" values="1 0 0 0 0  0 1 0 0 0  0 0 1 0 0  0 0 0 1 0"/>
		</filter>
	</defs>
	<mask maskUnits="userSpaceOnUse" x="33.243" y="1.51" width="37.376" height="40.06" id="SVGID_14_">
		<g filter="url(#Adobe_OpacityMaskFilter_2_)">
			<rect x="78.67" y="1.51" fill="#FFFFFF" width="11.645" height="62.852"/>
			<rect x="33.24" y="1.51" width="11.644" height="62.852"/>
			<g>
				<defs>
					<rect id="SVGID_15_" x="40.66" y="1.51" width="42.234" height="62.852"/>
				</defs>
				<clipPath id="SVGID_16_">
					<use xlink:href="#SVGID_15_"  overflow="visible"/>
				</clipPath>
				<g transform="matrix(1 0 0 1 0 0)" clip-path="url(#SVGID_16_)">
					
						<image overflow="visible" width="256" height="1" xlink:href="B710C036F724B3B7.jpg"  transform="matrix(-0.165 0 0 -62.854 82.8945 64.3613)">
					</image>
				</g>
			</g>
		</g>
	</mask>
	<path mask="url(#SVGID_14_)" fill-rule="evenodd" clip-rule="evenodd" fill="#59595C" d="M40.899,1.51l-7.656,40.06h16.465
		c7.164-13.719,11.571-22.167,20.911-40.06H40.899z"/>
	<defs>
		<filter id="Adobe_OpacityMaskFilter_3_" filterUnits="userSpaceOnUse" x="43.419" y="1.5" width="24.458" height="39.962">
			<feColorMatrix  type="matrix" values="1 0 0 0 0  0 1 0 0 0  0 0 1 0 0  0 0 0 1 0"/>
		</filter>
	</defs>
	<mask maskUnits="userSpaceOnUse" x="43.419" y="1.5" width="24.458" height="39.962" id="SVGID_17_">
		<g filter="url(#Adobe_OpacityMaskFilter_3_)">
			<g>
				<defs>
					<rect id="SVGID_18_" x="43.419" y="-141.744" width="102.597" height="191.589"/>
				</defs>
				<clipPath id="SVGID_19_">
					<use xlink:href="#SVGID_18_"  overflow="visible"/>
				</clipPath>
				
					<rect x="116.291" y="-217.104" transform="matrix(-0.3575 0.9339 -0.9339 -0.3575 48.818 -303.47)" clip-path="url(#SVGID_19_)" fill="#FFFFFF" width="25.004" height="164.323"/>
				
					<rect x="48.14" y="-39.114" transform="matrix(0.3576 -0.9339 0.9339 0.3576 -1.2464 84.2817)" clip-path="url(#SVGID_19_)" width="25.003" height="164.321"/>
				<g>
					<defs>
						
							<rect id="SVGID_20_" x="-8.777" y="-128.109" transform="matrix(0.3576 -0.9339 0.9339 0.3576 103.7573 58.9357)" width="206.986" height="164.32"/>
					</defs>
					<clipPath id="SVGID_21_" clip-path="url(#SVGID_19_)">
						<use xlink:href="#SVGID_20_"  overflow="visible"/>
					</clipPath>
					<g transform="matrix(1 0 -2.980232e-08 1 0 1.525879e-05)" clip-path="url(#SVGID_21_)">
						
							<image overflow="visible" width="256" height="1" xlink:href="B710C036F724B3C6.jpg"  transform="matrix(-0.2891 0.7551 -153.4569 -58.7585 208.4521 -113.2197)">
						</image>
					</g>
				</g>
			</g>
		</g>
	</mask>
	<polygon mask="url(#SVGID_17_)" fill-rule="evenodd" clip-rule="evenodd" fill="#FFFFFF" points="47.667,41.437 67.878,1.573 
		64.081,1.5 43.419,41.462 	"/>
</g>
</svg>
