<?xml version="1.0" encoding="utf-8"?>
<!-- Generator: Adobe Illustrator 16.0.0, SVG Export Plug-In . SVG Version: 6.00 Build 0)  -->
<!DOCTYPE svg PUBLIC "-//W3C//DTD SVG 1.1//EN" "http://www.w3.org/Graphics/SVG/1.1/DTD/svg11.dtd">
<svg version="1.1" id="Layer_1" xmlns="http://www.w3.org/2000/svg" xmlns:xlink="http://www.w3.org/1999/xlink" x="0px" y="0px"
	 width="664px" height="175.5px" viewBox="0 0 664 175.5" enable-background="new 0 0 664 175.5" xml:space="preserve">
<g>
	<path fill="#4D4D4D" d="M385.752,55.757v38.479c0,9.742-2.889,17.432-8.66,23.073c-5.773,5.644-13.666,8.463-23.672,8.463
		c-4.91,0-9.359-0.723-13.351-2.171c-3.995-1.445-7.411-3.543-10.249-6.292c-2.839-2.748-5.002-6.075-6.495-9.981
		c-1.492-3.904-2.238-8.268-2.238-13.092V55.757h10.127V94.67c0,3.377,0.529,6.438,1.591,9.188c1.06,2.746,2.579,5.112,4.558,7.088
		c1.976,1.978,4.313,3.521,7.016,4.629c2.699,1.109,5.737,1.664,9.115,1.664c6.748,0,12.172-2.073,16.273-6.221
		c4.098-4.145,6.148-9.595,6.148-16.348V55.757H385.752z"/>
	<path fill="#4D4D4D" d="M399.35,124.905V79.77c0-3.566,0.626-6.893,1.879-9.981c1.254-3.085,2.99-5.787,5.209-8.101
		c2.217-2.314,4.822-4.123,7.811-5.424c2.99-1.302,6.171-1.954,9.549-1.954c0.482,0,0.941,0,1.375,0
		c0.435,0,1.033,0.097,1.809,0.291v9.114c-0.484,0-0.939-0.023-1.374-0.072s-0.846-0.073-1.229-0.073
		c-4.438,0-8.031,1.54-10.777,4.618c-2.75,3.079-4.125,7.072-4.125,11.979v44.741H399.35z"/>
	<path fill="#4D4D4D" d="M451.571,57.492c1.927-0.579,3.591-1.086,4.991-1.52c1.396-0.434,2.723-0.771,3.979-1.011
		c1.25-0.24,2.459-0.409,3.617-0.507c1.156-0.095,2.408-0.146,3.76-0.146c5.592,0,10.729,0.868,15.406,2.605
		c4.678,1.737,8.656,4.171,11.936,7.305c3.277,3.135,5.834,6.896,7.668,11.283c1.83,4.392,2.748,9.237,2.748,14.54
		c0,5.305-0.893,10.152-2.678,14.539c-1.785,4.39-4.293,8.15-7.521,11.284c-3.232,3.134-7.115,5.568-11.646,7.304
		c-4.533,1.737-9.5,2.604-14.898,2.604c-5.498,0-10.441-0.906-14.829-2.719c-4.39-1.813-8.151-4.393-11.282-7.739
		c-3.136-3.346-5.523-7.407-7.162-12.182c-1.642-4.773-2.459-10.149-2.459-16.13V20.458h10.126v66.545
		c0,4.34,0.651,8.317,1.952,11.936c1.303,3.616,3.11,6.726,5.426,9.329c2.314,2.605,5.085,4.655,8.318,6.148
		c3.229,1.497,6.775,2.242,10.633,2.242c3.664,0,7.062-0.65,10.197-1.951c3.135-1.303,5.861-3.135,8.176-5.497
		s4.123-5.138,5.424-8.319s1.953-6.654,1.953-10.416c0-3.952-0.676-7.57-2.025-10.85c-1.352-3.277-3.254-6.099-5.715-8.461
		c-2.459-2.363-5.402-4.195-8.824-5.498c-3.424-1.301-7.211-1.952-11.355-1.952c-1.354,0-2.582,0.075-3.689,0.223
		c-1.109,0.148-2.268,0.398-3.473,0.746c-1.205,0.348-2.508,0.846-3.905,1.492c-1.397,0.647-3.015,1.417-4.846,2.312V57.492z"/>
	<path fill="#4D4D4D" d="M568.023,122.156c-2.023,0.773-3.811,1.398-5.352,1.881c-1.545,0.484-2.967,0.845-4.268,1.085
		s-2.557,0.408-3.762,0.505c-1.207,0.098-2.531,0.146-3.977,0.146c-5.498,0-10.539-0.891-15.117-2.677
		c-4.582-1.781-8.561-4.241-11.936-7.378c-3.377-3.132-6.004-6.87-7.885-11.212c-1.881-4.338-2.822-9.113-2.822-14.319
		c0-5.209,0.963-10.055,2.895-14.538c1.928-4.485,4.557-8.392,7.883-11.719c3.33-3.329,7.258-5.932,11.791-7.812
		c4.531-1.881,9.404-2.82,14.611-2.82c5.4,0,10.295,0.939,14.684,2.82c4.387,1.88,8.148,4.582,11.283,8.101
		c3.135,3.522,5.545,7.765,7.234,12.731c1.686,4.967,2.531,10.487,2.531,16.564v31.392h-9.838V93.729
		c0-4.638-0.625-8.867-1.875-12.687c-1.25-3.817-3.029-7.079-5.338-9.787c-2.309-2.704-5.074-4.808-8.295-6.306
		c-3.223-1.498-6.756-2.249-10.604-2.249c-3.654,0-7.092,0.704-10.316,2.105c-3.223,1.401-6.012,3.335-8.367,5.802
		c-2.355,2.466-4.232,5.344-5.627,8.63c-1.393,3.287-2.092,6.817-2.092,10.587c0,3.871,0.723,7.447,2.166,10.734
		c1.441,3.286,3.434,6.164,5.98,8.63c2.549,2.466,5.527,4.4,8.941,5.802c3.412,1.402,7.092,2.104,11.033,2.104
		c2.785,0,5.309-0.361,7.568-1.086c2.258-0.725,5.215-2.098,8.867-4.123V122.156z"/>
	<path fill="#4D4D4D" d="M599.27,124.905V86.426c0-4.822,0.746-9.188,2.238-13.094c1.492-3.904,3.654-7.233,6.494-9.981
		c2.84-2.75,6.254-4.847,10.248-6.292c3.992-1.448,8.441-2.171,13.352-2.171c10.006,0,17.898,2.82,23.672,8.463
		c5.771,5.642,8.66,13.334,8.66,23.075v38.479h-9.836V85.99c0-6.75-2.051-12.199-6.148-16.347c-4.1-4.145-9.525-6.22-16.275-6.22
		c-6.752,0-12.15,2.075-16.201,6.22c-4.051,4.148-6.076,9.598-6.076,16.347v38.915H599.27z"/>
	<polygon fill="#4D4D4D" points="432.736,21 423.147,21 438.063,0.226 452.979,21 	"/>
</g>
<g>
	<path fill="#29ABE2" d="M39.291,62.411L32.815,69.5c-4.607-4.051-8.924-6.077-12.952-6.077c-2.206,0-4.102,0.749-5.685,2.242
		c-1.583,1.497-2.374,3.352-2.374,5.57c0,1.642,0.432,3.352,1.295,5.136c0.864,1.786,1.918,3.207,3.167,4.268l11.225,8.824
		c4.317,3.377,7.41,6.51,9.281,9.404c1.872,2.893,2.808,6.026,2.808,9.4c0,2.605-0.484,5.016-1.447,7.234
		c-0.965,2.22-2.314,4.148-4.05,5.787c-1.736,1.641-3.761,2.918-6.076,3.833c-2.315,0.914-4.824,1.373-7.522,1.373
		c-4.051,0-7.909-0.965-11.574-2.894c-1.351-0.672-2.508-1.42-3.471-2.24c-0.965-0.818-2.22-2.048-3.762-3.689l6.51-6.945
		c4.435,4.052,8.775,6.077,13.02,6.077c2.314,0,4.242-0.796,5.787-2.388c1.541-1.592,2.314-3.494,2.314-5.713
		c0-1.928-0.411-3.738-1.23-5.426c-0.82-1.686-1.905-3.06-3.254-4.123L13.542,90.33c-2.412-1.83-4.413-3.494-6.004-4.991
		c-1.591-1.495-2.846-2.965-3.761-4.412c-0.918-1.447-1.569-2.868-1.953-4.269c-0.386-1.396-0.579-2.965-0.579-4.7
		c0-2.604,0.506-5.014,1.52-7.235c1.013-2.216,2.387-4.145,4.123-5.787c1.735-1.639,3.761-2.915,6.075-3.833
		c2.315-0.914,4.774-1.373,7.378-1.373c2.025,0,4,0.265,5.931,0.796c1.928,0.53,3.809,1.229,5.641,2.097
		c1.447,0.772,2.626,1.519,3.544,2.241C36.374,59.59,37.65,60.772,39.291,62.411z"/>
	<path fill="#29ABE2" d="M96.288,113.62c-2.026,4.535-4.582,7.694-7.667,9.476c-3.087,1.786-7.331,2.677-12.73,2.677
		c-3.762,0-7.161-0.616-10.199-1.851c-3.038-1.234-5.667-2.992-7.884-5.279c-2.219-2.287-3.931-5.069-5.135-8.35
		c-1.207-3.277-1.809-6.893-1.809-10.85V55.9h10.126v43.834c0,2.219,0.434,4.338,1.302,6.363c0.868,2.026,2.025,3.812,3.472,5.354
		c1.447,1.545,3.11,2.798,4.991,3.761c1.88,0.965,3.833,1.446,5.859,1.446c4.05,0,7.4-1.613,10.054-4.846
		c2.652-3.229,3.978-7.353,3.978-12.369V55.9h11.428v43.543c0,2.51,0.337,4.799,1.013,6.873c0.673,2.074,1.615,3.883,2.821,5.425
		c1.205,1.542,2.651,2.747,4.34,3.616c1.687,0.867,3.495,1.301,5.426,1.301c2.12,0,4.145-0.481,6.075-1.446
		c1.928-0.963,3.639-2.216,5.136-3.761c1.494-1.542,2.677-3.327,3.544-5.354c0.868-2.025,1.303-4.145,1.303-6.363V55.9h9.837v43.543
		c0,8.102-2.308,14.518-6.921,19.241c-4.616,4.727-10.769,7.088-18.459,7.088c-2.981,0-5.746-0.41-8.293-1.228
		c-2.547-0.82-4.783-2.1-6.704-3.835c-1.058-0.963-1.923-1.903-2.598-2.821C97.919,116.973,97.15,115.553,96.288,113.62z"/>
	<path fill="#29ABE2" d="M207.097,122.156c-2.026,0.773-3.811,1.398-5.353,1.881c-1.543,0.484-2.965,0.845-4.267,1.085
		s-2.556,0.408-3.761,0.505c-1.207,0.098-2.532,0.146-3.979,0.146c-5.497,0-10.538-0.891-15.118-2.677
		c-4.581-1.781-8.56-4.241-11.935-7.378c-3.377-3.132-6.003-6.87-7.884-11.212c-1.88-4.338-2.821-9.113-2.821-14.319
		c0-5.209,0.963-10.055,2.893-14.538c1.928-4.485,4.557-8.392,7.884-11.719c3.327-3.329,7.256-5.932,11.79-7.812
		c4.532-1.881,9.403-2.82,14.611-2.82c5.399,0,10.293,0.939,14.683,2.82c4.388,1.88,8.148,4.582,11.284,8.101
		c3.133,3.522,5.545,7.765,7.233,12.731c1.686,4.967,2.532,10.487,2.532,16.564v31.392h-9.837V93.729
		c0-4.638-0.626-8.867-1.876-12.687c-1.25-3.817-3.028-7.079-5.336-9.787c-2.311-2.704-5.074-4.808-8.295-6.306
		c-3.223-1.498-6.756-2.249-10.604-2.249c-3.656,0-7.093,0.704-10.316,2.105c-3.224,1.401-6.013,3.335-8.368,5.802
		c-2.355,2.466-4.231,5.344-5.626,8.63c-1.395,3.287-2.09,6.817-2.09,10.587c0,3.871,0.721,7.447,2.163,10.734
		c1.442,3.286,3.436,6.164,5.983,8.63c2.548,2.466,5.527,4.4,8.94,5.802c3.413,1.402,7.09,2.104,11.033,2.104
		c2.787,0,5.31-0.361,7.57-1.086c2.258-0.725,5.214-2.098,8.867-4.123V122.156z"/>
	<path fill="#29ABE2" d="M238.342,156.441V93.08c0-5.884,0.819-11.211,2.459-15.987c1.639-4.774,4.025-8.808,7.161-12.108
		c3.133-3.298,6.894-5.854,11.284-7.667c4.387-1.813,9.331-2.718,14.828-2.718c5.4,0,10.366,0.868,14.9,2.603
		c4.532,1.735,8.413,4.173,11.645,7.307c3.23,3.134,5.737,6.87,7.523,11.211c1.783,4.339,2.676,9.164,2.676,14.467
		c0,5.305-0.917,10.149-2.749,14.538c-1.833,4.389-4.389,8.125-7.667,11.211c-3.28,3.088-7.257,5.497-11.935,7.232
		c-4.679,1.737-9.814,2.604-15.407,2.604c-1.352,0-2.604-0.048-3.761-0.146c-1.157-0.097-2.364-0.24-3.617-0.434
		c-1.254-0.193-2.581-0.506-3.978-0.939c-1.399-0.434-3.063-0.939-4.991-1.52v-10.993c1.831,0.868,3.447,1.615,4.846,2.241
		c1.397,0.629,2.699,1.111,3.906,1.448c1.205,0.337,2.362,0.577,3.472,0.723c1.107,0.146,2.337,0.217,3.688,0.217
		c4.146,0,7.932-0.649,11.356-1.948c3.421-1.295,6.365-3.123,8.824-5.482c2.459-2.354,4.363-5.17,5.714-8.44
		c1.349-3.269,2.025-6.876,2.025-10.819c0-3.75-0.651-7.213-1.953-10.386c-1.302-3.174-3.11-5.915-5.425-8.225
		c-2.314-2.307-5.041-4.11-8.173-5.409c-3.135-1.297-6.534-1.948-10.198-1.948c-3.859,0-7.403,0.748-10.633,2.241
		c-3.232,1.498-6.003,3.545-8.318,6.148c-2.314,2.604-4.123,5.693-5.425,9.259c-1.302,3.569-1.953,7.476-1.953,11.719v63.361
		H238.342z"/>
	<polygon fill="#29ABE2" points="248.429,155 258.017,155 243.101,175.774 228.187,155 	"/>
</g>
</svg>
