<?xml version="1.0" encoding="utf-8"?>
<!-- Generator: Adobe Illustrator 16.0.0, SVG Export Plug-In . SVG Version: 6.00 Build 0)  -->
<!DOCTYPE svg PUBLIC "-//W3C//DTD SVG 1.1//EN" "http://www.w3.org/Graphics/SVG/1.1/DTD/svg11.dtd">
<svg version="1.1" id="Layer_1" xmlns="http://www.w3.org/2000/svg" xmlns:xlink="http://www.w3.org/1999/xlink" x="0px" y="0px"
	 width="34.001px" height="40px" viewBox="3.544 0 34.001 40" enable-background="new 3.544 0 34.001 40" xml:space="preserve">
<g id="XMLID_1_">
	<g>
		<path fill="#97C03E" d="M37.545,14.855v9.75c0,0.658-0.267,1.256-0.698,1.687c-0.431,0.433-1.028,0.698-1.688,0.698
			c-1.317,0-2.386-1.067-2.386-2.385v-9.75c0-0.656,0.267-1.255,0.699-1.685c0.433-0.432,1.028-0.699,1.687-0.699
			C36.477,12.472,37.545,13.54,37.545,14.855z"/>
		<path fill="#97C03E" d="M27.133,0.233c0.096-0.138,0.284-0.171,0.42-0.076c0.136,0.092,0.171,0.281,0.075,0.418l-1.99,2.877
			c3.317,1.448,5.565,4.256,5.565,7.483H9.796c0-3.247,2.276-6.071,5.625-7.512L13.45,0.575c-0.096-0.135-0.06-0.324,0.077-0.418
			c0.135-0.095,0.322-0.062,0.417,0.076l2.051,2.963c1.37-0.509,2.896-0.792,4.504-0.792c1.633,0,3.182,0.293,4.568,0.816
			L27.133,0.233z M26.355,6.827c0-0.658-0.532-1.192-1.191-1.192s-1.192,0.534-1.192,1.192c0,0.659,0.533,1.193,1.192,1.193
			S26.355,7.486,26.355,6.827z M17.083,6.827c0-0.658-0.535-1.192-1.193-1.192c-0.66,0-1.195,0.534-1.195,1.192
			c0,0.659,0.534,1.193,1.193,1.193S17.083,7.486,17.083,6.827z"/>
		<path fill="#97C03E" d="M28.554,31.973h-1.271v5.352c0,1.314-1.066,2.384-2.386,2.384c-1.317,0-2.384-1.067-2.384-2.384v-5.352
			h-3.922v5.352c0,1.314-1.068,2.384-2.385,2.384c-1.315,0-2.385-1.067-2.385-2.384v-5.352h-1.378c-2.65,0-2.65-1.189-2.65-2.652
			V12.472h21.407v16.852C31.204,30.783,31.204,31.973,28.554,31.973z"/>
		<path fill="#97C03E" d="M8.312,14.855v9.75c0,0.658-0.268,1.256-0.699,1.687c-0.43,0.433-1.028,0.698-1.685,0.698
			c-1.317,0-2.385-1.067-2.385-2.385v-9.75c0-0.656,0.268-1.255,0.699-1.685c0.43-0.432,1.028-0.699,1.686-0.699
			C7.244,12.472,8.312,13.54,8.312,14.855z"/>
	</g>
</g>
</svg>
