<?xml version="1.0" encoding="utf-8"?>
<!-- Generator: Adobe Illustrator 16.0.0, SVG Export Plug-In . SVG Version: 6.00 Build 0)  -->
<!DOCTYPE svg PUBLIC "-//W3C//DTD SVG 1.1//EN" "http://www.w3.org/Graphics/SVG/1.1/DTD/svg11.dtd">
<svg version="1.1" id="Layer_2" xmlns="http://www.w3.org/2000/svg" xmlns:xlink="http://www.w3.org/1999/xlink" x="0px" y="0px"
	 width="398px" height="158px" viewBox="0 0 398 158" enable-background="new 0 0 398 158" xml:space="preserve">
<g>
	<polygon fill-rule="evenodd" clip-rule="evenodd" fill="#FF9900" points="54.291,149.21 31.226,140.936 31.226,107.128 
		54.291,114.987 	"/>
	<polygon fill-rule="evenodd" clip-rule="evenodd" fill="#FF9900" points="58.521,149.21 81.586,140.936 81.586,107.128 
		58.521,114.987 	"/>
	<polygon fill-rule="evenodd" clip-rule="evenodd" fill="#FF9900" points="33.596,104.6 56.94,98.029 78.585,105.008 56.94,112.356 
			"/>
</g>
<g>
	<polygon fill-rule="evenodd" clip-rule="evenodd" fill="#FF9900" points="26.831,101.98 3.766,93.707 3.766,59.899 26.831,67.757 	
		"/>
	<polygon fill-rule="evenodd" clip-rule="evenodd" fill="#FF9900" points="31.061,101.98 54.127,93.707 54.127,59.899 
		31.061,67.757 	"/>
	<polygon fill-rule="evenodd" clip-rule="evenodd" fill="#FF9900" points="6.136,57.369 29.48,50.799 51.126,57.778 29.48,65.126 	
		"/>
</g>
<g>
	<polygon fill-rule="evenodd" clip-rule="evenodd" fill="#FF9900" points="80.651,101.98 57.585,93.707 57.585,59.899 
		80.651,67.757 	"/>
	<polygon fill-rule="evenodd" clip-rule="evenodd" fill="#FF9900" points="84.881,101.98 107.947,93.707 107.947,59.899 
		84.881,67.757 	"/>
	<polygon fill-rule="evenodd" clip-rule="evenodd" fill="#FF9900" points="59.957,57.369 83.3,50.799 104.945,57.778 83.3,65.126 	
		"/>
</g>
<g>
	<polygon fill-rule="evenodd" clip-rule="evenodd" fill="#FF9900" points="108.111,54.75 85.045,46.478 85.045,12.67 
		108.111,20.527 	"/>
	<polygon fill-rule="evenodd" clip-rule="evenodd" fill="#FF9900" points="112.341,54.75 135.407,46.478 135.407,12.67 
		112.341,20.527 	"/>
	<polygon fill-rule="evenodd" clip-rule="evenodd" fill="#FF9900" points="87.416,10.14 110.76,3.569 132.405,10.548 110.76,17.897 
			"/>
</g>
<g>
	<polygon fill-rule="evenodd" clip-rule="evenodd" fill="#FF9900" points="161.931,54.75 138.865,46.478 138.865,12.67 
		161.931,20.527 	"/>
	<polygon fill-rule="evenodd" clip-rule="evenodd" fill="#FF9900" points="166.161,54.75 189.227,46.478 189.227,12.67 
		166.161,20.527 	"/>
	<polygon fill-rule="evenodd" clip-rule="evenodd" fill="#FF9900" points="141.236,10.14 164.58,3.569 186.224,10.548 
		164.58,17.897 	"/>
</g>
<g>
	<path stroke="#000000" d="M150.198,127.188l-7.748,26.916h-3.368l-6.032-19.992l-5.532,19.992h-3.433l-8.053-26.916h4.164
		l5.865,20.058l5.583-20.058h3.072l6.069,20.122l6.029-20.122H150.198z"/>
	<path stroke="#000000" d="M171.63,146.074l3.901,0.8c-0.71,2.302-2.094,4.208-4.149,5.715c-2.059,1.509-4.479,2.263-7.264,2.263
		c-3.671,0-6.642-1.293-8.912-3.882c-2.271-2.587-3.405-5.979-3.405-10.177c0-4.287,1.179-7.75,3.538-10.391
		c2.359-2.642,5.321-3.962,8.887-3.962c3.513,0,6.336,1.216,8.474,3.647c2.137,2.433,3.232,6.07,3.286,10.915H156.45
		c0,4.071,0.85,6.815,2.553,8.238c1.701,1.422,3.5,2.132,5.396,2.132C167.82,151.373,170.229,149.606,171.63,146.074z
		 M171.403,137.883c-0.036-1.509-0.283-2.85-0.745-4.021c-0.461-1.173-1.241-2.171-2.34-2.997c-1.099-0.825-2.42-1.238-3.962-1.238
		c-2.074,0-3.834,0.746-5.278,2.238c-1.445,1.491-2.255,3.497-2.433,6.019H171.403z"/>
	<path stroke="#000000" d="M183.511,154.104h-2.016v-36.343h4.193v13.913c1.914-3.489,4.553-5.233,7.92-5.233
		c3.082,0,5.664,1.218,7.747,3.655c2.082,2.437,3.123,5.976,3.123,10.616c0,4.002-1.024,7.358-3.072,10.07
		c-2.049,2.713-4.714,4.069-7.995,4.069c-3.653,0-6.455-1.734-8.405-5.201L183.511,154.104z M185.688,143.551
		c0.195,2.764,1.042,4.769,2.542,6.017c1.5,1.247,3.084,1.871,4.752,1.871c2.129,0,3.846-0.925,5.15-2.773
		c1.305-1.849,1.957-4.382,1.957-7.6c0-3.466-0.63-6.19-1.89-8.174c-1.261-1.981-3.009-2.974-5.244-2.974
		c-1.757,0-3.341,0.706-4.752,2.116c-1.411,1.412-2.25,3.235-2.516,5.472V143.551z"/>
	<path stroke="#000000" d="M215.164,147.128l3.998-0.826c0.889,3.381,3.697,5.071,8.424,5.071c1.74,0,3.216-0.389,4.424-1.169
		c1.209-0.779,1.813-1.878,1.813-3.296c0-2.107-1.538-3.445-4.614-4.013l-5.669-1.078c-2.221-0.427-3.986-1.262-5.301-2.506
		c-1.312-1.243-1.97-2.887-1.97-4.931c0-2.255,0.896-4.143,2.689-5.662c1.792-1.519,4.206-2.278,7.241-2.278
		c5.839,0,9.443,2.282,10.81,6.846l-3.836,0.825c-1.101-2.795-3.361-4.193-6.784-4.193c-1.704,0-3.101,0.35-4.192,1.048
		c-1.091,0.698-1.636,1.674-1.636,2.93c0,1.979,1.395,3.224,4.182,3.737l5.24,0.964c5.486,0.995,8.229,3.657,8.229,7.98
		c0,2.473-1.021,4.471-3.064,5.991c-2.042,1.522-4.76,2.283-8.153,2.283C220.617,154.852,216.673,152.276,215.164,147.128z"/>
	<path stroke="#000000" d="M260.512,146.074l3.9,0.8c-0.708,2.302-2.092,4.208-4.15,5.715c-2.056,1.509-4.478,2.263-7.262,2.263
		c-3.672,0-6.643-1.293-8.912-3.882c-2.271-2.587-3.405-5.979-3.405-10.177c0-4.287,1.179-7.75,3.54-10.391
		c2.358-2.642,5.32-3.962,8.887-3.962c3.51,0,6.336,1.216,8.473,3.647c2.138,2.433,3.233,6.07,3.285,10.915h-19.536
		c0,4.071,0.852,6.815,2.552,8.238c1.703,1.422,3.501,2.132,5.398,2.132C256.701,151.373,259.112,149.606,260.512,146.074z
		 M260.284,137.883c-0.035-1.509-0.284-2.85-0.744-4.021c-0.462-1.173-1.241-2.171-2.34-2.997c-1.099-0.825-2.421-1.238-3.962-1.238
		c-2.074,0-3.834,0.746-5.279,2.238c-1.444,1.491-2.256,3.497-2.433,6.019H260.284z"/>
	<path stroke="#000000" d="M273.57,154.104h-4.193v-26.916h3.674v6.274c1.295-2.939,2.596-4.844,3.899-5.714
		c1.304-0.872,2.64-1.308,4.007-1.308c0.426,0,0.977,0.032,1.65,0.098v3.998h-0.85c-2.305,0-4.219,0.856-5.742,2.568
		s-2.339,3.961-2.445,6.75V154.104z"/>
	<path stroke="#000000" d="M308.652,127.188l-9.293,26.916h-4.346l-9.604-26.916h4.639l7.471,21.878l7.413-21.878H308.652z"/>
	<path stroke="#000000" d="M316.49,117.761v4.648h-4.486v-4.648H316.49z M316.393,127.188v26.916h-4.193v-26.916H316.393z"/>
	<path stroke="#000000" d="M338.299,144.677l3.771,0.665c-0.532,2.975-1.713,5.303-3.541,6.985s-4.109,2.524-6.843,2.524
		c-3.71,0-6.537-1.37-8.48-4.108s-2.916-6.082-2.916-10.031c0-4.09,1.025-7.491,3.076-10.203c2.049-2.713,4.841-4.068,8.373-4.068
		c2.93,0,5.276,0.876,7.043,2.63c1.767,1.752,2.861,4.017,3.288,6.793l-3.771,0.719c-0.71-4.441-2.855-6.664-6.438-6.664
		c-2.306,0-4.079,0.98-5.319,2.941c-1.242,1.962-1.863,4.504-1.863,7.627c0,3.443,0.616,6.117,1.85,8.025
		c1.232,1.907,2.966,2.861,5.201,2.861C335.186,151.373,337.376,149.141,338.299,144.677z"/>
	<path stroke="#000000" d="M365.717,146.074l3.9,0.8c-0.709,2.302-2.092,4.208-4.15,5.715c-2.056,1.509-4.478,2.263-7.262,2.263
		c-3.672,0-6.644-1.293-8.913-3.882c-2.271-2.587-3.405-5.979-3.405-10.177c0-4.287,1.18-7.75,3.54-10.391
		c2.358-2.642,5.321-3.962,8.887-3.962c3.511,0,6.337,1.216,8.474,3.647c2.138,2.433,3.232,6.07,3.285,10.915h-19.536
		c0,4.071,0.851,6.815,2.552,8.238c1.703,1.422,3.5,2.132,5.398,2.132C361.905,151.373,364.316,149.606,365.717,146.074z
		 M365.489,137.883c-0.035-1.509-0.284-2.85-0.745-4.021c-0.461-1.173-1.24-2.171-2.339-2.997c-1.1-0.825-2.421-1.238-3.963-1.238
		c-2.075,0-3.834,0.746-5.278,2.238c-1.445,1.491-2.257,3.497-2.433,6.019H365.489z"/>
	<path stroke="#000000" d="M372.44,147.128l3.999-0.826c0.889,3.381,3.696,5.071,8.423,5.071c1.741,0,3.216-0.389,4.424-1.169
		c1.209-0.779,1.813-1.878,1.813-3.296c0-2.107-1.538-3.445-4.614-4.013l-5.669-1.078c-2.221-0.427-3.986-1.262-5.301-2.506
		c-1.312-1.243-1.97-2.887-1.97-4.931c0-2.255,0.896-4.143,2.689-5.662c1.791-1.519,4.205-2.278,7.241-2.278
		c5.839,0,9.442,2.282,10.809,6.846l-3.836,0.825c-1.1-2.795-3.361-4.193-6.784-4.193c-1.703,0-3.101,0.35-4.191,1.048
		s-1.637,1.674-1.637,2.93c0,1.979,1.395,3.224,4.183,3.737l5.24,0.964c5.485,0.995,8.229,3.657,8.229,7.98
		c0,2.473-1.021,4.471-3.064,5.991c-2.042,1.522-4.761,2.283-8.153,2.283C377.894,154.852,373.95,152.276,372.44,147.128z"/>
</g>
<g>
	<g>
		<path fill-rule="evenodd" clip-rule="evenodd" d="M277.924,69.661v-6.465c0.004-0.984,0.745-1.64,1.639-1.638l28.978-0.003
			c0.927,0,1.67,0.675,1.672,1.633l-0.002,5.545c-0.007,0.93-0.79,2.144-2.182,4.07l-15.01,21.431
			c5.572-0.131,11.466,0.703,16.528,3.549c1.142,0.641,1.447,1.592,1.537,2.524v6.898c0,0.951-1.04,2.051-2.133,1.479
			c-8.92-4.672-20.756-5.183-30.618,0.057c-1.008,0.537-2.062-0.547-2.062-1.498v-6.558c0-1.049,0.02-2.844,1.078-4.444
			l17.391-24.949l-15.142-0.003C278.672,71.289,277.93,70.629,277.924,69.661z"/>
		<path fill-rule="evenodd" clip-rule="evenodd" d="M174.22,110.043h-8.815c-0.839-0.055-1.51-0.686-1.577-1.49l0.006-45.247
			c0-0.905,0.762-1.629,1.701-1.629l8.21-0.002c0.859,0.044,1.549,0.694,1.604,1.52v5.907h0.165
			c2.14-5.713,6.172-8.379,11.603-8.379c5.514,0,8.97,2.666,11.439,8.379c2.139-5.713,6.994-8.379,12.179-8.379
			c3.703,0,7.735,1.523,10.204,4.951c2.798,3.809,2.223,9.331,2.223,14.187l-0.007,28.553c0,0.904-0.762,1.629-1.7,1.629h-8.806
			c-0.885-0.057-1.583-0.758-1.583-1.625l-0.002-23.987c0-1.904,0.165-6.665-0.247-8.475c-0.658-3.046-2.633-3.903-5.184-3.903
			c-2.14,0-4.362,1.428-5.268,3.713s-0.822,6.093-0.822,8.665v23.983c0,0.904-0.762,1.629-1.7,1.629h-8.806
			c-0.885-0.057-1.583-0.758-1.583-1.625l-0.009-23.987c0-5.046,0.823-12.473-5.431-12.473c-6.337,0-6.09,7.236-6.09,12.473
			l-0.004,23.983C175.921,109.318,175.159,110.043,174.22,110.043z"/>
		<path fill-rule="evenodd" clip-rule="evenodd" d="M331.499,60.723c12.98,0,20.001,11.235,20.001,25.517
			c0,13.806-7.754,24.756-20.001,24.756c-12.735,0-19.675-11.236-19.675-25.232C311.824,71.672,318.846,60.723,331.499,60.723z
			 M331.581,71.123c-6.451,0-6.858,8.854-6.858,14.377s-0.082,16.165,6.776,16.165c6.777,0,7.103-8.357,7.103-14.165
			c0-3.809-0.162-8.379-1.306-11.997C336.314,72.361,334.355,71.123,331.581,71.123z"/>
		<path fill-rule="evenodd" clip-rule="evenodd" d="M370.287,110.043h-8.783c-0.883-0.057-1.582-0.758-1.582-1.625l-0.014-45.264
			c0.074-0.827,0.805-1.477,1.693-1.477l8.178-0.002c0.77,0.04,1.404,0.565,1.566,1.268v6.921h0.166
			c2.469-6.189,5.924-9.141,12.014-9.141c3.949,0,7.818,1.428,10.287,5.332c2.305,3.618,2.305,9.712,2.305,14.092v28.471
			c-0.1,0.803-0.818,1.426-1.689,1.426h-8.838c-0.816-0.053-1.475-0.652-1.57-1.426V84.05c0-4.951,0.576-12.188-5.514-12.188
			c-2.141,0-4.115,1.428-5.102,3.618c-1.234,2.761-1.4,5.522-1.4,8.569v24.364C371.988,109.318,371.227,110.043,370.287,110.043z"/>
		<path fill-rule="evenodd" clip-rule="evenodd" d="M255.823,88.435c0,3.436,0.082,6.298-1.649,9.352
			c-1.402,2.481-3.629,4.008-6.104,4.008c-3.381,0-5.36-2.577-5.36-6.394c0-7.508,6.735-8.874,13.113-8.874V88.435z M264.711,109.93
			c-0.584,0.523-1.425,0.559-2.083,0.205c-2.928-2.434-3.452-3.559-5.053-5.875c-4.84,4.93-8.268,6.408-14.535,6.408
			c-7.422,0-13.195-4.58-13.195-13.74c0-7.157,3.876-12.023,9.401-14.409c4.783-2.1,11.464-2.481,16.577-3.054V78.32
			c0-2.099,0.165-4.581-1.072-6.393c-1.072-1.623-3.134-2.291-4.948-2.291c-3.362,0-6.352,1.723-7.086,5.294
			c-0.152,0.794-0.732,1.58-1.531,1.621l-8.545-0.925c-0.722-0.163-1.523-0.741-1.315-1.843
			c1.964-10.367,11.325-13.499,19.715-13.499c4.288,0,9.896,1.145,13.277,4.39c4.289,4.008,3.876,9.352,3.876,15.172v13.735
			c0,4.131,1.717,5.944,3.328,8.17c0.562,0.802,0.689,1.756-0.029,2.341c-1.801,1.51-5,4.289-6.761,5.855L264.711,109.93z"/>
		<path fill-rule="evenodd" clip-rule="evenodd" d="M141.254,88.435c0,3.436,0.083,6.298-1.649,9.352
			c-1.401,2.481-3.628,4.008-6.103,4.008c-3.381,0-5.36-2.577-5.36-6.394c0-7.508,6.735-8.874,13.112-8.874V88.435z M150.143,109.93
			c-0.584,0.523-1.426,0.559-2.083,0.205c-2.929-2.434-3.453-3.559-5.054-5.875c-4.839,4.93-8.267,6.408-14.534,6.408
			c-7.423,0-13.195-4.58-13.195-13.74c0-7.157,3.876-12.023,9.401-14.409c4.783-2.1,11.464-2.481,16.576-3.054V78.32
			c0-2.099,0.165-4.581-1.071-6.393c-1.072-1.623-3.135-2.291-4.948-2.291c-3.362,0-6.353,1.723-7.086,5.294
			c-0.153,0.794-0.732,1.58-1.532,1.621l-8.544-0.925c-0.722-0.163-1.524-0.741-1.315-1.843
			c1.963-10.367,11.324-13.499,19.714-13.499c4.289,0,9.896,1.145,13.278,4.39c4.288,4.008,3.876,9.352,3.876,15.172v13.735
			c0,4.131,1.716,5.944,3.327,8.17c0.562,0.802,0.689,1.756-0.028,2.341c-1.801,1.51-5.001,4.289-6.761,5.855L150.143,109.93z"/>
	</g>
</g>
</svg>
