<?xml version="1.0" encoding="utf-8"?>
<!-- Generator: Adobe Illustrator 16.0.0, SVG Export Plug-In . SVG Version: 6.00 Build 0)  -->
<!DOCTYPE svg PUBLIC "-//W3C//DTD SVG 1.1//EN" "http://www.w3.org/Graphics/SVG/1.1/DTD/svg11.dtd">
<svg version="1.1" id="Layer_1" xmlns="http://www.w3.org/2000/svg" xmlns:xlink="http://www.w3.org/1999/xlink" x="0px" y="0px"
	 width="137.57px" height="117.688px" viewBox="0 6.5 137.57 117.688" enable-background="new 0 6.5 137.57 117.688"
	 xml:space="preserve">
<g>
	<path fill="#28334C" d="M54.982,32.589c12.868-1.142,16.569-9.409,31.53-10.724c7.351-0.64,12.038,0.831,12.574,3.39
		c0.519,2.439-3.251,3.995-7.627,4.393c-6.037,0.536-8.735-1.66-9.167-3.718c-4.531,0.519-5.344,2.525-5.067,3.857
		c0.553,2.664,6.088,5.154,15.531,4.324c10.688-0.934,14.269-5.05,13.352-9.392c-1.159-5.518-9.443-10.049-24.145-8.752
		c-18.904,1.661-18.852,10.377-31.72,11.519c-5.258,0.467-8.268-0.709-8.7-2.802c-0.449-2.093,2.197-3.062,5.276-3.338
		c2.888-0.259,6.278,0.139,7.887,1.055c1.21-0.623,1.608-1.228,1.47-1.92c-0.398-1.902-4.427-2.785-9.495-2.335
		c-9.633,0.847-9.582,5.258-9.219,7.039C38.482,30.098,45.868,33.401,54.982,32.589z"/>
	<path fill="#28334C" d="M28.659,44.488c11.761,3.027,26.947,4.549,45.159,4.549c18.593,0,33.398-1.522,45.159-4.549
		c12.522-3.043,18.593-6.832,18.593-10.637c0-2.646-2.664-5.31-7.592-7.212c1.141,0.761,1.902,1.902,1.902,3.407
		c0,3.788-5.689,6.832-17.07,9.496c-10.62,2.283-24.283,3.788-40.61,3.788c-15.947,0-29.974-1.521-40.23-3.788
		c-11-2.646-16.708-5.69-16.708-9.496c0-1.522,0.762-3.027,3.027-4.549c-6.832,2.646-10.619,4.93-10.619,8.354
		C10.065,37.656,16.136,41.461,28.659,44.488z"/>
	<path fill="#28334C" d="M119.358,53.984c-11.761,2.646-26.947,4.548-45.159,4.548c-18.593,0-33.779-1.903-45.54-4.548
		c-10.62-2.664-16.31-5.69-18.213-8.735c0.986,6.936,2.716,13.646,4.999,20.063c-2.664,1.591-5.085,3.719-7.265,6.503
		c-4.167,5.31-6.07,11.38-5.689,17.452c0.38,6.07,3.407,10.999,7.973,14.805c4.93,3.788,10.239,4.929,16.31,3.788
		c2.284-0.381,4.929-1.523,7.213-2.283c-4.929,0-9.115-1.523-13.283-4.929c-4.549-3.425-7.593-7.976-8.354-13.664
		c-1.142-5.311,0-10.239,3.026-14.425c0.64-0.78,1.35-1.436,2.042-2.093c1.66,4.012,3.494,7.887,5.534,11.589
		c4.549,6.83,9.115,12.901,13.664,19.353c1.902,3.787,3.407,7.593,4.168,11.381c3.027,4.169,7.212,6.831,12.522,8.354
		c6.451,2.283,13.283,3.406,20.115,3.044h0.761c6.833,0.38,14.044-0.761,20.877-3.044c4.929-1.523,9.114-4.169,12.141-8.354h0.381
		c0.761-3.788,1.903-7.594,3.788-11.381c4.549-6.451,9.115-12.522,13.664-19.353c6.071-11.003,10.24-23.523,12.522-36.807
		C135.287,48.673,129.597,51.7,119.358,53.984z"/>
</g>
</svg>
