<?xml version="1.0" encoding="utf-8"?>
<!-- Generator: Adobe Illustrator 16.0.0, SVG Export Plug-In . SVG Version: 6.00 Build 0)  -->
<!DOCTYPE svg PUBLIC "-//W3C//DTD SVG 1.1//EN" "http://www.w3.org/Graphics/SVG/1.1/DTD/svg11.dtd">
<svg version="1.1" id="Layer_1" xmlns="http://www.w3.org/2000/svg" xmlns:xlink="http://www.w3.org/1999/xlink" x="0px" y="0px"
	 width="99.92px" height="107.1px" viewBox="19 16.2 99.92 107.1" enable-background="new 19 16.2 99.92 107.1"
	 xml:space="preserve">
<g id="Zzq1CM_1_">
	<g>
		<path fill="#CECECE" d="M59.85,20.75c0.75,0.43,1.09,1.27,1.01,2.53c-0.51,0-1.01,0-1.52,0C59.14,22.06,60.27,22.18,59.85,20.75z"
			/>
		<path fill="#212121" d="M54.29,34.92c-1.36,2.79-4.95-2.04-6.07,1.52C46.64,32.86,52.23,33.26,54.29,34.92z"/>
		<path fill="#212121" d="M62.38,37.95c0-0.51,0-1.01,0-1.52c-0.46-1.22-1.49,1.15-3.04,0.51c-0.58-2.44,2.35-1.36,2.53-3.04
			c1.17-0.15,0.56,1.46,1.52,1.52c0,1.18,0,2.36,0,3.54c-0.75,0.09-0.46,1.22-0.51,2.02c-1.1,0.09-0.23-1.79-0.51-2.53
			C62.38,38.29,62.38,38.12,62.38,37.95z"/>
		<path fill="#CECECE" d="M30.01,34.41c0,3.03,0,6.07,0,9.1C29.17,41.65,29.17,36.28,30.01,34.41z"/>
		<path fill="#212121" d="M47.71,41.49c0.99-1.54,2.03-3.03,5.06-2.53c-0.13,1.69-3.46,0.82-1.01,2.53
			C51.41,43.34,48.28,42.41,47.71,41.49z"/>
		<path fill="#212121" d="M62.38,43.52c-0.31,0.03-0.6,0.08-0.51,0.51c-1.51-0.01-0.65-2.39-1.52-3.04
			c-0.79,0.04,0.97,3.02-1.52,2.53c-0.54,1.89,1.26,1.44,1.01,3.04c-2.11-1.13-2.6-2.85-2.02-5.56c2.26-0.35,2.53-1.36,4.55,0
			c0,0.67,0,1.35,0,2.02C62.38,43.18,62.38,43.35,62.38,43.52z"/>
		<path fill="#212121" d="M77.05,50.09c-0.11-0.39-0.42-0.59-1.01-0.51c-0.08-1.43,3.12,0.42,3.04-1.01c0-0.28-0.41-0.57-0.51,0
			c-0.75-0.09-0.46-1.22-0.51-2.02c-1.89,0.2-2.97-0.4-3.04-2.02c2.23,0.98,5.29,1.11,6.07,3.54c-2.2-0.52-0.92-0.57-1.01,1.52
			c-0.73,0.28-2.61-0.59-2.53,0.51C77.39,50.09,77.22,50.09,77.05,50.09z"/>
		<path fill="#212121" d="M82.11,48.57c-0.28-1.12,0.97-0.72,1.01-1.52c-0.37-0.47-0.92-0.77-1.52-1.01c0.68-2.06,1.29-0.11,2.53,0
			c0.26,1.59-1.19,2.07,0.51,2.53c-0.46,1.97-1.86-1.68-2.02,0C82.45,48.57,82.28,48.57,82.11,48.57z"/>
		<path fill="#212121" d="M58.33,49.59c0.06-1.29,0.74-1.96,2.02-2.02C60.3,48.85,59.62,49.52,58.33,49.59z"/>
		<path fill="#212121" d="M61.88,53.13c-0.27,0.41-0.53,0.82-0.51,1.52c-0.59,0.76-1.46,1.24-1.52,2.53
			c-1.47-1.34,0.96-3.05,1.01-4.55C61.37,52.62,61.47,53.03,61.88,53.13z"/>
		<path fill="#212121" d="M88.69,60.71c0-0.67,0-1.35,0-2.02c0.67,0.01,0.46,0.89,1.01,1.01c-0.29,1.64,0.34,2.35,0.51,3.54
			c0,1.18,0,2.36,0,3.54c-0.51,0-0.6-0.41-1.01-0.51C89.59,64.98,89.35,62.35,88.69,60.71z"/>
		<path fill="#212121" d="M89.7,70.83c0-1.18,0-2.36,0-3.54c2.08,3.76,0.06,8.521,3.54,10.62c-0.82,1.58-1.6-1.04-2.53-1.01
			c0-0.17,0-0.34,0-0.51c-1.26-0.771,0.31-4.361-1.01-5.061C89.7,71.17,89.7,71,89.7,70.83z"/>
		<path fill="#212121" d="M76.04,80.439c-2.07-1.16-3.95,1.61-5.56,2.531c-1.44-1.311,1.78-2.24,2.53-3.041
			c1.11-1.08,2.81-1.57,3.54-3.039C77.99,77.73,76.3,79.65,76.04,80.439z"/>
		<path fill="#CECECE" d="M56.82,79.939c2.2,0.33,5.72-0.66,7.08,0.511c-1.56-0.38-0.97,1.39-2.53,1.01c0-0.34,0-0.67,0-1.01
			c-2.47,0.1-1.7,0.29-3.54,1.01c0.73-0.89,0.46-1.149-1.01-1.01C56.82,80.27,56.82,80.109,56.82,79.939z"/>
		<path fill="#CECECE" d="M21.41,89.04c0.32,7.601-0.66,16.51,0.51,23.271c-0.09-0.061-0.99,0.069-1.01,0
			c-0.65-2.86,0-7.83,0-12.141C20.9,96.08,20.51,91.91,21.41,89.04z"/>
		<path fill="#CECECE" d="M110.94,89.04c1.17,1.36,0.18,4.88,0.51,7.08C110.28,94.76,111.27,91.25,110.94,89.04z"/>
		<path fill="#CECECE" d="M111.45,97.641c1.17,2.029,0.18,6.229,0.51,9.109C110.78,104.71,111.78,100.51,111.45,97.641z"/>
		<path fill="#CECECE" d="M68.45,112.311c5.9-0.84,15.34-0.84,21.25,0C82.61,112.311,75.53,112.311,68.45,112.311z"/>
		<path fill="#CECECE" d="M90.2,112.311c0.55-0.84,4.51-0.84,5.06,0C93.58,112.311,91.89,112.311,90.2,112.311z"/>
		<path fill="#CECECE" d="M45.69,17.72c1.05-0.8,2.06-1.65,3.54-2.02c0.1,1.42,1.65,1.38,2.02,2.53c-0.75-0.6-2.26-0.44-2.02-2.02
			C47.54,16.2,47.5,17.85,45.69,17.72z"/>
		<path fill="#CECECE" d="M29,31.88c0.11-2.42,1.86-3.2,2.53-5.06C32.07,27.9,29.61,30.29,29,31.88z"/>
		<path fill="#CECECE" d="M31.02,46.04c0.35-0.12,0.58,0.23,0.51,0.51c0.42-1.5,1.23-4.62,2.53-5.56c2.24,0.71,3.61-0.67,4.05,2.02
			c0.66-0.52,1.86-0.5,2.53-1.01c-0.26-5.65,4.23-6.56,3.54-12.65c1.49-0.53,1.76-2.29,2.53-3.54c2.15,0.45,3.2,0.12,6.07,0.51
			c0.04,1.3,2.17,0.53,1.52,2.53c3.06,0.32,4.3,2.45,7.59,2.53c1.29-0.23,0.85-2.19,2.02-2.53c0.17,0,0.34,0,0.51,0
			c-0.48,1.04-0.63,2.41-2.02,2.53c0.27,1.42,0.74,2.63,1.01,4.05c-0.96-0.06-0.35-1.67-1.52-1.52c-0.18,1.68-3.11,0.6-2.53,3.04
			c1.54,0.64,2.58-1.73,3.04-0.51c0,0.51,0,1.01,0,1.52c-0.49-0.01-0.39-0.62-0.51-1.01c-2.11-0.56-2.11,3.59,0,3.04
			c-0.04-0.72-0.08-1.43,0.51-1.52c0.28,0.74-0.59,2.62,0.51,2.53c0.04-0.8-0.24-1.93,0.51-2.02c-0.04,1.64-0.26,3.11-1.01,4.05
			c0-0.67,0-1.35,0-2.02c-2.02-1.36-2.29-0.35-4.55,0c-0.58,2.72-0.09,4.43,2.02,5.56c0.24-1.59-1.55-1.15-1.01-3.04
			c2.49,0.49,0.73-2.49,1.52-2.53c0.87,0.65,0.01,3.02,1.52,3.04c-0.09-0.43,0.2-0.48,0.51-0.51c-0.19,1.71,0.88,2.16,1.52,3.04
			c0.19,3.05-0.48,5.25-2.02,6.58c-0.41-0.1-0.5-0.51-1.01-0.51c-0.05,1.5-2.48,3.21-1.01,4.55c0.06-1.29,0.93-1.77,1.52-2.53
			c-0.58,2.29-2.74,2.99-2.02,6.58c-1.32,0.2-1.53,1.51-3.04,1.52c0.76-0.59,1.24-1.46,2.53-1.52c-0.14-1.19-1.88,0.05-2.02,0.51
			c-2.93-0.49-8.46-1.72-11.64-3.54c-0.73,1.26,2.96,2.42,4.05,3.54c0,0.17,0,0.34,0,0.5c-4.02-2.22-7.31-5.16-9.1-9.61
			c-3,2.43,2.76,5.39,0.51,7.59c0.08,0.59,0.92,0.43,1.52,0.51c-0.98,0.54-0.71,2.33-1.52,3.04c0.33,0.51,1.16,0.52,1.01,1.52
			c-0.9-0.14-1.04,0.48-0.51,0.51c-0.18,0.71-0.89,0.04-1.01-0.51c-0.47,0.37-0.77,0.92-1.01,1.52c2.82,0.96,7.49-0.6,11.63,0
			c-4.17,0.88-9.59,0.52-13.66,1.52c-0.08-1.26,0.79-1.57,1.01-2.53c-0.82-0.14-0.87,0.48-1.52,0.51c0.73-0.79,1.06-1.97,1.52-3.04
			c0.74,0.22-0.05,0.44,0,1.01c2.14-1.57,0.87-8.58-0.51-10.12c0.47-1.21,2.03-1.34,1.52-3.54c-0.48,0.26-1.68,2.27-2.02,1.01
			c0.17,0,0.34,0,0.51,0c0.39-0.45,0.54-1.14,0.51-2.02c-0.99-0.23-3.13-1.88-4.05-0.51c1.48,0.21,1.64,1.73,2.53,2.53
			c-1.9-0.63-2.23-2.83-4.05-3.54c0.8,1.73,2.45,2.61,3.04,4.55C33.68,50.8,31.97,48.8,31.02,46.04z M33.55,45.03
			c0-0.34,0-0.67,0-1.01c1.25,0.07,2.46,0.09,2.53-1.01C34.74,41.28,32.15,44.14,33.55,45.03z M48.22,36.43
			c1.12-3.55,4.71,1.27,6.07-1.52C52.23,33.26,46.64,32.86,48.22,36.43z M48.22,37.95c0.11-0.39,0.01-1,0.51-1.01
			c0.11,0.39,0.01,1,0.51,1.01c1.12-0.73-0.64-1.23,0.51-1.52c1.35,0.5,2.67,1.04,4.55,1.01c0.05-0.8,1.29-0.4,1.01-1.52
			c-2.17,1.27-3.54-0.23-5.56-0.51C49.39,36.14,46.64,36.98,48.22,37.95z M51.76,41.49c-2.44-1.71,0.89-0.84,1.01-2.53
			c-3.03-0.5-4.07,0.99-5.06,2.53C48.28,42.41,51.41,43.34,51.76,41.49z M46.19,44.53c2.22,0.37-0.41-1,1.01-1.01
			c0,0.51,0.41,0.6,0.51,1.01c-1.79,0.44,0.31,1.88-1.52,2.53c0.74,0.52,0.2,2.94-0.51,4.55c0.51,0,1.01,0,1.52,0
			c0.04-0.88-0.11-1.57-0.51-2.02c1.6,1.78,1.44-2.79,3.04-1.01c-0.05-1.57,0.62-2.42,1.01-3.54c-1.4,0.68-0.99-1.43-1.52-2.02
			c-0.24-0.27-1.24-0.86-1.52-1.01c-0.22-0.12-0.72-0.93-1.01,0c2.08,2.12-2.47-0.99-1.01,0.51C46.44,42.6,46.15,43.73,46.19,44.53z
			 M56.31,35.42c-0.9,1.62-1.32,2.21-1.52,3.54c0.67,0.51,1.53,0.83,2.02,1.52c-1.55-0.09,0.58,2.57,0.51,1.01
			c-0.57,0.25-0.09-3.76,1.01-2.02C57.98,37.72,58.28,36.42,56.31,35.42z M60.36,47.56c-1.29,0.06-1.96,0.74-2.02,2.02
			C59.62,49.52,60.3,48.85,60.36,47.56z M54.29,49.08c0.91,0.85,3.1,0.13,3.54-1.01C55.78,48.47,55.5,48.72,54.29,49.08z
			 M57.83,52.62c0.01-0.67,0.89-0.46,1.01-1.01c-0.68-0.33-0.94-1.08-1.01-2.02c-2.06,0.55-3.43,0.46-5.06-0.51
			c-0.33,2.15-1.45,0.37-2.02,2.02c0.9,0.61,2.94,0.09,3.54,1.01c-1.77,0.71-3.24-1.42-4.05,0c3.47,0.24,3.52,3.9,7.59,3.54
			c1.03-0.66,1.21-2.16,2.02-3.04C59.18,52.62,58.5,52.62,57.83,52.62z M49.23,52.12c0.16,1.17-1.46,0.56-1.52,1.52
			c1.37,0.45-1.07,1.22-1.52,1.52c-0.7-0.31-0.08-1.95-1.01-2.02c0,0.67,0,1.35,0,2.02c1.37,1.17,2.37-0.96,3.04,0
			c-0.01,0.67-0.89,0.46-1.01,1.01c0.72,0.2,0.85,0.61,1.52,0c-0.15,1.33,0.7,1.66,2.02,1.52c-0.42-1.62-0.43-1.05,0.51-2.02
			c-0.39-0.11-1-0.01-1.01-0.51c0.25-0.6,0.54-1.15,1.01-1.52c-0.95,2.33,0.58,0.56,1.52,2.53c-1.26,0.08-0.15,1.71,0,2.02
			c-0.51,0-0.6-0.41-1.01-0.51c-0.08,1.26,0.26,2.1,1.01,2.53c-0.39-1.92,3.16,0.62,3.54-1.52c-0.6-0.08-1.44,0.09-1.52-0.51
			c0.28,0,0.57-0.41,0-0.51c-0.25,0.6-0.54,1.15-1.01,1.52c0.02-0.7-0.24-1.11-0.51-1.52c0.87,0.13,3-0.95,1.52-1.52
			c-0.12,0.55-0.83,1.21-1.01,0.5c0.05-0.8,1.29-0.4,1.01-1.52C52.27,54.8,52.04,52.17,49.23,52.12z"/>
		<path fill="#CECECE" d="M32.54,70.83c1.34-1.36,2.02-3.38,4.05-4.05C35.45,68.35,34.1,69.7,32.54,70.83z"/>
		<path fill="#CECECE" d="M34.05,112.311c1.48-0.11,1.52,1.76,2.02,2.529c1.6,2.43,3.89,5.04,6.07,7.59
			C38.5,120.01,36.64,115.8,34.05,112.311z"/>
		<path fill="#CECECE" d="M49.23,119.9c1.25-1.621,3.56-2.18,5.06-3.541C53.22,118.16,51.07,118.88,49.23,119.9z"/>
		<path fill="#CECECE" d="M54.79,116.359c1.53-1.18,2.9-5.18,5.06-4.049C57.14,112.641,56.97,115.5,54.79,116.359z"/>
		<path fill="#CECECE" d="M96.27,56.16c0.75,1.61,1.87,2.85,2.02,5.06C97.54,59.61,96.43,58.37,96.27,56.16z"/>
		<path fill="#CECECE" d="M88.69,60.71c-1.09-2.45-1.6-5.49-2.53-8.09c-4.24,0.53-4.53-2.89-8.6-2.53c-0.09-1.1,1.79-0.23,2.53-0.51
			c0.09-2.09-1.19-2.04,1.01-1.52c-0.78-2.43-3.84-2.56-6.07-3.54c0.07,1.62,1.15,2.23,3.04,2.02c0.04,0.8-0.24,1.93,0.51,2.02
			c0.1-0.57,0.51-0.28,0.51,0c0.08,1.43-3.12-0.42-3.04,1.01c0.59-0.08,0.9,0.11,1.01,0.51c-2.15,0.45-2.31-2.6-1.52-3.54
			c-1.12-1.35-2.32-4.72-0.51-6.07c0.17,0,0.34,0,0.51,0c-0.1,0.41-0.51,0.5-0.51,1.01c2.53,0.34,3.03-1.35,4.05-2.53
			c-2.02-0.43-1.37,3.12-3.04,1.52c1.01-1.02,2.39-1.65,3.04-3.04c1.49,1.21,3.91,1.49,5.06,3.04c-1.7,0.35,1.88,1.95,2.53,2.53
			c2.42,2.16,6.26,8.36,5.06,4.55c1.46,0.23,1.2,2.18,2.53,2.53c0,0.17,0,0.34,0,0.51c-0.34,0-0.67,0-1.01,0
			c-0.3,2.17,2,4.33,2.53,6.07c0.13,0.44-0.18,1.1,0,1.52c0.62,1.42,1.93,3.04,2.53,4.55c0.34,0.85-0.31,2.64,1.01,3.04
			c0.58,6.791,1.51,14.339,1.52,18.72c-6.07,0-12.14,0-18.21,0c-0.38-4.4-0.21-6.6,0.51-10.62c-0.07-1.11-1.27-1.091-2.53-1.011
			c-1.12,0.061-0.22,2.15-0.51,3.041c-0.17,0-0.34,0-0.51,0c0.17-1.01-0.1-1.58-1.01-1.521c-1.55,2.3-0.1,2.86-1.52,5.56
			c0.55,0.121,0.34,1.011,1.01,1.011c-0.34-2.19,0.58-3.13,1.52-4.05c0.14,2.17-1.55,2.5-1.01,5.06
			c-1.36,0.351-0.98-1.05-1.52-1.521c-2.03,3.201-5.7,4.761-11.63,4.051c-0.88-1.03,0.38-0.99-0.51-2.02
			c-5.25,0.039-13.71-0.111-18.72,0.51c-0.51-1.69,0.7-1.66,2.02-1.521c-0.01,0.49-0.62,0.39-1.01,0.511
			c-0.14,1.369,3.02-0.521,1.52-0.511c-0.22-0.84,1.89,0.05,2.02,0.511c0.55-0.121,0.34-1.011,1.01-1.011
			c-1.03-1.64-5.12,0.56-5.56-0.51c2.59-0.95,6.75-0.33,10.12-0.511c-0.06,1.121-2.15,0.211-3.04,0.511
			c-0.51,0.329-0.52,1.159-1.52,1.01c1.67,1.479,5.32-0.351,6.58,0.511c0.94-0.07,1.69-0.33,2.02-1.011c0.74,0.22-0.05,0.44,0,1.011
			c0.96-0.221,3.05,0.689,2.53-1.011c0.59,0.08,0.43,0.92,0.51,1.521c0.74,0,2.54-1.41,1.01-2.021c-0.25-0.66,2.51-0.22,2.02,1.011
			c2.98-1.57,5.51-3.601,8.09-5.561c0.59-0.08,0.9,0.109,1.01,0.51c0.26-0.37,0.36-2.37,2.02-1.01c0.71-2.21,0.15-3.12-1.01-4.551
			c1.33,2.041,5.91,0.83,7.59,2.531c-0.95,2.699-0.5,3.81-1.52,6.58c1.11-0.08,1.09-1.271,1.01-2.531
			c1.46,0.541,1.68,1.531,1.01,3.031c0.9,0.139,1.04-0.48,0.51-0.511c0.33-0.86,1.16-0.319,1.01,0.511c1.15-0.98,2.13,0.109,2.53,0
			c0.6-0.16-0.15-1.25,1.01-1.521c0.84-0.19,1.04,0.25,2.53,0.51c0.24-1.59-1.36-1.34-1.52-2.53c0.93-0.029,1.71,2.59,2.53,1.01
			c-3.48-2.109-1.46-6.859-3.54-10.62c0,1.18,0,2.36,0,3.54c-1.15-0.54-0.19-3.179-0.51-4.549c0.41,0.1,0.5,0.51,1.01,0.51
			c0-1.18,0-2.36,0-3.54c1.37-0.36-0.36,2.39,1.01,2.02c-0.61,4.2,0.5,8.99,2.53,12.65c0.08,0.59,0.92,0.43,1.52,0.51
			c0.57,1.59-0.15,1.34,0.51,2.53c0.18,0.72,2.58,1.73,3.04,0.51c-0.12-1.3-0.87,0.689-2.02,0c0.96-0.6,1.17-1.27,0-2.02
			c0.67-0.851,1.34-1.701,1.01-3.541c-0.12-1.299-0.87,0.701-2.02,0c-0.09-2,0.78,0.16,1.52-1.01c-0.61-0.67-0.2-0.8,0-1.52
			c-0.22-0.62-0.65-1.04-1.52-1.01c0.87-1.891-0.17-3.75-1.01-5.561c-0.15-0.47-1.37-0.47-1.52,0c-1.58-0.82,1.04-1.6,1.01-2.53
			c-0.79-0.73-0.4-2.64-2.02-2.53c1.49-0.85-1.58-2.27,0-3.04c-1.03-1.45-1.97-2.82-1.01-4.05c-1.3-0.93-0.31-1.26-1.52-2.53
			c-0.45,0.39-1.14,0.54-2.02,0.51c0.67,0.84-0.18,3.22,1.52,3.04c-0.65,1.58,0.61,2.2,0.51,4.05c-0.55-0.12-0.34-1-1.01-1.01
			C88.69,59.37,88.69,60.04,88.69,60.71z M82.61,48.57c0.16-1.68,1.57,1.97,2.02,0c-1.7-0.46-0.25-0.94-0.51-2.53
			c-1.24-0.11-1.85-2.06-2.53,0c0.6,0.25,1.15,0.54,1.52,1.01c-0.05,0.8-1.29,0.4-1.01,1.52c-0.6,0.08-1.44-0.09-1.52,0.51
			c1.27,0.42,1.99,1.39,3.54,1.52C84.22,49.33,83.36,49.01,82.61,48.57z M82.61,40.99c-0.25,1.7-2.42,2.95-0.51,4.05
			c0.7-2.87,3.73,1.82,2.02,3.04c1.25,0.6,1.98,1.73,2.53,3.04c1.7,0.01,2.68-0.7,3.54-1.52c-0.28,0-0.57-0.41,0-0.51
			c0.12,0.55,0.83,1.21,1.01,0.51c-0.39-0.11-0.59-0.42-0.51-1.01c-1.15-0.69-1.9,1.3-2.02,0c0.31-0.03,0.6-0.08,0.51-0.51
			c-1.62,0.44-1.58-0.78-2.02-1.52c-1.15-0.69-1.9,1.3-2.02,0c0.81-0.93-0.47-1.71,1.01-2.53c0,0.28,0.41,0.57,0.51,0
			C85.25,43.07,84.56,41.4,82.61,40.99z M87.67,51.61c-1.28-0.43-5.12-0.91-5.56-0.51C83.56,51.85,86.76,53.28,87.67,51.61z
			 M92.73,54.64c-0.46,2.04,2.46,2.03,1.01,3.54c1.27-0.67,1.58,2,2.02,0.51c-0.69-1.17-1.45-2.26-1.52-4.05
			C93.74,54.64,93.24,54.64,92.73,54.64z M94.76,62.74c1.15,0.14,1.9-0.12,2.02-1.01c-0.59-0.08-0.55-0.8-0.51-1.52
			c-0.75-0.26-1.28-0.75-2.02-1.01c-0.08,1.26,0.26,2.1,1.01,2.53C96.28,60.52,95.04,62.29,94.76,62.74z M90.2,80.439
			c-0.25,1.631,2.63,2.721,3.54,1.521c-0.79-0.13-0.35-1.11,0-1.521C92.59,80.2,91.16,79.439,90.2,80.439z M78.57,45.54
			c-0.06-1.94,3.03-3.35,2.02-4.55C80.29,42.56,77.1,43.87,78.57,45.54z M76.54,76.9c-0.73,1.459-2.43,1.949-3.54,3.039
			c-0.75,0.801-3.97,1.721-2.53,3.041c1.61-0.92,3.5-3.69,5.56-2.53C76.3,79.65,77.99,77.73,76.54,76.9z M76.04,76.9
			c-2.59-0.461-2.03,2.209-4.05,1.01c-0.06,1.27-0.96,1.58,0.51,2.02C72.85,78.09,75.59,78.641,76.04,76.9z M69.46,83.98
			c0.89-0.291,2.97,0.609,3.04-0.51c-1.33-0.531,3.14-0.08,1.52-1.521C73.46,82.38,70.44,82.54,69.46,83.98z"/>
		<path fill="#CECECE" d="M89.7,71.34c1.32,0.7-0.25,4.29,1.01,5.061c-1.73-1.48-5.66-0.75-6.07-3.541
			c2.3-0.27,3.03,1.021,4.55,1.521C90.31,74.311,89.41,72.23,89.7,71.34z"/>
		<path fill="#CECECE" d="M64.91,66.28c4.7,0.53,7.77,2.68,11.13,4.55c-0.85,1.85-0.68,4.71-2.53,5.561
			c-2.21-1.41-0.13-4.42-1.01-6.581c-0.14-1.04-1.35-1.01-2.02-1.52c-1.26,1.06,0.85,4,0,5.56c-0.89-0.459-0.84-1.859-2.02-2.02
			c0.29,1.26,2.53,3.16,1.01,4.55c0-0.51,0-1.01,0-1.521c-1.7,0.461-0.06,1.131-1.01,2.021c-1.72-0.3-3.39-2.489-4.55-0.51
			c-0.57-0.101-0.28-0.511,0-0.511c-0.1-0.409-0.51-0.5-0.51-1.01c1.85-0.17,2.81,0.561,4.05,1.01c0.49-0.479-0.08-1.209,0-2.02
			c0.07-0.72,1.01-1.88,1.01-2.529c0.01-1.11-1.63-1.661-0.51-2.531C67.52,67.38,65.96,67.09,64.91,66.28z"/>
		<path fill="#CECECE" d="M52.77,63.75c0.96-0.22,1.27-1.09,2.53-1.01c-0.37,0.47-0.92,0.77-1.52,1.01c-0.37,1.38,1,1.02,1.01,2.02
			c-2-0.09,0.16,0.78-1.01,1.52c-0.74-0.28-2.61,0.59-2.53-0.5c0.67,0,1.35,0,2.02,0c0.17-1.01-0.1-1.58-1.01-1.52
			C52.53,64.86,52.79,64.45,52.77,63.75z"/>
		<path fill="#CECECE" d="M64.91,28.85c0.45-1.07,1.54-1.5,1.52-3.04c-0.58-0.15-1.78-0.67,0-1.52c-0.28-1.14-0.79,0.61-1.52-0.5
			c0.06-0.62,0.15-1.2,1.01-1.01c-0.72-1.37-2.95-0.57-3.54-3.03c0.89,0.46,1.57,1.13,2.02,2.02c1.03-1.02,0.99,0.22,2.02,0.51
			c0.02,1.66,0.85,2.52,0.51,4.55C66.04,27.28,66.1,28.68,64.91,28.85z"/>
		<path fill="#212121" d="M45.69,17.72c1.81,0.13,1.85-1.52,3.54-1.52c-0.24,1.59,1.27,1.43,2.02,2.02c3.26,1.13,6.07,1.75,9.61,0.5
			c0.22,0.62,0.65,1.04,1.52,1.01c0.59,2.47,2.82,1.66,3.54,3.03c-0.86-0.19-0.95,0.39-1.01,1.01c0.73,1.12,1.23-0.64,1.52,0.5
			c-1.78,0.84-0.58,1.37,0,1.52c0.02,1.54-1.07,1.97-1.52,3.04c-0.17,0-0.34,0-0.51,0s-0.34,0-0.51,0c-1.17,0.34-0.74,2.3-2.02,2.53
			c-3.29-0.08-4.53-2.21-7.59-2.53c0.65-2-1.47-1.22-1.52-2.53c-2.87-0.39-3.92-0.06-6.07-0.51c-0.77,1.25-1.04,3.01-2.53,3.54
			c0.69,6.09-3.8,7-3.54,12.65c-0.66,0.52-1.86,0.5-2.53,1.01c-0.43-2.7-1.81-1.31-4.05-2.02c-1.3,0.94-2.11,4.06-2.53,5.56
			c0.08-0.28-0.16-0.62-0.51-0.51c0.43-1.61-0.8-1.56-1.01-2.53c0-3.04,0-6.07,0-9.1c0.15-1.18,1.27-2.37-1.01-2.02
			c0-0.17,0-0.34,0-0.5c0.62-1.59,3.08-3.98,2.53-5.06c-0.44-2.46,1.45-2.6,1.01-5.06c1.63-0.45,0.71,1.65,1.52,2.02
			c0.88-1.48,3.56-1.16,4.05-3.04C41.36,20.47,42.14,17.71,45.69,17.72z M59.35,23.28c0.51,0,1.01,0,1.52,0
			c0.08-1.26-0.26-2.1-1.01-2.53C60.27,22.18,59.14,22.06,59.35,23.28z"/>
		<path fill="#212121" d="M49.23,62.23c0-0.17,0-0.34,0-0.5c-1.08-1.13-4.78-2.28-4.05-3.54c3.18,1.82,8.7,3.05,11.64,3.54
			c0.14-0.46,1.88-1.7,2.02-0.51c-1.29,0.06-1.77,0.93-2.53,1.52c-0.34,0-0.67,0-1.01,0c-1.26-0.08-1.57,0.79-2.53,1.01
			C51.5,63.33,50.78,62.36,49.23,62.23z"/>
		<path fill="#212121" d="M35.57,52.62c-0.59-1.94-2.23-2.83-3.04-4.55c1.82,0.71,2.15,2.91,4.05,3.54c0.17,0,0.34,0,0.51,0
			c0.34,1.26,1.54-0.75,2.02-1.01c0.52,2.2-1.05,2.33-1.52,3.54c1.38,1.54,2.65,8.55,0.51,10.12c-0.05-0.57,0.74-0.79,0-1.01
			C38.89,59.83,37.09,55.35,35.57,52.62z"/>
		<path fill="#212121" d="M36.08,43.01c-0.07,1.11-1.27,1.09-2.53,1.01c0,0.34,0,0.67,0,1.01C32.15,44.14,34.74,41.28,36.08,43.01z"
			/>
		<path fill="#212121" d="M76.04,40.48c1.67,1.61,1.02-1.95,3.04-1.52c-1.01,1.18-1.51,2.87-4.05,2.53c0-0.51,0.41-0.6,0.51-1.01
			C75.7,40.48,75.87,40.48,76.04,40.48z"/>
		<path fill="#212121" d="M91.72,47.56c1.2,3.81-2.64-2.4-5.06-4.55c-0.65-0.58-4.23-2.18-2.53-2.53
			C87.22,42.28,89.75,44.64,91.72,47.56z"/>
		<path fill="#212121" d="M82.11,51.1c0.44-0.41,4.29,0.07,5.56,0.51C86.76,53.28,83.56,51.85,82.11,51.1z"/>
		<path fill="#212121" d="M57.83,48.07c-0.44,1.14-2.63,1.86-3.54,1.01C55.5,48.72,55.78,48.47,57.83,48.07z"/>
		<path fill="#CECECE" d="M51.25,74.37c0.07-1.13,1.27,0.659,2.53,0c-0.39,0.45-0.54,1.14-0.51,2.021c0.67,0,1.35,0,2.02,0
			c-3.16-1.771,1.31-0.311,1.52,0c-0.03-1.44,1.14-0.631,1.52-2.021c1.37,0.31,4.01-0.64,4.55,0.51c-0.47,0.33-2.42,0.08-2.53,2.021
			c-2.05,0.17-7.56,0.189-12.14,0.51c-0.14-0.9,0.48-1.04,0.51-0.51c0.68-0.5,1.01-1.351,1.52-2.021c-0.41,0.351-1.39,0.79-1.52,0
			c-0.75,0.431-1.09,1.271-1.01,2.53c-4.57,0.83-9.54,1.25-12.65,3.54c-1.52,0-3.04,0-4.55,0c-2.35,0.56-4.28,2.94-6.58,2.021
			c0.85-2.701,3.86-3.221,7.08-3.541c5.03-2.9,13.17-5.38,19.73-5.06c-0.19,0.86,0.4,0.96,1.01,1.01
			c-0.37,0.47-0.92,0.771-1.52,1.011c0.15,0.92,2.13-0.511,2.53-1.011C52.4,74.91,51.85,74.62,51.25,74.37z"/>
		<path fill="#CECECE" d="M69.46,76.9c0.08,2.449-2.07,1.08-3.04,0.51c-1.54-0.32-4.36,0.65-5.06-0.51
			c3.02,0.02,4.77-0.801,6.58,1.01c0.45-0.221,0.9-0.439,1.01-1.01C69.13,76.9,69.29,76.9,69.46,76.9z"/>
		<path fill="#212121" d="M69.46,76.4c1.52-1.391-0.72-3.291-1.01-4.551c1.19,0.16,1.13,1.57,2.02,2.021c0.85-1.57-1.26-4.5,0-5.56
			c0.67,0.51,1.88,0.48,2.02,1.52c0.89,2.15-1.2,5.17,1.01,6.58c1.85-0.85,1.68-3.71,2.53-5.561c0.17,0,0.34,0,0.51,0
			c1.16,1.43,1.72,2.34,1.01,4.551c-1.67-1.36-1.76,0.64-2.02,1.01c-0.11-0.391-0.42-0.59-1.01-0.51c-2.59,1.97-5.11,3.99-8.09,5.56
			c0.49-1.229-2.27-1.67-2.02-1.01c-0.17,0-0.34,0-0.51,0c-1.36-1.171-4.88-0.181-7.08-0.511c-0.17,0-0.34,0-0.51,0
			c-3.36,0.181-7.53-0.449-10.12,0.511c-0.17,0-0.34,0-0.51,0c-0.8,0.04-1.93-0.24-2.02,0.51c-0.17,0-0.34,0-0.51,0
			c-4.83,0.069-6.48,3.31-11.63,3.04c0.54,1.15,3.18,0.189,4.55,0.51c0.34,0,0.67,0,1.01,0c3.53,0.33,5.87-0.529,8.09-1.52
			c0.34,0,0.68,0,1.01,0c5.01-0.61,13.47-0.471,18.72-0.51c0.88,1.029-0.38,0.99,0.51,2.02c5.94,0.71,9.61-0.85,11.63-4.05
			c0.54,0.47,0.16,1.87,1.52,1.521c-0.53-2.561,1.15-2.891,1.01-5.061c0-0.34,0-0.67,0-1.01c0.17,0,0.34,0,0.51,0
			c0.29-0.891-0.61-2.971,0.51-3.041c1.25-0.069,2.45-0.09,2.53,1.011c-0.72,4.021-0.88,6.22-0.51,10.62c6.07,0,12.14,0,18.21,0
			c-0.01-4.37-0.93-11.93-1.52-18.72c-1.32-0.39-0.68-2.19-1.01-3.04c-0.6-1.51-1.91-3.14-2.53-4.55c-0.18-0.42,0.13-1.07,0-1.52
			c-0.53-1.74-2.83-3.89-2.53-6.07c0.34,0,0.67,0,1.01,0c0.25,2.28,0.97,4.08,2.02,5.56c0.15,2.21,1.27,3.45,2.02,5.06
			c2.82,6.45,3.97,14.58,4.55,23.271c2.53,0,5.06,0,7.59,0c0.85,0.84,0.4,2.97,0.51,4.549c0.33,2.201-0.66,5.721,0.51,7.08
			c0,0.5,0,1.011,0,1.521c0.33,2.87-0.67,7.07,0.51,9.11c-0.16,1.859,0.43,4.48-0.51,5.56c-5.62-0.521-10.9,0.08-16.19,0
			c-0.55-0.84-4.51-0.84-5.06,0c-0.17,0-0.34,0-0.51,0c-5.9-0.84-15.34-0.84-21.25,0c-3.82,0.091-5.65-0.54-8.6,0
			c-2.16-1.13-3.53,2.87-5.06,4.05c-0.17,0-0.34,0-0.51,0c-1.5,1.36-3.81,1.92-5.06,3.541c-3.22-0.011-3.48,2.93-7.08,2.529
			c-2.18-2.54-4.47-5.15-6.07-7.59c-0.51-0.77-0.54-2.641-2.02-2.53c-4.05,0-8.09,0-12.14,0c-1.16-6.76-0.18-15.67-0.51-23.271
			c-0.17-6.079,3.01-8.789,4.05-13.659c2.79-1.08,4.78-2.979,7.08-4.55c1.56-1.14,2.91-2.49,4.05-4.05c0-0.17,0-0.34,0-0.51
			c0.65-0.03,0.7-0.65,1.52-0.51c-0.22,0.96-1.09,1.27-1.01,2.53c4.06-0.99,9.48-0.63,13.66-1.52c0.17,0,0.34,0,0.51,0
			c-0.09,1.1,1.79,0.23,2.53,0.5c1.17-0.74-0.99-1.6,1.01-1.52c0.41,0.27,0.82,0.53,1.52,0.51c0.27,0.78,0.53,0.03,0.51-0.51
			c0.96,0.22,1.27,1.09,2.53,1.01c2.18-0.49,4.32-0.24,5.56-0.51c1.05,0.81,2.61,1.1,3.04,2.53c-1.12,0.87,0.52,1.42,0.51,2.53
			c-0.01,0.64-0.94,1.81-1.01,2.53c-0.08,0.82,0.49,1.54,0,2.02c-1.24-0.449-2.19-1.18-4.05-1.01c-0.17,0-0.34,0-0.51,0
			c-0.54-1.15-3.18-0.189-4.55-0.51c-1.13-1.07-2.44,0.529-4.55,0c-1.25,0.66-2.46-1.13-2.53,0c-0.17,0-0.34,0-0.51,0
			c-6.56-0.32-14.7,2.16-19.73,5.061c-3.23,0.319-6.24,0.85-7.08,3.539c2.3,0.92,4.22-1.47,6.58-2.02c1.52,0,3.03,0,4.55,0
			c3.1-2.29,8.08-2.71,12.65-3.54c0.17,0,0.34,0,0.51,0c4.58-0.32,10.09-0.341,12.14-0.511c0.34,0,0.67,0,1.01,0
			c0.7,1.15,3.52,0.19,5.06,0.511c0.97,0.569,3.11,1.95,3.04-0.511C69.46,76.73,69.46,76.561,69.46,76.4z M65.42,69.82
			c0.08-1.26-0.79-1.57-1.01-2.53c-2.23,0.76-3.48-0.52-5.06,0.51C62.4,68.54,63.38,68.21,65.42,69.82z M61.88,69.82
			c-2.83-1.1-8.26-1.55-11.63-0.5c-1.58,0.1-3.71-0.34-4.55,0.5c-0.14-0.11-4.72-0.36-5.56,0.51c-0.17,0-0.34,0-0.51,0
			c-1.88,0.99-3.94,1.79-5.56,3.04c-1.55-0.37-1.49,0.87-3.04,0.51c-1.17,1.7-4.49,1.24-5.06,3.54c2.52,0.311,2.85-1.87,5.06-0.51
			c4.8-2.561,11.19-4.62,17.71-5.061c0.71-0.05,1.11,0.521,1.52,0.51c3.53-0.109,7.39-0.85,11.13-0.51
			c1.47,0.131,2.85,0.971,4.55,1.01c0.24-1.59-0.63-2.069-1.52-2.529C63.82,69.9,63.05,69.66,61.88,69.82z M38.1,114.33
			c-0.17,0.561,0.37,0.779,0.51,1.01c0.65,1.09,0.58,1.87,2.53,3.04c0.17,1.181,0.61,2.091,1.01,3.04c2.38,0.53,2.54-1.17,3.54-2.02
			c1.49,0.459,3.05-3.34,6.07-3.041c0.19-2.119,1.97-1.5,2.02-1.52c0.1-0.029,0.35-0.93,0.51-1.01c0.66-0.359,2.21-0.12,2.02-1.52
			c-6.58,0-13.15,0-19.73,0C36.14,114.71,37.82,113.71,38.1,114.33z"/>
		<path fill="#CECECE" d="M43.16,80.95c0.27,0.409,0.53,0.819,0.51,1.521c-1.03,0.879-0.99-0.381-2.02,0.51
			c0.96,1.58,2.2-0.791,3.54-0.51c0.09-1.101-0.41-1.611-1.52-1.521c0.09-0.75,1.22-0.46,2.02-0.511
			c-0.95,0.891,0.6,1.48-0.51,2.531c-2.22,0.979-4.56,1.85-8.09,1.52c1.1-0.58,1.84-1.53,3.03-2.02c-0.62-0.58-3.43,0.93-4.05,2.02
			c-1.37-0.311-4.01,0.64-4.55-0.51C36.68,84.25,38.33,81.01,43.16,80.95z"/>
		<path fill="#CECECE" d="M59.35,67.8c1.57-1.02,2.83,0.25,5.06-0.51c0.22,0.96,1.09,1.27,1.01,2.53
			C63.38,68.21,62.4,68.54,59.35,67.8z"/>
		<path fill="#CECECE" d="M64.4,70.33c0.89,0.46,1.76,0.939,1.52,2.529c-1.7-0.039-3.08-0.879-4.55-1.01
			c-3.74-0.35-7.6,0.4-11.13,0.51c-0.41,0.011-0.81-0.549-1.52-0.51c-6.51,0.44-12.91,2.49-17.71,5.061
			c-2.21-1.37-2.54,0.811-5.06,0.51c0.57-2.3,3.89-1.84,5.06-3.54c1.55,0.37,1.49-0.87,3.04-0.51c1.62-1.24,3.69-2.04,5.56-3.04
			c-0.47,1.55-2.8,1.24-3.54,2.529c2.16,0.961,2.76-0.02,5.56,0c0.27-2.569-1.79-0.01-1.52-2.02c1.59-0.24,1.34,1.36,2.53,1.52
			c-0.58-1.59,0.79-1.229,1.01-2.02c-1.18,0-2.36,0-3.54,0c0.84-0.87,5.42-0.61,5.56-0.51c-0.94,0.08-0.31,1.71-1.01,2.02
			c1.4-0.09,2.51-0.34,3.54-0.51c1.45-0.23,2.01-0.01,2.53-0.51c-0.1,0.1,0.88-0.52,0.51-0.51c0.92-0.03-0.29,0.911,0,1.01
			c1.9,0.67,5.13-0.48,8.6,0c0.27-4.24-8.32-0.86-9.61-2.02c3.37-1.04,8.8-0.59,11.63,0.5c-0.21,1.06,0.35,1.34,0.51,2.02
			c0.84,0,1.69,0,2.53,0c0.08-0.59-0.11-0.9-0.51-1.01C64.4,70.66,64.4,70.5,64.4,70.33z"/>
		<path fill="#CECECE" d="M36.58,112.311c6.58,0,13.15,0,19.73,0c0.19,1.399-1.36,1.16-2.02,1.52c-0.15,0.08-0.4,0.98-0.51,1.01
			c-0.06,0.02-1.84-0.6-2.02,1.52c-3.02-0.31-4.58,3.49-6.07,3.041c-1,0.859-1.16,2.55-3.54,2.02c-0.4-0.939-0.85-1.85-1.01-3.04
			c-1.95-1.159-1.88-1.95-2.53-3.04c-0.14-0.23-0.68-0.449-0.51-1.01C37.82,113.71,36.14,114.71,36.58,112.311z"/>
		<path fill="#212121" d="M57.83,52.62c0.67,0,1.35,0,2.02,0c-0.81,0.87-1,2.38-2.02,3.04c-4.06,0.35-4.12-3.3-7.59-3.54
			c0.81-1.42,2.28,0.71,4.05,0C55.48,52.28,56.19,52.91,57.83,52.62z"/>
	</g>
</g>
<polygon fill="#FF3836" points="112.82,113 19,113 19,84 111.78,84 "/>
<g>
	<path fill="#FFFFFF" d="M28.42,104.67h1.51c0.83,0,1.03-0.21,1.03-1.08v-8.73c0-0.699-0.04-0.75-0.19-0.889
		c-0.14-0.121-0.39-0.171-0.79-0.171h-1.55v-1.55h7.88v1.55h-1.45c-0.35,0-0.52,0.04-0.68,0.171c-0.08,0.059-0.12,0.159-0.15,0.289
		v0.62v3.46h6.75v-3.46v-0.62c-0.04-0.119-0.08-0.21-0.15-0.289C40.51,93.85,40.3,93.8,39.95,93.8H38.5v-1.55h7.86v1.55h-1.53
		c-0.41,0-0.66,0.04-0.81,0.171c-0.15,0.119-0.19,0.189-0.19,0.889v8.73c0,0.91,0.15,1.08,1.03,1.08h1.53v1.53h-7.84v-1.53h1.35
		c0.39,0,0.54-0.04,0.7-0.17c0.17-0.141,0.17-0.21,0.17-0.91v-3.73h-6.75v3.73v0.6c0.04,0.131,0.08,0.23,0.15,0.311
		c0.1,0.12,0.33,0.17,0.62,0.17h1.45v1.53h-7.82V104.67L28.42,104.67z"/>
	<path fill="#FFFFFF" d="M50.19,99.16c0,0.68-0.58,1.199-1.35,1.199c-0.81,0-1.43-0.6-1.43-1.389c0-1.551,1.99-2.591,4.9-2.591
		c2.86,0,4.28,1.04,4.28,3.17v3.89c0,0.73,0,0.951,0.06,1.141c0.08,0.23,0.29,0.37,0.5,0.37c0.19,0,0.31-0.101,0.41-0.37
		c0.12-0.41,0.15-0.75,0.15-1.95h1.18v0.54c0,2.46-0.64,3.311-2.46,3.311c-0.74,0-1.28-0.17-1.7-0.521
		c-0.27-0.229-0.45-0.479-0.68-1.08c-0.48,0.62-0.74,0.81-1.39,1.101c-0.79,0.35-1.72,0.539-2.52,0.539c-1.86,0-3.1-1.039-3.1-2.609
		c0-1.45,0.81-2.23,2.71-2.59l1.64-0.311c1.97-0.41,2.5-0.75,2.5-1.779c0-1.08-0.91-1.721-2.5-1.721c-0.19,0-0.41,0-0.62,0.04
		c-0.66,0.101-0.85,0.14-1.39,0.45C49.98,98.359,50.19,98.65,50.19,99.16z M53.83,101.38c-0.68,0.33-0.79,0.37-1.7,0.601
		c-1.78,0.459-2.3,0.83-2.3,1.64c0,0.87,0.6,1.43,1.59,1.43c0.68,0,1.43-0.37,1.9-0.89c0.39-0.46,0.52-0.99,0.52-1.86v-0.92H53.83z"
		/>
	<path fill="#FFFFFF" d="M59.32,104.811h1.04c0.74,0,0.95-0.211,0.95-0.971v-4.88c0-0.83-0.14-0.97-0.91-0.97h-1.03v-1.37h4.6v1.3
		c0.29-0.311,0.52-0.54,0.7-0.68c0.72-0.58,1.78-0.93,2.77-0.93c0.52,0,1.03,0.08,1.47,0.27c0.83,0.29,1.16,0.6,1.72,1.529
		c0.27-0.33,0.52-0.58,0.74-0.77c0.73-0.699,1.78-1.1,2.81-1.1c1.14,0,2.32,0.52,2.88,1.24c0.43,0.58,0.62,1.43,0.62,2.609v3.75
		c0,0.75,0.16,0.971,0.7,0.971h1.04v1.39H73.5v-1.39h0.83c0.52,0,0.64-0.15,0.64-0.99v-3.66c0-1.49-0.58-2.23-1.74-2.23
		c-1.33,0-2.38,1.12-2.38,2.551v3.35c0,0.83,0.06,0.97,0.54,0.97h0.87v1.39h-5.57v-1.39h0.83c0.5,0,0.6-0.149,0.6-0.97v-3.68
		c0-1.43-0.62-2.211-1.76-2.211c-1.33,0-2.32,1.221-2.32,2.811v3.08v0.48c0.04,0.16,0.06,0.289,0.1,0.31l0.23,0.101l0.19,0.079h0.89
		v1.39h-6.13V104.811z"/>
	<path fill="#FFFFFF" d="M79.81,104.811h0.83c0.52,0,0.68-0.041,0.83-0.17c0.17-0.16,0.21-0.271,0.21-0.791V94.62
		c0-0.83-0.12-0.97-0.95-0.97H79.8V92.26h4.6v11.59c0,0.541,0.02,0.621,0.15,0.791c0.14,0.119,0.27,0.17,0.7,0.17h0.91v1.39h-6.37
		v-1.39H79.81z"/>
	<path fill="#FFFFFF" d="M88.66,103.391c0.89,0,1.62,0.719,1.62,1.569c0,0.81-0.74,1.49-1.62,1.49c-0.91,0-1.61-0.66-1.63-1.47
		C87.03,104.109,87.75,103.391,88.66,103.391z"/>
</g>
<g>
	<path d="M60.64,119.221v-2.461c0-0.33,0.21-0.529,0.6-0.529h0.58v0.33h-0.09c-0.35,0-0.43,0.09-0.43,0.43v2.16
		c0,0.31-0.22,0.57-0.53,0.6c0.31,0.029,0.53,0.29,0.53,0.6v2.16c0,0.34,0.08,0.43,0.43,0.43h0.09v0.33h-0.58
		c-0.4,0-0.6-0.189-0.6-0.529v-2.461c0-0.309-0.2-0.52-0.47-0.539C60.44,119.74,60.64,119.529,60.64,119.221z"/>
	<path d="M62.48,121.95h0.41c0.16,0,0.2-0.011,0.28-0.07c0.08-0.069,0.1-0.13,0.1-0.31l0.01-0.28v-1.67c0-0.2-0.01-0.25-0.07-0.31
		c-0.04-0.051-0.11-0.061-0.3-0.061h-0.4v-0.48h1.68v0.49c0.28-0.3,0.4-0.39,0.69-0.51c0.2-0.08,0.42-0.12,0.63-0.12
		c0.2,0,0.39,0.03,0.57,0.101c0.3,0.119,0.43,0.24,0.63,0.6c0.1-0.109,0.19-0.21,0.28-0.29c0.3-0.28,0.69-0.45,1.08-0.45
		c0.44,0,0.89,0.2,1.1,0.48c0.16,0.22,0.25,0.57,0.25,1v1.49c0,0.299,0.06,0.379,0.28,0.379h0.41v0.49h-2.2v-0.49h0.36
		c0.2,0,0.24-0.039,0.24-0.379v-1.471c0-0.33-0.04-0.48-0.14-0.619c-0.13-0.181-0.34-0.291-0.57-0.291
		c-0.57,0-0.99,0.461-0.99,1.061v1.32c0,0.33,0.03,0.379,0.22,0.379h0.37v0.49h-2.1v-0.49h0.36c0.19,0,0.22-0.06,0.22-0.379v-1.44
		c0-0.341-0.03-0.47-0.14-0.64c-0.13-0.19-0.34-0.291-0.57-0.291c-0.25,0-0.51,0.131-0.71,0.371c-0.19,0.219-0.26,0.42-0.26,0.789
		v1.211c0,0.33,0.03,0.379,0.22,0.379h0.36v0.49H62.5v-0.479H62.48z"/>
	<path d="M71.54,119.73c0,0.25-0.22,0.449-0.5,0.449c-0.3,0-0.53-0.22-0.53-0.529c0-0.57,0.76-0.98,1.84-0.98
		c1.06,0,1.58,0.42,1.58,1.25v1.48c0,0.31,0.01,0.399,0.03,0.47c0.02,0.08,0.1,0.159,0.19,0.159c0.09,0,0.13-0.049,0.16-0.159
		c0.01-0.05,0.03-0.11,0.04-0.181c0.01-0.129,0.02-0.16,0.03-0.629h0.43v0.209c0,0.961-0.23,1.28-0.88,1.28
		c-0.27,0-0.49-0.069-0.64-0.22c-0.1-0.1-0.14-0.189-0.22-0.41c-0.17,0.221-0.25,0.29-0.5,0.41c-0.32,0.15-0.68,0.24-1,0.24
		c-0.71,0-1.2-0.41-1.2-1.021c0-0.55,0.31-0.819,1.09-0.97l0.63-0.12c0.75-0.16,0.95-0.29,0.95-0.69c0-0.43-0.38-0.689-1.01-0.689
		c-0.08,0-0.17,0.01-0.26,0.01c-0.27,0.04-0.34,0.07-0.57,0.189C71.45,119.43,71.54,119.54,71.54,119.73z M73.02,120.58
		c-0.28,0.109-0.34,0.13-0.72,0.23c-0.76,0.189-0.96,0.33-0.96,0.68c0,0.359,0.25,0.57,0.66,0.57c0.27,0,0.58-0.131,0.77-0.33
		c0.18-0.19,0.25-0.41,0.25-0.78V120.58z"/>
	<path d="M74.95,118.77h1.67v0.57c0.07-0.1,0.13-0.189,0.19-0.26c0.24-0.29,0.53-0.43,0.84-0.43c0.45,0,0.8,0.3,0.8,0.699
		c0,0.32-0.21,0.551-0.51,0.551c-0.28,0-0.48-0.2-0.48-0.461c0-0.16,0.04-0.25,0.19-0.39h-0.1c-0.54,0-0.93,0.591-0.93,1.4v1.12
		c0,0.209,0.01,0.25,0.07,0.31c0.07,0.05,0.14,0.07,0.37,0.07h0.4v0.489h-2.5v-0.489h0.38c0.3,0,0.35-0.06,0.35-0.341v-0.029
		l-0.01-0.26v-1.68c0-0.211,0-0.25-0.05-0.301c-0.06-0.061-0.08-0.07-0.33-0.07h-0.36v-0.5H74.95z"/>
	<path d="M78.35,117.07h1.67v3.51l1.21-0.939c0.13-0.101,0.2-0.17,0.22-0.19c0.02-0.011,0.02-0.03,0.02-0.06
		c0-0.07-0.05-0.121-0.13-0.121h-0.07h-0.34v-0.5h2.2v0.5h-0.4c-0.13,0-0.18,0.01-0.28,0.07c-0.11,0.051-0.19,0.11-0.43,0.301
		l-0.57,0.459l1.2,1.471c0.25,0.32,0.33,0.38,0.45,0.38h0.42v0.489h-2.29v-0.489h0.08c0.16,0,0.24,0,0.25-0.011
		c0.03-0.01,0.07-0.069,0.07-0.109c0-0.061-0.04-0.1-0.16-0.26l-0.74-0.9L80,121.221v0.359c0,0.33,0.04,0.37,0.31,0.37h0.36v0.489
		h-2.32v-0.489h0.37c0.31,0,0.37-0.04,0.37-0.341v-0.039l-0.01-0.291v-3.34v-0.189c-0.01-0.04-0.02-0.08-0.05-0.109
		c-0.05-0.061-0.12-0.08-0.28-0.08h-0.41v-0.49H78.35z"/>
	<path d="M83.45,118.77h1.57v2.301c0,0.39,0.04,0.539,0.17,0.699c0.13,0.141,0.33,0.221,0.55,0.221c0.15,0,0.31-0.04,0.45-0.11
		c0.13-0.06,0.24-0.149,0.33-0.26c0.2-0.24,0.26-0.45,0.26-0.841v-1.129c0-0.221-0.01-0.25-0.05-0.301
		c-0.04-0.05-0.11-0.07-0.28-0.07h-0.4v-0.5h1.65v2.811c0,0.34,0.03,0.37,0.28,0.37h0.35v0.49h-1.54v-0.55
		c-0.16,0.189-0.23,0.27-0.4,0.369c-0.28,0.19-0.6,0.28-0.95,0.28c-0.24,0-0.45-0.04-0.65-0.12c-0.49-0.189-0.71-0.6-0.71-1.32
		v-1.469v-0.19c0-0.04-0.01-0.08-0.02-0.13c-0.02-0.041-0.07-0.061-0.14-0.061h-0.48v-0.49H83.45z"/>
	<path d="M88.48,123.561h0.36c0.18,0,0.22-0.011,0.28-0.061c0.06-0.061,0.07-0.1,0.07-0.311v-3.549c0-0.201-0.01-0.25-0.06-0.311
		c-0.04-0.061-0.09-0.07-0.29-0.07h-0.35v-0.49h1.61v0.5c0.1-0.109,0.19-0.199,0.25-0.25c0.26-0.229,0.68-0.369,1.07-0.369
		c1.03,0,1.72,0.779,1.72,1.93s-0.73,1.939-1.78,1.939c-0.2,0-0.39-0.039-0.57-0.08c-0.23-0.08-0.39-0.16-0.68-0.399v1.16
		c0,0.21,0.01,0.25,0.08,0.31c0.07,0.04,0.14,0.061,0.39,0.061h0.34v0.529h-2.44V123.561z M90.06,120.67
		c0,0.859,0.39,1.359,1.04,1.359c0.66,0,1.09-0.569,1.09-1.439c0-0.869-0.42-1.439-1.06-1.439
		C90.46,119.15,90.06,119.71,90.06,120.67z"/>
	<path d="M95.59,121.95h0.4c0.28,0,0.33-0.04,0.33-0.38l0.01-0.32v-3.311c0-0.109,0-0.17-0.01-0.189c0-0.04-0.02-0.08-0.04-0.109
		c-0.05-0.061-0.1-0.08-0.27-0.08H95.6v-0.49h1.65v2.209c0.1-0.1,0.19-0.18,0.25-0.219c0.31-0.261,0.71-0.4,1.1-0.4
		c0.42,0,0.83,0.17,1.08,0.43c0.19,0.221,0.29,0.51,0.29,0.939v1.531c0,0.33,0.02,0.39,0.15,0.39h0.47v0.489h-2.17v-0.489h0.4
		c0.11,0,0.16-0.011,0.19-0.07c0.02-0.03,0.03-0.069,0.03-0.12v-0.189v-1.45c0-0.351-0.03-0.49-0.15-0.649
		c-0.12-0.16-0.35-0.261-0.59-0.261c-0.6,0-1.05,0.49-1.05,1.149v1.211c0,0.35,0.02,0.38,0.19,0.38h0.4v0.489h-2.25V121.95
		L95.59,121.95z"/>
	<path d="M102.02,119.73c0,0.25-0.22,0.449-0.5,0.449c-0.3,0-0.53-0.22-0.53-0.529c0-0.57,0.76-0.98,1.84-0.98
		c1.06,0,1.58,0.42,1.58,1.25v1.48c0,0.31,0.01,0.399,0.03,0.47c0.02,0.08,0.1,0.159,0.19,0.159c0.08,0,0.13-0.049,0.16-0.159
		c0.01-0.05,0.03-0.11,0.04-0.181c0.02-0.129,0.02-0.16,0.03-0.629h0.43v0.209c0,0.961-0.23,1.28-0.88,1.28
		c-0.27,0-0.49-0.069-0.64-0.22c-0.1-0.1-0.14-0.189-0.22-0.41c-0.17,0.221-0.25,0.29-0.5,0.41c-0.32,0.15-0.68,0.24-1.01,0.24
		c-0.71,0-1.2-0.41-1.2-1.021c0-0.55,0.31-0.819,1.09-0.97l0.63-0.12c0.75-0.16,0.95-0.29,0.95-0.69c0-0.43-0.38-0.689-1.01-0.689
		c-0.08,0-0.17,0.01-0.26,0.01c-0.27,0.04-0.33,0.07-0.57,0.189C101.93,119.43,102.02,119.54,102.02,119.73z M103.49,120.58
		c-0.28,0.109-0.34,0.13-0.72,0.23c-0.76,0.189-0.96,0.33-0.96,0.68c0,0.359,0.25,0.57,0.66,0.57c0.27,0,0.58-0.131,0.77-0.33
		c0.18-0.19,0.25-0.41,0.25-0.78V120.58z"/>
	<path d="M105.47,121.95h0.41c0.28,0,0.34-0.07,0.34-0.341v-0.039l-0.01-0.25v-1.68v-0.19c-0.01-0.04-0.03-0.091-0.05-0.12
		c-0.04-0.061-0.1-0.07-0.24-0.07h-0.41v-0.49h1.62v2.801c0,0.24,0.01,0.25,0.04,0.31c0.04,0.05,0.07,0.07,0.2,0.07h0.4v0.489h-2.31
		v-0.489H105.47z M106.57,116.96c0.35,0,0.64,0.25,0.64,0.569c0,0.32-0.28,0.591-0.61,0.591s-0.6-0.261-0.6-0.58
		C106.01,117.221,106.26,116.96,106.57,116.96z"/>
	<path d="M107.93,117.07h1.67v3.51l1.21-0.939c0.13-0.101,0.2-0.17,0.22-0.19c0.02-0.011,0.02-0.03,0.02-0.06
		c0-0.07-0.05-0.121-0.13-0.121h-0.07h-0.34v-0.5h2.2v0.5h-0.4c-0.13,0-0.18,0.01-0.28,0.07c-0.11,0.051-0.19,0.11-0.43,0.301
		l-0.57,0.459l1.2,1.471c0.25,0.32,0.33,0.38,0.45,0.38h0.42v0.489h-2.29v-0.489h0.08c0.16,0,0.24,0,0.25-0.011
		c0.03-0.01,0.07-0.069,0.07-0.109c0-0.061-0.04-0.1-0.16-0.26l-0.74-0.9l-0.71,0.561v0.359c0,0.33,0.04,0.37,0.31,0.37h0.36v0.49
		h-2.32v-0.49h0.37c0.31,0,0.37-0.04,0.37-0.34v-0.04l-0.01-0.29v-3.34v-0.19c-0.01-0.039-0.02-0.08-0.05-0.109
		c-0.05-0.061-0.12-0.08-0.28-0.08h-0.41v-0.5H107.93z"/>
	<path d="M113.03,118.77h1.57v2.301c0,0.39,0.04,0.539,0.17,0.699c0.13,0.141,0.33,0.221,0.55,0.221c0.15,0,0.31-0.04,0.45-0.11
		c0.13-0.06,0.24-0.149,0.33-0.26c0.2-0.24,0.26-0.45,0.26-0.841v-1.129c0-0.221-0.01-0.25-0.05-0.301
		c-0.04-0.05-0.11-0.07-0.28-0.07h-0.4v-0.5h1.65v2.811c0,0.34,0.03,0.37,0.28,0.37h0.35v0.49h-1.54v-0.55
		c-0.16,0.189-0.23,0.27-0.4,0.369c-0.28,0.19-0.6,0.28-0.95,0.28c-0.24,0-0.45-0.04-0.65-0.12c-0.49-0.189-0.71-0.6-0.71-1.32
		v-1.469v-0.19c0-0.04-0.01-0.08-0.02-0.13c-0.02-0.041-0.07-0.061-0.14-0.061h-0.48v-0.49H113.03z"/>
	<path d="M118.34,122.939h0.09c0.35,0,0.43-0.09,0.43-0.43v-2.16c0-0.3,0.22-0.57,0.53-0.6c-0.31-0.029-0.53-0.29-0.53-0.6V117
		c0-0.34-0.08-0.43-0.43-0.43h-0.09v-0.33h0.58c0.4,0,0.6,0.189,0.6,0.529v2.461c0,0.31,0.2,0.52,0.47,0.539
		c-0.27,0.021-0.47,0.221-0.47,0.541v2.459c0,0.33-0.21,0.53-0.6,0.53h-0.58V122.939z"/>
</g>
</svg>
