<?xml version="1.0" encoding="utf-8"?>
<!-- Generator: Adobe Illustrator 16.0.0, SVG Export Plug-In . SVG Version: 6.00 Build 0)  -->
<!DOCTYPE svg PUBLIC "-//W3C//DTD SVG 1.1//EN" "http://www.w3.org/Graphics/SVG/1.1/DTD/svg11.dtd">
<svg version="1.1" id="Layer_1" xmlns="http://www.w3.org/2000/svg" xmlns:xlink="http://www.w3.org/1999/xlink" x="0px" y="0px"
	 width="78.48px" height="110.781px" viewBox="30.76 14.61 78.48 110.781" enable-background="new 30.76 14.61 78.48 110.781"
	 xml:space="preserve">
<g>
	<polygon fill="#E44D26" points="37.9,116.49 30.76,36.38 109.24,36.38 102.09,116.48 69.95,125.391 	"/>
	<polygon fill="#F16529" points="70,118.58 95.97,111.38 102.08,42.93 70,42.93 	"/>
	<polygon fill="#EBEBEB" points="70,72.641 57,72.641 56.1,62.58 70,62.58 70,52.76 69.97,52.76 45.36,52.76 45.6,55.39 
		48.01,82.471 70,82.471 	"/>
	<polygon fill="#EBEBEB" points="70,98.16 69.96,98.17 59.02,95.221 58.32,87.38 53,87.38 48.45,87.38 49.83,102.811 69.96,108.391 
		70,108.38 	"/>
	<path d="M38.06,14.61h4.99v4.93h4.57v-4.93h4.99v14.94h-4.99v-5h-4.57v5h-4.99V14.61L38.06,14.61z"/>
	<path d="M59.18,19.57h-4.4v-4.95h13.79v4.95h-4.4v9.98h-4.99V19.57L59.18,19.57z"/>
	<path d="M70.76,14.61h5.21l3.2,5.25l3.2-5.25h5.21v14.94H82.6v-7.4l-3.44,5.31h-0.09l-3.44-5.31v7.4h-4.88V14.61H70.76z"/>
	<path d="M90.06,14.61h4.99v10h7.02v4.94H90.06V14.61z"/>
	<polygon fill="#FFFFFF" points="69.97,72.641 69.97,82.471 82.06,82.471 80.92,95.21 69.97,98.17 69.97,108.391 90.11,102.811 
		90.25,101.15 92.56,75.279 92.8,72.641 90.16,72.641 	"/>
	<polygon fill="#FFFFFF" points="69.97,52.76 69.97,58.86 69.97,62.56 69.97,62.58 93.67,62.58 93.67,62.58 93.7,62.58 93.89,60.37 
		94.34,55.39 94.58,52.76 	"/>
</g>
</svg>
