<?xml version="1.0" encoding="utf-8"?>
<!-- Generator: Adobe Illustrator 16.0.0, SVG Export Plug-In . SVG Version: 6.00 Build 0)  -->
<!DOCTYPE svg PUBLIC "-//W3C//DTD SVG 1.1//EN" "http://www.w3.org/Graphics/SVG/1.1/DTD/svg11.dtd">
<svg version="1.1" id="Layer_1" xmlns="http://www.w3.org/2000/svg" xmlns:xlink="http://www.w3.org/1999/xlink" x="0px" y="0px"
	 width="109.609px" height="139px" viewBox="0 0 109.609 139" enable-background="new 0 0 109.609 139" xml:space="preserve">
<g id="rails-color">
	<path fill="#800828" d="M0.586,14.489v123.65c0,0.287,0.025,0.575,0.038,0.861H95.12c7.964,0,14.489-6.512,14.489-14.488V0.863
		c0-0.287-0.025-0.575-0.037-0.863H15.062C7.099,0,0.586,6.513,0.586,14.489z"/>
	<path fill="#B42738" d="M3.074,16.451v119.11c0,0.276,0.025,0.551,0.037,0.826h90.171c8.263,0,13.826-5.638,13.826-13.952V3.325
		c0-0.275-0.024-0.55-0.037-0.825H16.901C7.487,2.5,3.074,7.551,3.074,16.451z"/>
	<g>
		<path fill="#FFFFFF" d="M19.063,78.669c-3.239-0.513-6.113-1.024-8.513-1.55c-0.837,2.812-1.638,5.714-2.301,8.738
			c2.312,0.389,5.35,0.725,8.875,1.05C17.714,84.059,18.363,81.32,19.063,78.669z"/>
		<path fill="#FFFFFF" d="M72.681,92.484c-0.775-1.749-1.513-3.501-2.188-5.239c-2.612-0.474-4.987-0.999-8.013-1.562
			c0.637,1.974,1.35,3.987,2.138,6.036C67.705,92.046,70.068,92.296,72.681,92.484z"/>
		<path fill="#FFFFFF" d="M39.927,28.815c-1.95-1.488-3.913-2.95-5.875-4.401c-1.413,1.75-2.775,3.588-4.075,5.526
			c2.099,1.351,4.225,2.738,6.338,4.138C37.477,32.241,38.678,30.478,39.927,28.815z"/>
		<path fill="#FFFFFF" d="M72.956,38.616c-0.988-1.588-1.988-3.187-3.026-4.788c-0.925,0.975-1.799,2.025-2.625,3.137
			c1.188,1.625,2.35,3.238,3.488,4.864C71.468,40.704,72.193,39.628,72.956,38.616z"/>
		<path fill="#FFFFFF" d="M97.995,17.801c0.063-0.625,0.125-1.25,0.188-1.875c-1.737-1.426-3.55-2.725-5.413-3.888
			c0.025,0.851,0.037,1.7,0.062,2.538C94.595,15.539,96.32,16.614,97.995,17.801z"/>
		<path fill="#FFFFFF" d="M57.667,14.301c-1.2-1.613-2.438-3.225-3.713-4.838c-1.85,0.887-3.626,1.913-5.35,3.063
			c1.487,1.6,2.95,3.2,4.375,4.812C54.479,16.214,56.042,15.201,57.667,14.301z"/>
		<path fill="#FFFFFF" d="M76.818,10.938c-0.425-1.338-0.837-2.688-1.263-4.038c-2.087-0.3-4.201-0.425-6.288-0.388
			c0.625,1.475,1.25,2.95,1.875,4.412C73.018,10.776,74.918,10.776,76.818,10.938z"/>
		<path fill="#FFFFFF" d="M26.576,51.105c-2.512-1.1-4.963-2.163-7.326-3.201c-0.913,2.35-1.688,4.738-2.513,7.301
			c2.363,0.938,4.863,1.888,7.476,2.851C24.988,55.667,25.75,53.33,26.576,51.105z"/>
		<path fill="#FFFFFF" d="M59.567,51.005c0.325-1.175,0.649-2.338,1-3.475c-0.387,1.1-0.775,2.212-1.125,3.362
			C59.479,50.93,59.529,50.967,59.567,51.005z"/>
		<path fill="#FFFFFF" d="M57.617,69.468c0.012,0,0.037,0.013,0.05,0.025c-0.101-1.725-0.138-3.475-0.101-5.225
			c-0.062-0.038-0.137-0.063-0.2-0.1C57.366,65.894,57.454,67.669,57.617,69.468z"/>
		<path fill="#FFFFFF" d="M77.681,27.64c0.575,1.413,1.138,2.812,1.688,4.213c1.038-0.651,2.1-1.213,3.226-1.701
			c-0.413-1.275-0.813-2.563-1.225-3.85C80.105,26.652,78.869,27.103,77.681,27.64z"/>
		<path fill="#FFFFFF" d="M45.278,26.853c-18.014,20.44-24.802,47.604-25.69,73.906c15.176,0,29.74,0,45.642,0
			c-4.163-10.15-6.213-20.614-7.563-31.277c-0.013-0.013-0.025-0.013-0.05-0.025c-0.175-1.801-0.263-3.563-0.251-5.301
			c0.063,0.037,0.138,0.062,0.2,0.1c0.101-4.476,0.838-8.976,2.001-13.251c-0.038-0.038-0.088-0.075-0.125-0.113
			c0.35-1.15,0.738-2.262,1.125-3.362c4.625-16.678,19.814-33.091,42.379-19.778c0.387-0.887,0.788-1.775,1.213-2.663
			C87.857,8.076,59.955,9.739,45.278,26.853z"/>
		<path fill="#FFFFFF" d="M59.917,69.656c2.438,1.038,4.601,2.087,6.95,3.125c-0.337-1.648-0.587-3.275-0.762-4.875
			c-2.138-1.163-4.138-2.325-6.301-3.475C59.754,66.181,59.804,67.931,59.917,69.656z"/>
		<path fill="#FFFFFF" d="M92.42,28.064c1.288-0.012,2.588,0.05,3.913,0.225c0.038-0.625,0.062-1.238,0.113-1.862
			c-1.401-0.375-2.801-0.663-4.189-0.838C92.308,26.415,92.357,27.24,92.42,28.064z"/>
		<path fill="#FFFFFF" d="M62.254,48.904c-0.349,1.139-0.687,2.301-1,3.476c1.638,1.451,3.188,2.901,4.787,4.351
			c0.3-1.438,0.7-2.85,1.138-4.225c-1.475-1.551-2.988-3.114-4.538-4.663C62.505,48.192,62.38,48.555,62.254,48.904z"/>
	</g>
	
		<linearGradient id="SVGID_1_" gradientUnits="userSpaceOnUse" x1="426.5439" y1="-307.2896" x2="427.563" y2="-220.3292" gradientTransform="matrix(1 0 0 -1 -371 -136.5)">
		<stop  offset="0" style="stop-color:#FFFFFF"/>
		<stop  offset="0.1729" style="stop-color:#D6A06C"/>
		<stop  offset="0.5374" style="stop-color:#9C1A2F"/>
		<stop  offset="1" style="stop-color:#151823"/>
	</linearGradient>
	<polygon opacity="0.53" fill="url(#SVGID_1_)" enable-background="new    " points="55.717,105.784 86.232,136.363 25.664,136.363 
			"/>
	
		<linearGradient id="SVGID_2_" gradientUnits="userSpaceOnUse" x1="380.5645" y1="-283.2007" x2="495.5462" y2="-75.3814" gradientTransform="matrix(1 0 0 -1 -371 -136.5)">
		<stop  offset="0" style="stop-color:#FFFFFF"/>
		<stop  offset="0.1729" style="stop-color:#D6A06C"/>
		<stop  offset="0.5374" style="stop-color:#9C1A2F"/>
		<stop  offset="1" style="stop-color:#151823"/>
	</linearGradient>
	<polygon opacity="0.42" fill="url(#SVGID_2_)" enable-background="new    " points="55.717,105.784 25.626,93.271 13.176,63.144 
		25.689,33.053 55.816,20.602 85.919,33.116 98.357,63.243 85.845,93.334 	"/>
	
		<linearGradient id="SVGID_3_" gradientUnits="userSpaceOnUse" x1="448.5723" y1="-184.6738" x2="500.6148" y2="-292.5443" gradientTransform="matrix(1 0 0 -1 -371 -136.5)">
		<stop  offset="0" style="stop-color:#FFFFFF"/>
		<stop  offset="0.1729" style="stop-color:#D6A06C"/>
		<stop  offset="0.5374" style="stop-color:#9C1A2F"/>
		<stop  offset="1" style="stop-color:#151823"/>
	</linearGradient>
	<polygon fill="url(#SVGID_3_)" points="85.845,93.334 98.357,63.243 107.122,85.795 	"/>
	
		<linearGradient id="SVGID_4_" gradientUnits="userSpaceOnUse" x1="463.1631" y1="-202.4941" x2="510.7234" y2="-193.393" gradientTransform="matrix(1 0 0 -1 -371 -136.5)">
		<stop  offset="0" style="stop-color:#FFFFFF"/>
		<stop  offset="0.1729" style="stop-color:#D6A06C"/>
		<stop  offset="0.5374" style="stop-color:#9C1A2F"/>
		<stop  offset="1" style="stop-color:#151823"/>
	</linearGradient>
	<polygon opacity="0.75" fill="url(#SVGID_4_)" enable-background="new    " points="98.357,63.243 107.072,40.479 107.122,85.795 	
		"/>
	
		<linearGradient id="SVGID_5_" gradientUnits="userSpaceOnUse" x1="469.9102" y1="-272.123" x2="406.4845" y2="-190.8074" gradientTransform="matrix(1 0 0 -1 -371 -136.5)">
		<stop  offset="0" style="stop-color:#FFFFFF"/>
		<stop  offset="0.1729" style="stop-color:#D6A06C"/>
		<stop  offset="0.5374" style="stop-color:#9C1A2F"/>
		<stop  offset="1" style="stop-color:#151823"/>
	</linearGradient>
	<polygon opacity="0.45" fill="url(#SVGID_5_)" enable-background="new    " points="55.717,105.784 86.232,136.363 85.845,93.334 	
		"/>
	
		<linearGradient id="SVGID_6_" gradientUnits="userSpaceOnUse" x1="509.1484" y1="-341.1279" x2="445.9424" y2="-198.5465" gradientTransform="matrix(1 0 0 -1 -371 -136.5)">
		<stop  offset="0" style="stop-color:#FFFFFF"/>
		<stop  offset="0.1729" style="stop-color:#D6A06C"/>
		<stop  offset="0.5374" style="stop-color:#9C1A2F"/>
		<stop  offset="1" style="stop-color:#151823"/>
	</linearGradient>
	<polygon opacity="0.55" fill="url(#SVGID_6_)" enable-background="new    " points="107.122,85.795 86.232,136.363 85.856,93.533 	
		"/>
	
		<linearGradient id="SVGID_7_" gradientUnits="userSpaceOnUse" x1="442.3096" y1="-162.8604" x2="502.2227" y2="-110.0695" gradientTransform="matrix(1 0 0 -1 -371 -136.5)">
		<stop  offset="0" style="stop-color:#FFFFFF"/>
		<stop  offset="0.1729" style="stop-color:#D6A06C"/>
		<stop  offset="0.5374" style="stop-color:#9C1A2F"/>
		<stop  offset="1" style="stop-color:#151823"/>
	</linearGradient>
	<polygon opacity="0.79" fill="url(#SVGID_7_)" enable-background="new    " points="55.717,20.602 86.232,2.575 85.845,33.053 	"/>
	
		<linearGradient id="SVGID_8_" gradientUnits="userSpaceOnUse" x1="458.6133" y1="-163.5894" x2="489.4748" y2="-144.5981" gradientTransform="matrix(1 0 0 -1 -371 -136.5)">
		<stop  offset="0" style="stop-color:#FFFFFF"/>
		<stop  offset="0.1729" style="stop-color:#D6A06C"/>
		<stop  offset="0.5374" style="stop-color:#9C1A2F"/>
		<stop  offset="1" style="stop-color:#151823"/>
	</linearGradient>
	<polygon opacity="0.62" fill="url(#SVGID_8_)" enable-background="new    " points="107.072,40.479 86.232,2.575 85.845,33.053 	
		"/>
	
		<linearGradient id="SVGID_9_" gradientUnits="userSpaceOnUse" x1="469.3574" y1="-199.7432" x2="469.3574" y2="-199.7432" gradientTransform="matrix(1 0 0 -1 -371 -136.5)">
		<stop  offset="0" style="stop-color:#FFFFFF"/>
		<stop  offset="1" style="stop-color:#9C1A2F"/>
	</linearGradient>
	<path fill="url(#SVGID_9_)" d="M98.357,63.243"/>
	
		<linearGradient id="SVGID_10_" gradientUnits="userSpaceOnUse" x1="443.3691" y1="-166.9199" x2="514.7375" y2="-140.6889" gradientTransform="matrix(1 0 0 -1 -371 -136.5)">
		<stop  offset="0" style="stop-color:#FFFFFF"/>
		<stop  offset="0.1729" style="stop-color:#D6A06C"/>
		<stop  offset="0.5374" style="stop-color:#9C1A2F"/>
		<stop  offset="1" style="stop-color:#151823"/>
	</linearGradient>
	<polygon fill="url(#SVGID_10_)" points="107.072,2.513 86.232,2.513 107.072,40.479 	"/>
	
		<linearGradient id="SVGID_11_" gradientUnits="userSpaceOnUse" x1="352.1846" y1="-272.3418" x2="374.8699" y2="-255.5488" gradientTransform="matrix(1 0 0 -1 -371 -136.5)">
		<stop  offset="0" style="stop-color:#FFFFFF"/>
		<stop  offset="0.1729" style="stop-color:#D6A06C"/>
		<stop  offset="0.5374" style="stop-color:#9C1A2F"/>
		<stop  offset="1" style="stop-color:#151823"/>
	</linearGradient>
	<polygon opacity="0.27" fill="url(#SVGID_11_)" enable-background="new    " points="3.124,136.388 25.664,136.363 3.1,86.171 	"/>
	
		<linearGradient id="SVGID_12_" gradientUnits="userSpaceOnUse" x1="452.3916" y1="-191.3784" x2="536.6002" y2="-137.7909" gradientTransform="matrix(1 0 0 -1 -371 -136.5)">
		<stop  offset="0" style="stop-color:#FFFFFF"/>
		<stop  offset="0.1729" style="stop-color:#D6A06C"/>
		<stop  offset="0.5374" style="stop-color:#9C1A2F"/>
		<stop  offset="1" style="stop-color:#151823"/>
	</linearGradient>
	<polygon fill="url(#SVGID_12_)" points="98.346,63.081 85.845,33.053 107.072,40.479 	"/>
	
		<linearGradient id="SVGID_13_" gradientUnits="userSpaceOnUse" x1="334.8896" y1="-259.1011" x2="410.0429" y2="-199.4966" gradientTransform="matrix(1 0 0 -1 -371 -136.5)">
		<stop  offset="0" style="stop-color:#FFFFFF"/>
		<stop  offset="0.1729" style="stop-color:#D6A06C"/>
		<stop  offset="0.5374" style="stop-color:#9C1A2F"/>
		<stop  offset="1" style="stop-color:#151823"/>
	</linearGradient>
	<polygon opacity="0.27" fill="url(#SVGID_13_)" enable-background="new    " points="26.014,93.334 13.513,63.243 3.1,86.171 	"/>
	
		<linearGradient id="SVGID_14_" gradientUnits="userSpaceOnUse" x1="333" y1="-197.7612" x2="401.0103" y2="-201.1774" gradientTransform="matrix(1 0 0 -1 -371 -136.5)">
		<stop  offset="0" style="stop-color:#FFFFFF"/>
		<stop  offset="0.1729" style="stop-color:#D6A06C"/>
		<stop  offset="0.5374" style="stop-color:#9C1A2F"/>
		<stop  offset="1" style="stop-color:#151823"/>
	</linearGradient>
	<polygon opacity="0.63" fill="url(#SVGID_14_)" enable-background="new    " points="13.513,63.243 3.287,40.491 3.1,86.171 	"/>
	
		<linearGradient id="SVGID_15_" gradientUnits="userSpaceOnUse" x1="395.2051" y1="-283.5518" x2="420.6736" y2="-210.8723" gradientTransform="matrix(1 0 0 -1 -371 -136.5)">
		<stop  offset="0" style="stop-color:#FFFFFF"/>
		<stop  offset="0.1729" style="stop-color:#D6A06C"/>
		<stop  offset="0.5374" style="stop-color:#9C1A2F"/>
		<stop  offset="1" style="stop-color:#151823"/>
	</linearGradient>
	<polygon opacity="0.35" fill="url(#SVGID_15_)" enable-background="new    " points="55.717,105.784 25.651,136.352 25.964,93.371 
			"/>
	
		<linearGradient id="SVGID_16_" gradientUnits="userSpaceOnUse" x1="361.0635" y1="-266.4541" x2="390.5668" y2="-243.783" gradientTransform="matrix(1 0 0 -1 -371 -136.5)">
		<stop  offset="0" style="stop-color:#FFFFFF"/>
		<stop  offset="0.1729" style="stop-color:#D6A06C"/>
		<stop  offset="0.5374" style="stop-color:#9C1A2F"/>
		<stop  offset="1" style="stop-color:#151823"/>
	</linearGradient>
	<polygon opacity="0.24" fill="url(#SVGID_16_)" enable-background="new    " points="3.1,86.171 25.664,136.363 25.864,93.322 	"/>
	
		<linearGradient id="SVGID_17_" gradientUnits="userSpaceOnUse" x1="436.5908" y1="-149.0312" x2="292.0834" y2="-168.2266" gradientTransform="matrix(1 0 0 -1 -371 -136.5)">
		<stop  offset="0" style="stop-color:#FFFFFF"/>
		<stop  offset="0.1729" style="stop-color:#D6A06C"/>
		<stop  offset="0.5374" style="stop-color:#9C1A2F"/>
		<stop  offset="1" style="stop-color:#151823"/>
	</linearGradient>
	<polygon opacity="0.47" fill="url(#SVGID_17_)" enable-background="new    " points="56.141,20.602 25.639,2.575 26.014,33.053 	
		"/>
	
		<linearGradient id="SVGID_18_" gradientUnits="userSpaceOnUse" x1="337.8184" y1="-158.0332" x2="357.4073" y2="-158.0332" gradientTransform="matrix(1 0 0 -1 -371 -136.5)">
		<stop  offset="0" style="stop-color:#FFFFFF"/>
		<stop  offset="0.1729" style="stop-color:#D6A06C"/>
		<stop  offset="0.5374" style="stop-color:#9C1A2F"/>
		<stop  offset="1" style="stop-color:#151823"/>
	</linearGradient>
	<polygon opacity="0.8" fill="url(#SVGID_18_)" enable-background="new    " points="3.287,40.491 25.639,2.575 26.014,33.053 	"/>
	
		<linearGradient id="SVGID_19_" gradientUnits="userSpaceOnUse" x1="438.2178" y1="-148.2598" x2="336.0135" y2="-217.8155" gradientTransform="matrix(1 0 0 -1 -371 -136.5)">
		<stop  offset="0" style="stop-color:#FFFFFF"/>
		<stop  offset="0.1729" style="stop-color:#D6A06C"/>
		<stop  offset="0.5374" style="stop-color:#9C1A2F"/>
		<stop  offset="1" style="stop-color:#151823"/>
	</linearGradient>
	<polygon opacity="0.63" fill="url(#SVGID_19_)" enable-background="new    " points="13.525,63.081 26.014,33.053 3.287,40.491 	
		"/>
	
		<linearGradient id="SVGID_20_" gradientUnits="userSpaceOnUse" x1="424.5215" y1="-156.7446" x2="432.9587" y2="-94.7501" gradientTransform="matrix(1 0 0 -1 -371 -136.5)">
		<stop  offset="0" style="stop-color:#FFFFFF"/>
		<stop  offset="0.1729" style="stop-color:#D6A06C"/>
		<stop  offset="0.5374" style="stop-color:#9C1A2F"/>
		<stop  offset="1" style="stop-color:#151823"/>
	</linearGradient>
	<polygon opacity="0.66" fill="url(#SVGID_20_)" enable-background="new    " points="56.141,20.602 86.232,2.513 25.639,2.513 	"/>
	
		<linearGradient id="SVGID_21_" gradientUnits="userSpaceOnUse" x1="501.8408" y1="-299.3418" x2="441.1008" y2="-207.3643" gradientTransform="matrix(1 0 0 -1 -371 -136.5)">
		<stop  offset="0" style="stop-color:#FFFFFF"/>
		<stop  offset="0.1729" style="stop-color:#D6A06C"/>
		<stop  offset="0.5374" style="stop-color:#9C1A2F"/>
		<stop  offset="1" style="stop-color:#151823"/>
	</linearGradient>
	<path opacity="0.51" fill="url(#SVGID_21_)" enable-background="new    " d="M107.108,114.373V85.821l-20.876,50.554l8.001,0.013
		c5.913,0,12.875-4.523,12.875-14.238V114.373z"/>
	
		<linearGradient id="SVGID_22_" gradientUnits="userSpaceOnUse" x1="325.0547" y1="-102.8467" x2="422.0576" y2="-191.7069" gradientTransform="matrix(1 0 0 -1 -371 -136.5)">
		<stop  offset="0" style="stop-color:#FFFFFF"/>
		<stop  offset="0.1729" style="stop-color:#D6A06C"/>
		<stop  offset="0.5374" style="stop-color:#9C1A2F"/>
		<stop  offset="1" style="stop-color:#151823"/>
	</linearGradient>
	<path opacity="0.63" fill="url(#SVGID_22_)" enable-background="new    " d="M3.074,24.59l0.087,16.164l22.49-38.241L14.875,2.65
		c-7.062,0-11.788,4.513-11.788,14.164L3.074,24.59z"/>
	
		<linearGradient id="SVGID_23_" gradientUnits="userSpaceOnUse" x1="410.3467" y1="-320.8193" x2="433.5353" y2="-253.8322" gradientTransform="matrix(1 0 0 -1 -371 -136.5)">
		<stop  offset="0" style="stop-color:#FFFFFF"/>
		<stop  offset="0.1729" style="stop-color:#D6A06C"/>
		<stop  offset="0.5374" style="stop-color:#9C1A2F"/>
		<stop  offset="1" style="stop-color:#151823"/>
	</linearGradient>
	<polygon opacity="0.34" fill="url(#SVGID_23_)" enable-background="new    " points="55.954,105.81 86.232,136.363 25.664,136.363 
			"/>
	<g>
		<rect x="38.465" y="114.186" fill="none" width="4.95" height="5.449"/>
		<rect x="16.925" y="114.186" fill="none" width="4.976" height="4.1"/>
		<path fill="#FFFFFF" d="M27.289,116.974v-2.788c0-2.989-2.426-5.389-5.414-5.389H11.575v20.19h5.388v-5.927l4.476,5.927h6.426
			l-5.05-6.701C25.376,121.861,27.289,119.674,27.289,116.974z M21.901,118.285h-4.976v-4.1h4.976V118.285z"/>
		<path fill="#FFFFFF" d="M43.378,108.797h-4.914c-3,0-5.388,2.388-5.388,5.389v14.802h5.388v-3.977h4.95v3.977h5.389V114.21
			C48.791,111.223,46.366,108.797,43.378,108.797z M43.402,119.635h-4.938v-5.449h4.95v5.449H43.402z"/>
		<rect x="54.679" y="108.797" fill="#FFFFFF" width="5.413" height="20.19"/>
		<polygon fill="#FFFFFF" points="71.405,108.797 65.98,108.797 65.98,128.987 79.444,128.987 79.444,123.611 71.405,123.611 		"/>
		<path fill="#FFFFFF" d="M92.97,116.036h-4.914v-2.188h9.327v-5.052h-9.327c-3,0-5.413,2.426-5.413,5.413v1.852
			c0,2.987,2.45,5.349,5.45,5.349h4.914v2.526h-9.989v5.051h9.989c3,0,5.388-2.389,5.388-5.39v-2.188
			C98.383,118.425,95.971,116.036,92.97,116.036z"/>
	</g>
</g>
</svg>
