<?xml version="1.0" encoding="utf-8"?>
<!-- Generator: Adobe Illustrator 16.0.0, SVG Export Plug-In . SVG Version: 6.00 Build 0)  -->
<!DOCTYPE svg PUBLIC "-//W3C//DTD SVG 1.1//EN" "http://www.w3.org/Graphics/SVG/1.1/DTD/svg11.dtd">
<svg version="1.1" id="Layer_1" xmlns="http://www.w3.org/2000/svg" xmlns:xlink="http://www.w3.org/1999/xlink" x="0px" y="0px"
	 width="100px" height="40px" viewBox="0 0 100 40" enable-background="new 0 0 100 40" xml:space="preserve">
<g>
	<path d="M7.258,8.965h10.058c1.909,0,3.353,0.198,4.331,0.594c0.978,0.396,1.729,0.969,2.256,1.718
		c0.526,0.75,0.789,1.618,0.789,2.605c0,1.015-0.257,1.916-0.77,2.703c-0.514,0.787-1.253,1.406-2.22,1.858
		c-0.966,0.452-2.248,0.687-3.845,0.705l5.158,6.287c0.419,0.521,0.694,0.843,0.824,0.963c0.326,0.289,0.668,0.508,1.027,0.657
		c0.358,0.148,0.761,0.223,1.208,0.223h0.349v1.174h-4.438l-7.166-9.304h-2.504v6.007c0,0.671,0.023,1.09,0.07,1.258
		c0.102,0.316,0.268,0.54,0.496,0.67c0.229,0.131,0.673,0.195,1.334,0.195h0.502v1.174H7.258v-1.174h0.671
		c0.502,0,0.84-0.032,1.013-0.098c0.172-0.064,0.326-0.179,0.461-0.342c0.135-0.163,0.23-0.37,0.286-0.622
		c0.019-0.103,0.033-0.572,0.042-1.41V12.052c0-0.567-0.056-0.973-0.167-1.219c-0.112-0.246-0.268-0.423-0.468-0.531
		c-0.2-0.109-0.547-0.163-1.041-0.163H7.258V8.965z M12.315,10.488v7.333h4.015c1.361,0,2.317-0.084,2.868-0.251
		c0.784-0.224,1.401-0.634,1.854-1.229c0.453-0.596,0.679-1.355,0.679-2.277c0-0.782-0.163-1.441-0.49-1.977
		s-0.772-0.936-1.336-1.202c-0.564-0.265-1.406-0.398-2.525-0.398H12.315z"/>
	<path d="M40.953,8.965h1.007l1.492,6.007l-1.299,0.391c-0.818-1.685-1.907-3.012-3.265-3.981c-1.116-0.81-2.353-1.215-3.711-1.215
		c-0.819,0-1.554,0.146-2.205,0.439c-0.651,0.293-1.14,0.671-1.465,1.136c-0.326,0.465-0.488,0.939-0.488,1.423
		c0,0.437,0.125,0.86,0.377,1.269c0.251,0.409,0.634,0.77,1.146,1.081c0.512,0.312,1.351,0.64,2.516,0.983l3.645,1.078
		c0.447,0.131,1.096,0.383,1.948,0.755c0.852,0.373,1.515,0.767,1.99,1.182c0.475,0.414,0.847,0.923,1.117,1.523
		c0.27,0.602,0.405,1.251,0.405,1.95c0,1.547-0.678,2.9-2.033,4.061s-3.108,1.74-5.259,1.74c-1.108,0-2.1-0.16-2.976-0.481
		s-1.821-0.892-2.835-1.711l-0.643,1.857h-0.98l-1.297-6.999l1.299-0.265c0.475,1.294,1.106,2.394,1.893,3.297
		c0.787,0.903,1.657,1.585,2.612,2.046s1.926,0.691,2.913,0.691c1.341,0,2.515-0.405,3.521-1.215
		c0.838-0.68,1.257-1.481,1.257-2.403c0-0.847-0.303-1.541-0.908-2.081c-0.615-0.54-1.713-1.043-3.297-1.509l-3.492-1.006
		c-1.956-0.567-3.334-1.294-4.135-2.179c-0.801-0.885-1.201-1.9-1.201-3.045c0-0.894,0.26-1.721,0.782-2.48
		c0.521-0.759,1.322-1.394,2.402-1.907c1.081-0.512,2.263-0.768,3.548-0.768c1.08,0,2.114,0.187,3.101,0.559
		c0.699,0.261,1.341,0.633,1.928,1.118L40.953,8.965z"/>
	<path d="M46.26,16.97v-1.16c0.698,0,1.318-0.087,1.858-0.262s1.131-0.479,1.774-0.911h1.104v2.333
		c1.164-0.923,2.133-1.542,2.905-1.858c0.772-0.316,1.546-0.475,2.319-0.475c1.592,0,2.949,0.624,4.071,1.872
		s1.684,2.873,1.684,4.875c0,2.217-0.638,4.032-1.914,5.448c-1.164,1.304-2.663,1.955-4.498,1.955c-0.912,0-1.77-0.172-2.57-0.517
		c-0.577-0.242-1.243-0.675-1.997-1.299v4.596c0,0.689,0.018,1.094,0.056,1.215c0.046,0.177,0.14,0.326,0.279,0.447
		s0.316,0.2,0.53,0.237c0.158,0.028,0.689,0.042,1.593,0.042v1.174H46.26v-1.174h0.628c0.643,0,1.06-0.049,1.25-0.146
		s0.333-0.249,0.426-0.454c0.056-0.158,0.084-0.643,0.084-1.453V16.97H46.26z M50.996,18.408v4.806c0,0.633,0.037,1.104,0.111,1.411
		c0.111,0.475,0.328,0.903,0.648,1.285s0.758,0.707,1.311,0.978c0.554,0.271,1.132,0.405,1.736,0.405
		c1.209,0,2.257-0.456,3.145-1.369c0.889-0.913,1.332-2.296,1.332-4.149c0-1.731-0.367-3.07-1.102-4.016s-1.604-1.418-2.607-1.418
		c-0.651,0-1.357,0.173-2.12,0.517C52.688,17.202,51.869,17.719,50.996,18.408z"/>
	<path d="M76.098,24.848l0.895,0.727c-0.681,0.811-1.339,1.453-1.977,1.928c-0.639,0.476-1.241,0.809-1.81,0.999
		s-1.234,0.286-1.997,0.286c-1.369,0-2.533-0.279-3.493-0.838c-1.099-0.643-1.941-1.48-2.528-2.515
		c-0.586-1.033-0.88-2.253-0.88-3.66c0-1.471,0.284-2.729,0.853-3.771c0.567-1.043,1.361-1.864,2.382-2.465
		c1.02-0.601,2.2-0.901,3.541-0.901c0.996,0,1.862,0.155,2.598,0.467c0.736,0.311,1.36,0.78,1.872,1.407
		c0.513,0.627,0.885,1.345,1.118,2.153c0.13,0.474,0.204,1.087,0.224,1.84h-9.877c-0.027,0.457-0.042,0.798-0.042,1.021
		c0,1.176,0.205,2.224,0.615,3.143c0.409,0.919,0.952,1.596,1.627,2.029c0.676,0.435,1.441,0.651,2.298,0.651
		c0.727,0,1.43-0.17,2.109-0.51S75.129,25.835,76.098,24.848z M74.31,19.204c-0.14-0.856-0.338-1.489-0.594-1.899
		c-0.256-0.409-0.619-0.735-1.089-0.979c-0.471-0.241-0.999-0.362-1.586-0.362s-1.137,0.121-1.648,0.362
		c-0.513,0.243-0.938,0.578-1.278,1.007c-0.34,0.428-0.636,1.052-0.887,1.871H74.31z"/>
	<path d="M91.367,24.555l0.894,0.727c-1.751,2.338-3.851,3.506-6.3,3.506c-1.909,0-3.521-0.68-4.833-2.039
		c-1.313-1.359-1.97-3.05-1.97-5.071c0-1.35,0.305-2.563,0.915-3.639c0.609-1.075,1.457-1.911,2.542-2.507s2.33-0.894,3.736-0.894
		c1.602,0,2.938,0.394,4.01,1.18c1.07,0.788,1.606,1.581,1.606,2.382c0,0.428-0.126,0.759-0.377,0.991
		c-0.252,0.233-0.536,0.35-0.853,0.35c-0.168,0-0.331-0.042-0.489-0.126s-0.321-0.219-0.488-0.405
		c-0.075-0.084-0.21-0.345-0.405-0.782c-0.252-0.54-0.447-0.903-0.587-1.09c-0.289-0.372-0.645-0.665-1.068-0.88
		c-0.424-0.214-0.896-0.321-1.418-0.321c-0.792,0-1.525,0.219-2.2,0.656c-0.676,0.438-1.211,1.083-1.606,1.936
		c-0.396,0.852-0.594,1.869-0.594,3.052c0,1.835,0.489,3.292,1.467,4.372c0.848,0.932,1.857,1.397,3.031,1.397
		c0.54,0,1.087-0.091,1.642-0.272c0.554-0.182,1.077-0.449,1.571-0.803C89.956,26.021,90.547,25.449,91.367,24.555z"/>
</g>
</svg>
