<?xml version="1.0" encoding="utf-8"?>
<!-- Generator: Adobe Illustrator 16.0.0, SVG Export Plug-In . SVG Version: 6.00 Build 0)  -->
<!DOCTYPE svg PUBLIC "-//W3C//DTD SVG 1.1//EN" "http://www.w3.org/Graphics/SVG/1.1/DTD/svg11.dtd">
<svg version="1.1" id="Layer_1" xmlns="http://www.w3.org/2000/svg" xmlns:xlink="http://www.w3.org/1999/xlink" x="0px" y="0px"
	 width="93.796px" height="107.304px" viewBox="23.204 16.316 93.796 107.304"
	 enable-background="new 23.204 16.316 93.796 107.304" xml:space="preserve">
<g>
	<path d="M40.64,32.86c0.45,0.52,1.79,0.15,1.45,1.45C41.64,33.8,40.31,34.16,40.64,32.86z"/>
	<path d="M44.51,35.76c0.11-0.77,0.56-0.02,0.48,0.48C44.89,37.01,44.44,36.27,44.51,35.76z"/>
	<path d="M44.03,38.18c-1.16-0.45-1.28-1.95-3.39-1.45C41.78,35.37,44.4,35.6,44.03,38.18z"/>
	<path d="M60.97,45.93c-0.5,1.08-2.23-0.63-3.87,0c-2.07,0.35-2.64,2.2-5.32,1.94c0.47-2.27,4.08-1.41,5.32-2.9
		c0.81,0,1.61,0,2.42,0C59.87,45.41,60.4,45.69,60.97,45.93z"/>
	<path d="M68.71,48.83c0.85,0.45,1.07,1.51,0.97,2.9c0.24,2.28-0.87,1.17-0.48-0.48C69.4,50.09,68.31,50.2,68.71,48.83z"/>
	<path d="M52.26,50.77c0.59,0.21,0.99,0.62,0.97,1.45C52.63,52.01,52.23,51.6,52.26,50.77z"/>
	<path d="M75.01,53.19c0.09-0.55,0.49-0.27,0.48,0C75.4,53.74,75,53.46,75.01,53.19z"/>
	<path d="M35.8,55.61c0.56-1.57,0.55,1.3,0.48,1.94C35.73,59.11,35.73,56.25,35.8,55.61z"/>
	<path d="M28.54,59.48c0.47,0.01,0.38,0.59,0.48,0.97C28.55,60.44,28.65,59.86,28.54,59.48z"/>
	<path d="M46.93,59.97c0.48-1.48,1.29,0.56,1.94,0.48c-0.42,1.41-0.72,0.54-1.94,0.48C47.23,60.5,47.52,60.07,46.93,59.97z"/>
	<path d="M76.94,60.93c0.09-0.55,0.49-0.27,0.48,0C77.33,61.48,76.94,61.2,76.94,60.93z"/>
	<path d="M35.31,60.93c2.21-0.43,2.74,0.81,4.36,0.97c0.21,1.01-0.33,1.28-0.48,1.94c-0.47-0.01-0.38-0.59-0.48-0.97
		c-0.47,0.01-0.38,0.59-0.48,0.97c-0.7,0.26-1.18-1.89-1.45-0.48c-0.66-0.15-0.4-1.21-0.48-1.94c-0.57,0.08-0.41,0.88-0.48,1.45
		C35.14,62.72,35.4,61.66,35.31,60.93z M37.73,61.9c-0.38,0.11-0.96,0.01-0.97,0.48C37.14,62.28,37.72,62.37,37.73,61.9z"/>
	<path d="M27.57,74c0.75-1.48,0.43,2.1,0.48,2.9c0.01,1.14-0.83,1.42-0.48,2.899c0.57-0.079,0.41-0.88,0.48-1.45
		c0.98,1.51-0.24,2.711,0.48,4.84C26.61,80.98,27.25,77.49,27.57,74z"/>
	<path d="M47.9,84.65c0.01-0.471,0.59-0.381,0.97-0.48C48.85,84.641,48.27,84.54,47.9,84.65z"/>
	<path d="M40.64,92.88c0.11-0.771,0.56-0.021,0.48,0.479C41.01,94.13,40.57,93.391,40.64,92.88z"/>
	<path d="M70.65,104.01c1.71,1.471-0.79,4.69-2.42,2.9C67.68,104.6,70.08,105.21,70.65,104.01z"/>
	<path d="M52.26,18.34c0.41,1.42,1.22-0.63,2.42,0c-1.84,0.74-2.9,2.27-4.84,2.9c0.15-1.14,1.5-1.08,1.94-1.94
		c-8.67-0.28-11.98,4.8-14.52,10.65c0.48,1.49,0.8-1.05,1.45-0.97c0.7-0.27,1.18-0.75,1.45-1.45c0.69,0.99-0.95,1.36-1.45,1.94
		c-1.74,1.96-4.16,4.79-4.36,8.71c1.14-2.57,2.68-4.74,5.81-5.32c-0.57,1.1,0.26,1.45-1.45,1.94c-0.43,0.21-0.87,0.43-0.97,0.97
		c-0.68-0.17-0.04-0.85,0.48-0.97c-0.96-1.24-1.93,1.59-2.9,1.94c0.06,2-0.84,3.03-0.48,5.32c0.24,2.02,1.69,2.82,1.94,4.84
		c-0.89,0.07-0.3,1.64-0.97,1.94c-0.66-1.12-1.39-2.16-1.45-3.87c-2.13,2.22-3.85,4.87-3.39,9.68c0.87-2.18,4.23-3.41,3.39-5.81
		c-0.61,0.12-0.49,0.96,0,0.97c-1.37,1.05-0.48-1.42-0.48-2.9c0.78,0.67,0.52,2.39,1.45,2.9c1.87,0.54,1.72-1.71,2.9-0.48
		c0,1.78-1.69,1.85-2.42,2.9c3.02,0.11,3.01-2.8,2.9-5.81c-0.66,0.15-0.4,1.21-0.48,1.94c-0.75-1.67-0.93-3.91-2.42-4.84
		c1.04-1.81-0.93-1.46-0.48-3.87c0.55,0.58,1.23,0.19,0.48,0c1.32-1.67,5.36-2.68,7.26-0.97c-0.66,0.95-2.97,0.26-3.87,0.97
		c-0.44,3.39-0.59,4.63,0.48,7.75c3.85-1.33,6.93,1.6,7.75,4.84c-1.1-0.93-1.45-1.11-1.94,0.48c-2.31-0.22-2.04-0.22-4.36,0
		c-0.15-1.28,2.71,0.45,1.94-1.45c-0.27-1.05-1.87,1.64-2.9,0c0.51,3.52,0.75,7.32,1.94,10.17c0.27,1.09,0.75-0.59,1.45,0.48
		c0.05,1.2,0.91,1.5,0,2.42c1.62,2.58,3.32,5.07,5.81,6.78c0.64,2.11,1.92,3.569,3.87,4.36c6.61-1.131,9.82-5.67,14.04-9.201
		c-1.19-1.07-1.22-3.3-1.94-4.84c-0.29-3.42,0.33-10.09,0.48-12.1c0.07-0.91-1.05-1.95,0.48-0.48c0.16,4.11-0.52,7.68,0,11.13
		c0.93,6.21,4.86,9.79,8.71,13.07c1.2-0.291,4.3,1.239,3.39,0c0.62-0.58,2.68,1.489,2.9,2.899c0.28,1.899-1.99,1.24-2.42,2.42
		c-1.49-0.479,0.54-1.31,0.97-1.45c-0.39-0.9-0.81-1.77-0.97-2.9c-3.61,0.381-5.94-0.52-7.26-2.42
		c-2.39,2.611-4.65,5.351-8.23,6.781c1.28,1.119,2.93,2.039,4.36,2.899c0.68,0.41,1.82,0.55,2.42,0.97
		c0.75,0.52,0.75,1.85,1.94,1.45c-1.61,1.11-2.63-2.521-5.81-1.45c-1.25-0.85-2.09-2.109-3.39-2.9c-1.62,2.091-2.34,5.091-3.39,7.74
		c17.75,1.131,37.59,0.16,56.15,0.48c0,9.359,0,18.72,0,28.07c-23.56,0-47.11,0-70.67,0c0-8.871,0-17.75,0-26.621
		c-0.92-0.539-1.7-1.209-2.9-1.449c0.65,2.58,1.89,4.561,1.45,8.23c-1.28,1.949-3.46,3-4.36,5.319c0.14,0.87-0.46,0.99-0.48,0.479
		c0.52-3.35,3.5-4.239,4.36-7.26c0.2-2.3-0.7-3.49-0.97-5.33c-0.8-0.819-2.63-0.6-3.39-1.449c0.64,1.459,1.56,2.63,1.45,4.84
		c-0.68-1.641-1.54-3.25-2.42-4.84c-0.4-0.711-0.92-1.12-1.45-1.94c-0.34-0.521-0.11-2.351-1.45-1.94c0.4-1.369-0.68-1.25-0.48-2.42
		c-0.09-0.549-0.49-0.27-0.48,0c-1.02-2.17,2.1-4.34,3.39-5.81c2.16-0.26,4.04-0.8,4.84-2.42c-2.6-1.62-5.31,0.81-7.75,0.97
		c-2.13,1.74-2.85,4.9-4.84,6.78c0.29,1.16,0.7,2.21,0.48,3.87c-2.84-4.78,2.47-7.2,3.39-11.131c2.58-0.319,4.7-1.109,6.78-1.939
		c-1.99-1.01-6.29-0.23-9.2,0.48c-1.72,0.529-1.27,3.25-1.94,4.84c0.06,1.199-0.59,0.82-0.48,0c-0.06-0.87,0.59-1.02,0.48-1.939
		c-0.29-1.74,0.56-2.341,0.97-3.391c2.66,0.4,3.31-1.21,5.81-0.971c-1.89-2.33-5.09,0.131-7.26,0.48c0,0.641,0,1.29,0,1.94
		c-0.78-1.41-1.19-0.53-2.9-0.48c0.98-1.04-1.26-1.579-0.97-3.39c1.1,0.93,1.45,1.11,1.94-0.48c-0.26-0.75-0.51-0.03-0.48,0.48
		c-0.86-0.44-1.41-1.17-2.42-1.45c0.08-0.56-0.11-0.86-0.48-0.97c-0.23-1.52,0.69-1.89,0.97-2.9c0.75,0.57-1.29,2.38,0.48,3.39
		c0.72-0.21-0.19-0.62,0-1.45c1.02,0.85,1.43,1.09,2.9,0.48c-0.59-0.7-1.85-0.73-2.42-1.45c1.77-0.27-0.35-0.36,0-2.9
		c0.99,0.3,0.14,2.45,1.94,1.94c-0.21-0.43-0.42-0.87-0.97-0.97c0.27-1.4,0.75,0.74,1.45,0.48c1.09-0.26-0.59,1.89,0.48,0.48
		c2.37-0.03-1.32,1.42,0.48,2.42c1.63-0.63,0.63-3.89,2.9-3.87c0.04-2.6,0.06-4.76,0.48-5.81c-0.79-0.99-1.57-1.98-1.94-3.39
		c-0.37-5.05,2.64-6.72,4.36-9.68c0.03-1.8-0.49-3.06-0.97-4.36c0.87-1.85,0.08-3.55,0.97-5.32c0.37-0.74,1.12-0.86,1.45-1.45
		c1.91-3.38,3-8.68,6.29-11.13c2.04-0.55,3.41-1.75,5.32-2.42c0.97,0,1.94,0,2.9,0c3.12-1.88,7.17-2.83,12.58-2.42
		c1.97,0.78,3.27,2.22,5.32,2.9c3.62,3.23,6.11,7.35,9.2,11.13c2.78,3.41,6.34,6.42,8.23,10.65c1.78,5.86,0.1,10.99-0.97,16.46
		c1.06,2.09-1.24-0.08-0.48-1.94c3.79-8.98-0.09-19.75-6.29-23.23c-1.84-3.65-4.88-6.09-6.78-9.68c-3.06-1.94-5.21-4.8-9.2-5.81
		C57.96,16.62,55.29,17.66,52.26,18.34z M34.35,51.25c1.66,0.49,3.99-0.8,2.9-1.45C37.08,51.08,34.78,50.24,34.35,51.25z
		 M33.86,51.74c-0.43,2.22-1.65,5.11-1.94,8.23c-0.18,1.88,0.04,3.49,0,5.32c-0.03,1.6-0.14,3.18,0,4.36
		c2.79-1.33,5.92,1.17,8.71,1.45c0.11,0.381,0.01,0.961,0.48,0.971c-0.79-3.13-1.87-8.76,0-11.62c-2.17-0.09-3.99-0.53-4.84-1.94
		c1.68,0.26,2.58,1.29,4.36,1.45c0.04-2.47-1.01-3.83-0.97-6.29C36.82,53.94,36.45,51.73,33.86,51.74z M29.51,70.62
		c0.08-0.56,0.76-0.53,1.45-0.48c-0.21-2.32,0.3-6.45,0-7.26C30,64.67,28.18,68.15,29.51,70.62z M27.09,70.62
		c-0.57,0.08-1.37-0.08-1.45,0.479C26.2,71.02,27.01,71.18,27.09,70.62z M45.96,50.77c0.58-0.1,0.3-0.54,0-0.97
		C45.38,49.9,45.67,50.34,45.96,50.77z M45.48,51.74c0.24-0.72-1.79,0.48-1.94-0.48C43.24,53.22,45.48,51.73,45.48,51.74z
		 M43.54,63.84c-0.07-0.9-0.32-1.62-0.97-1.94C42.64,62.8,42.89,63.52,43.54,63.84z M59.03,87.07c0.5-3.211,2.17-5.25,2.9-8.23
		c2.82-1.21,5.03-3.04,6.78-5.32c-1.58-1.16-1.47-4.01-2.42-5.81c-2.66,3.149-5.68,5.94-9.68,7.74c0.19,2.409,2.76,4.96,1.45,7.26
		c-1.04-1.87-1.38-4.42-1.94-6.78c-0.81,0-1.61,0-2.42,0c0,0.65,0,1.291,0,1.94c-1.33,0.3-2.46,3.31-3.39,2.42
		c0.41-0.92,2.33-2.79,1.45-3.39c-0.83,1.59-2.79,2.05-3.87,3.39c0.99,0.14,0.97,1.29,1.45,1.94c2.22-0.53,2.74-2.75,5.81-2.42
		C57.88,80.8,56.78,85.609,59.03,87.07z M45,74.49c-0.17,1.97-1.27-0.02-2.42,0.97c0-0.479,0-0.97,0-1.45
		c-2.83,1.04-5.11,2.631-6.78,4.84c1.72,4.09,4.78,6.84,8.23,9.2c1.36-0.579,3.34-0.53,5.33-0.479c0.28-1.01,1.2-1.381,0.97-2.9
		c-2.04-3.279-3.98-6.67-6.78-9.199c1.67,1.079,2.56-0.781,3.87,0.969c-0.72,0.08-1.79-0.17-1.94,0.48c1.12-0.15,0.54,1.4,1.45,1.45
		c0.44-0.28,1.78-2,1.94-0.97c-0.53,0.119-1.16,0.8-0.48,0.97c0.39,0.08,3.85-1.39,1.94-3.39c-0.14,1.129-1.31,1.129-1.45,0
		c0.54-0.051,0.75,0.699,0.97,0C48.58,74.529,45.9,76.29,45,74.49z M47.42,73.04c-0.63-1.2,1.08-2.351,0-2.42
		c-0.27,0.7-0.75,1.18-1.45,1.45c0.55-2.05,0.29-1.15-0.97-0.48c-0.82-1.23,0.4-4.56-1.94-5.33c-0.12,0.53-0.8,1.16-0.97,0.48
		c0.69-0.06,0.69-3.96,0-2.42c-0.08,0.72,0.17,1.79-0.48,1.94c-0.11-0.38-0.01-0.95-0.48-0.97c0.09,2.17,1.01,3.51,1.94,4.84
		c-0.08,1.69,0.13,3.101,0.97,3.87c0.03-1.63,1.11-0.09,1.94-1.45c0,0.65,0,1.29,0,1.94c0.92-0.11,1.07,0.539,1.94,0.48
		c0.21-0.421,0.6-3.4,0-2.421C47.87,72.85,47.83,73.12,47.42,73.04z M37.73,43.99c-0.08,0.65,0.76,2.67,0.97,1.45
		c-1.2-0.73,0.3-4.17-0.97-4.84c0.03,0.91-0.37,1.02-0.97,0.48C36.53,42.61,37.46,42.98,37.73,43.99z M39.67,50.77
		c1.81-0.29,2.82-1.38,3.87-2.42C41.36,47.63,39.57,48.03,39.67,50.77z M45,49.32c-0.38,0.11-0.96,0.01-0.97,0.48
		C44.4,49.69,44.98,49.79,45,49.32z M44.51,50.29c-0.38,0.11-0.96,0.01-0.97,0.48C43.92,50.66,44.5,50.76,44.51,50.29z
		 M50.32,87.561c0.81,0,1.61,0,2.42,0c-0.09-1.871-0.02-3.57,0.48-4.84c-1.67,0.699-2.28-0.541-3.39,0.479
		C51.23,83.84,50.83,86.27,50.32,87.561z M56.61,83.68c-0.65,0-1.29,0-1.94,0c-1.17,1.311-0.44,1.721-0.97,3.87c1.45,0,2.9,0,4.36,0
		C57.81,86.04,57.22,84.859,56.61,83.68z"/>
	<path d="M36.77,103.529c-0.99-1.809,2.2-3.59,2.42-5.809C39.98,99.34,37.07,101.4,36.77,103.529z"/>
	<path d="M47.42,25.12c0.42-0.86,1.53-1.41,0.48-2.42c-1.71,0.07-2.17,1.39-3.87,1.45c0.78-0.99,2.33-1.22,3.39-1.94
		c1.3-0.33,0.94,1,1.45,1.45c1.79-1.76,4.3-2.8,8.23-2.42c0.12,0.53,0.96,0.33,0.97,0.97c-0.56,0.08-0.86-0.11-0.97-0.48
		c-1.29,0-2.58,0-3.87,0C50.61,22.18,50.25,24.88,47.42,25.12z"/>
	<path d="M46.45,30.92c-1.11-1.4-2.01-0.77-3.87-0.48c0.7-0.85,0.44-1.1-0.97-0.97c-1.54,0.44,2.4-0.84,2.9-1.45
		c0.21-0.8-1.8,0.04-1.94,0.48c-0.68-0.17-0.04-0.85,0.48-0.97c1.09-0.27-0.59-0.75,0.48-1.45c1.59,0.02,3.42-0.2,3.39,1.45
		c2.25-3.33,7.82-3.38,10.65-0.48c-0.31,0.75-2.2-0.99-2.9-1.45c-1.29,0-2.58,0-3.87,0C48.44,26.46,47.25,28.5,46.45,30.92z
		 M45.48,26.57c-0.57,0.08-1.37-0.08-1.45,0.48C44.6,26.98,45.4,27.13,45.48,26.57z"/>
	<path d="M60,25.6c1.2-1.01,1.9,2.59,3.39,2.9c0.22,1.73,2.17,4.25,1.45,5.32c0.21,0.92,1.04,1.22,0.97,2.42
		c-1.94-0.87,0.13,0.15,0,1.45c-1.53-0.89-2.17-2.67-2.9-4.36c0.99,0.14,0.97,1.29,1.45,1.94c1.17-0.39-1.52-1.99,0-2.9
		c-0.59,0.96-1.67-0.12-0.48-0.48c-0.15-0.83-1.68,0.63-1.45-1.45c0.39,0.09,0.48,0.49,0.97,0.48C62.34,29.07,61.69,26.81,60,25.6z"
		/>
	<path d="M67.26,42.06c-0.86,0.14-0.99-0.46-0.48-0.48c-0.21-0.72-0.62,0.19-1.45,0c-1.69-1.06-0.61-2.69-1.94-3.39
		c0.21-0.7,0.42,0.05,0.97,0c0.26-1.71-1.71-1.19-1.45-2.9C64.93,37.63,66.6,39.42,67.26,42.06z M66.29,40.6
		c-1.69-0.14,0.04-1.31-0.97-1.45c-0.03,0.3-0.07,0.57-0.48,0.48c-0.05-0.54,0.7-0.75,0-0.97C63.78,39.18,65.51,42.08,66.29,40.6z"
		/>
	<path d="M69.2,25.6c-0.68-0.58-0.04-0.19,0.48,0c0.69,3.18,2.25,5.5,2.42,9.2c0.48,1.29,1,2.55,0.97,4.36
		c-1.92-0.15,0.54-1.68-1.45-1.45c0.09-0.39,0.49-0.48,0.48-0.97c-0.09-0.55-0.49-0.27-0.48,0C71.64,34.3,70.43,29.4,69.2,25.6z"/>
	<path d="M58.55,31.41c-1.94,1.61-3.12-1.25-5.32-1.94C55.71,27.31,56.7,30.36,58.55,31.41z M55.16,29.96c0.57,0.07,1.1,0.86,1.45,0
		C56.04,29.89,55.52,29.09,55.16,29.96z"/>
	<path d="M49.35,30.92c0.06-1.07,2.05-0.21,2.9-0.48c0.01,0.47,0.59,0.38,0.97,0.48c0.93,1.33,2.05,2.46,3.39,3.39
		c-0.12,1.74,1.45,1.77,1.45,3.39c0.71,1.12,1.53-0.95,1.45,0.97c-1.49,1.21-1.42-1.22-1.94-1.94c-0.64-0.9-1.38-1.72-1.94-2.42
		C54.1,32.36,53.33,30.59,49.35,30.92z"/>
	<path d="M72.1,46.41c0.05-0.53,1.79-2.37,0-3.39c0.81-1.09,1.81,1.71,1.94,2.9c-0.72,1.05-2.78,0.77-2.9,2.42
		c-1.52,0.1-2.97,0.01-4.36-0.48c-0.84-0.3-1.83-1.15-2.9-1.94c-1.79-1.32-4.13-3-5.81-4.84c-0.35-0.38-0.15-1.02-0.48-1.45
		c-1.48-1.9-3.9-2.88-4.84-4.84c-0.85,0.12-1.1,0.83-0.97,1.94c-0.57-0.08-0.41-0.88-0.48-1.45c-0.66,0.15-0.4,1.21-0.48,1.94
		c-0.7-0.97-2.46-2.42-1.94,0.48c-1.25-0.66-0.11-2.97,0-3.87c-1.12-0.15-0.54,1.4-1.45,1.45c-0.29,1,0.6,3.18-0.48,3.39
		c0-0.65,0-1.29,0-1.94s0-1.29,0-1.94c0.45-0.35,0.73-0.88,0.97-1.45c0.56,0.08,0.86-0.11,0.97-0.48
		C59.46,34.26,58.94,49.18,72.1,46.41z"/>
	<path d="M71.62,45.44c-0.41-0.36,0.32-3.12-1.45-3.39C70.9,41.37,73.56,44.6,71.62,45.44z"/>
	<path d="M59.52,38.67c0.96,1.95,2.81,3,3.87,4.84c0.32,0,0.65,0,0.97,0c-0.25,0.93-0.79,0.07-0.97,0
		C62.22,43.03,58.2,40.32,59.52,38.67z"/>
	<path d="M74.52,33.83c-1.15-0.97,0.54,0.21,0.97,0.48c-0.35,1.32,0.96,0.97,0.97,1.94c0.58,0.56,0.19,1.23,0,0.48
		C75.62,35.96,75.04,34.92,74.52,33.83z"/>
	<path d="M77.43,38.67c1.24,0.86,1.09,3.11,1.94,4.36c0.4,1.15-0.68,2.23-0.48,0.48C78.58,41.71,77.73,40.47,77.43,38.67z"/>
	<path d="M80.33,57.06c0.66-0.15,0.4-1.21,0.48-1.94c0.78,2,2.01,4.89,1.94,6.29c-0.76,0.72-1.98-2.19-2.9-2.9c0-1.13,0-2.26,0-3.39
		c-0.66,0.15-0.4,1.21-0.48,1.94c-1.3-0.77-0.47-5.32,0-7.26c0-0.65,0-1.29,0-1.94s0-1.29,0-1.94c0.15-2.36,0.76,0.47,0.48,1.45
		c0.79,1.59-0.11,1.85,0,3.87C80.63,53.4,80.86,54.53,80.33,57.06z M79.85,54.16c0-0.27-0.39-0.55-0.48,0
		C79.36,54.43,79.75,54.71,79.85,54.16z M81.78,59c0-0.27-0.39-0.55-0.48,0C81.3,59.27,81.69,59.55,81.78,59z"/>
	<path d="M84.69,46.9c1.48,1.51-0.59,3.58,0,5.81C82.69,51.93,85.45,49.45,84.69,46.9z"/>
	<path d="M61.94,48.35c0.26,0.7-1.89,1.18-0.48,1.45c-1.55,1.75-6.41,1.65-5.32-0.97c-1.68,0.6-0.89,1.41-1.45,2.42
		c-1.09-0.45,0.83-4.46-0.97-1.94c-2.02-1.6,3.21-1.06,1.45-1.45C57.12,46.41,60.22,47.96,61.94,48.35z M57.58,49.8
		c-0.29-0.03-0.57-0.07-0.48-0.48c0.27,0,0.55-0.39,0-0.48C56.13,49.26,56.97,51.29,57.58,49.8z M60.48,49.32
		c-0.38,0.11-0.96,0.01-0.97,0.48C59.89,49.69,60.47,49.79,60.48,49.32z"/>
	<path d="M77.43,57.06c-0.47,0.01-0.38,0.59-0.48,0.97c-1.29-1.16-0.47-1.43-0.97-3.39c-0.6,0.54-0.99,0.42-0.97-0.48
		c0.48,0,0.97,0,1.45,0c-0.17,0.97,0.1,1.51,0.97,1.45c0.3,1.8,1.36,2.83,1.94,4.36c1.01,2.22-1.09-0.71-1.45-1.45
		C78.05,57.73,77.45,57.68,77.43,57.06z"/>
	<path d="M28.05,59.48c0.06,1.9,1.96,1.63,2.42,0.48c1.03,0.45-0.91,1.95-2.42,1.45c-0.93-1.95-0.31-4.66,1.94-4.84
		C29.24,57.44,28.66,58.47,28.05,59.48z"/>
	<path d="M67.75,56.58c0.23,0.7,0.58,3.4,0.97,5.32c0.57-0.08,0.41-0.88,0.48-1.45c1.13,0.12,0.28,2.13,0,2.42
		C68.04,61.61,66.68,58.52,67.75,56.58z"/>
	<path d="M69.68,62.39c0.12,0.59,1.84,1.93,0.97,1.94c0.12,0.53,0.96,0.33,0.97,0.97c0.7-1.73-0.31-4.49,0.48-6.78
		c-0.62-0.08-0.62-2.95,0-1.45c-0.18,0.82,0.38,0.91,0.97,0.97c-1.89,2.3,1.74,5.76-0.48,6.78c0.14,1.71,1.31-1.71,1.45,0
		c1.43,1.12-1.12-0.95-0.48,0.97c1.12,0.15,1.86-0.08,2.42-0.48c0.77-0.68,1.24-1.67,1.45-2.9c1.14-1.56-0.61,3.21,0.97,0.97
		c1.57,2.08-0.94,4.21-2.9,4.36c1.27-0.47,1.45-3.63,2.9-2.42c-0.5-1.94-1.92,0.11-2.42,0.97C72.24,66.83,68.7,64.96,69.68,62.39z"
		/>
	<path d="M88.08,57.06c-0.64-1.43,1.12,1.75,1.45,2.42c-0.81,0.96,0.04,0.62,0,1.94c-1.01,0.54-1.03,0.52-0.48-0.48
		c-0.27-1.09-0.75,0.59-1.45-0.48C88.26,59.83,88.07,58.35,88.08,57.06z"/>
	<path d="M83.72,59c0.17-0.68,0.85-0.04,0.97,0.48c2.76-0.34,2.76,0.82,0,0.48C84.47,59.54,84.26,59.1,83.72,59z"/>
	<path d="M26.6,59.48c1.08-1.86-0.22,1.3-0.48,0.97C25.72,59.95,26.55,59.58,26.6,59.48z"/>
	<path d="M52.74,59c-0.49,0.26-2.14,2.51-1.94,0.48C51.67,59.54,51.82,58.89,52.74,59z"/>
	<path d="M60.48,60.45c-0.6-1.22,0.71,0.14,0.97,0.97C61.62,61.95,60.99,61.49,60.48,60.45z"/>
	<path d="M90.01,61.9c1.02-0.88-1.1,0.84,0,1.94c-0.86,0.14-0.99-0.46-0.48-0.48c-0.01-0.47-0.59-0.38-0.97-0.48
		C88.91,62.42,89.44,62.14,90.01,61.9z"/>
	<path d="M57.58,63.84c0-0.32,0-0.65,0-0.97c-1.56,0.7-3.59,0.93-5.32,1.45c-1.11-0.38,1.51-1.02,2.42-0.97
		c-0.49-1.36-2.06,0.13-2.9,0c-1.8-0.67,1.42-0.07,0.97-0.97c2.9,0.32,4.72-0.44,7.26-0.48c-1.88,1.7-4.55,5.09-8.23,4.36
		c-1.45-0.29-2.33-1.44-3.39-2.9c-0.92,0.91-1.22,0.05-2.42,0c1.19-1.46,3.15,0.37,4.84,0c-0.62,0.64-0.62,1.78,0,2.42
		C54.25,66.32,55.73,64.89,57.58,63.84z"/>
	<path d="M47.9,63.84c-0.05,0.05,0.96,0.46,0.97,0.48C49.94,66.46,47.47,64.26,47.9,63.84z"/>
	<path d="M58.55,63.84c0.6,3.14-3.77,6.58-8.23,4.84c-0.14-0.99-1.31-0.95-1.45-1.94c-0.14-0.86,0.46-0.99,0.48-0.48
		c-0.35,1.32,0.96,0.97,0.97,1.94c1.48-0.35,1.76,0.5,2.9,0.48C56.28,68.35,57.93,66.61,58.55,63.84z"/>
	<path d="M93.88,67.71c-0.87,1.3-1.73-1.46-2.42-1.94c-0.78,0.14-0.83-0.46-1.45-0.48c-1.22-0.91,0.81-0.05,1.45,0
		C92.06,66.3,92.87,67.11,93.88,67.71z"/>
	<path d="M94.85,65.29c-0.98-1.22,1.16,0.93,1.45,1.45c0.11,2.88,0.04,3.28,0.48,5.32c-0.93,0.199-0.38,1.879-1.94,1.449
		c0.45-1.25,2.35-1.68,0.97-2.42c-1.19-0.64-0.72,2.24-1.94,1.939c0.26,0.391,0.5,0.791,0.48,1.451c-1.91-0.25-2.15,2.72-0.97,0.479
		c1.69,1.11-1.51,1.34-1.45,2.42c-0.86-0.36-0.07-0.88,0-1.45c0.36-1.49-1.33-0.93-0.97-2.42c0.59,0.211,0.99,0.62,0.97,1.45
		c1.41-0.521,1.57-2.3,1.45-4.36c-0.44-0.85-1.08-1.5-1.94-1.939c-2.4-0.75,1.63-0.31,1.94,0.48c-0.2,1.17,0.88,1.05,0.48,2.42
		C96.24,71.141,96.26,66.79,94.85,65.29z"/>
	<path d="M82.27,66.74c3.33-3.33,6.01,6.08,0.48,5.32c0.09-0.391,0.49-0.48,0.48-0.971c-2.11,1-5.07,0.35-6.78-0.48
		c0.4-0.979,2.55,0.311,3.39,0.48c0.68-0.17,0.04-0.85-0.48-0.97c0.15-1.03,1.5,0.69,1.94,0.97C84.1,70.83,87.39,66.79,82.27,66.74z
		"/>
	<path d="M87.59,67.23c-0.83,2.28,0.29,0.45,1.45,1.94c0.23,1.85-0.14,3.09-0.97,3.87c-1.66-0.261-0.74-2.33-0.48-3.39
		c-1.86,2.9,0.04-3.06-1.94-2.9C84.46,65.71,87.19,66.88,87.59,67.23z"/>
	<path d="M43.54,67.71C42.22,66.24,45.02,69.03,43.54,67.71L43.54,67.71z"/>
	<path d="M95.34,72.07C96.81,70.75,94.02,73.54,95.34,72.07L95.34,72.07z"/>
	<path d="M97.27,73.04c1.55,0.79,0.77,2.84,0,3.87C96.42,76.24,98.48,74.41,97.27,73.04z"/>
	<path d="M82.75,74.971c-0.23,2.67-1.81,4-3.87,4.84c-1.29-0.971-3.36-1.16-2.9-3.871c1.86-0.09,0.18,0.4,0.48,1.451
		c0.17,0.629,0.85,0.76,0.97,1.449c3.67,0.62,5.5-2.14,4.36-4.84C82.31,74.12,82.11,74.971,82.75,74.971z"/>
	<path d="M78.39,75.46c1.6,0.729-1.01,1.181-0.48,2.42C76.6,77.439,78.4,76.18,78.39,75.46z"/>
	<path d="M39.19,76.91C38.48,76.609,39.24,76.32,39.19,76.91c1.07,0.71,0.96,2.59,2.42,2.9c0.22,2.039,2.29,2.229,2.9,3.869
		c0.78-0.14,0.83,0.461,1.45,0.48c0.87-0.141,0.99,0.46,0.48,0.48c-1.74,0.119-1.77-1.451-3.39-1.451
		C42.15,80.721,39.76,79.721,39.19,76.91z"/>
	<path d="M95.34,79.33c0-0.811,0-1.609,0-2.42c1.07,0.061,0.21,2.05,0.48,2.9c-1.59-0.121-2.29,1.369-3.87,2.42
		c-4.78,0.109-7.56-1.791-8.71-5.32c1.25,2.14,3.07,3.71,5.81,4.359C91.54,81.02,93.03,79.76,95.34,79.33z"/>
	<path d="M95.34,80.779c0.58-0.68,0.19-0.039,0,0.48c-0.43-0.3-0.87-0.58-0.97,0C93.22,80.99,94.91,79.811,95.34,80.779z"/>
	<path d="M92.43,78.84c-0.88,2.24-4.13,1.29-5.81,0.48c-0.52-0.45-0.15-1.791-1.45-1.45c1.46-1.021,2.29,0.14,4.36-0.479
		c-0.1,0.649-2.01,0.899,0,0.969c-0.01,0.471-0.59,0.381-0.97,0.48c0.32,0.65,1.04,0.9,1.94,0.971
		C89.39,78.2,91.19,79.779,92.43,78.84z"/>
	<path d="M82.75,78.84c1.6,0.721-0.82,1.37-0.97,1.939C80.47,80.34,82.89,79.7,82.75,78.84z"/>
	<path d="M75.49,79.811c0.87,1.379-2.37,2.779-2.42,4.84C71.81,82.891,75.27,81.71,75.49,79.811z"/>
	<path d="M30.96,90.95c0.61-0.12,0.49-0.96,0-0.97c1.36-1.33,1.11,3.069,1.45,4.359c-0.58,1.68-0.76,3.76-1.94,4.84
		c1.49,2.87,4,4.711,6.78,6.291c1.24-0.381,0.11-3.121,1.94-2.9c2,1.529-1.42,2.9,0.97,4.359c1.45-0.32-0.46-1.029,0-1.939
		c3.89,3.33,0.15,7.859-0.97,11.619c-1.29-2.949,3.2-6.199,1.94-9.199c-3.7-0.79-9.06-3.75-11.13-7.74
		c0.61-1.65,1.04-3.48,1.94-4.84c-2.07-1.96-2.68-5.391-3.87-8.23c-2.65,4.131-2.9,10.65-4.36,15.971
		c-0.61-6.59,2.37-13.771,4.84-18.881C29.73,85.721,30.08,88.59,30.96,90.95z"/>
	<path d="M26.12,106.43c-1.08-2.38,2.3-4.47,2.9-6.779c0.56-1.381,0.56,0.779,0,0.97C28.06,102.561,27.08,104.5,26.12,106.43z"/>
	<path d="M37.73,114.66c-0.53,0.119-0.33,0.96-0.97,0.97c-1.68,0.341-1.74-1.7-0.97-2.42c-1.9-1.489-3.43-3.34-3.87-6.29
		c1.17,1.58,2.62,2.859,3.39,4.84C35.67,113.17,37.93,112.7,37.73,114.66z M36.28,115.15c0.72-0.09,0.44-1.17,0.48-1.94
		C36.05,113.3,36.32,114.38,36.28,115.15z"/>
	<path d="M38.22,108.37c1.15,0.271,2.01,1.87,0.97,2.899c-0.48,0-0.97,0-1.45,0C36.67,110.26,37.63,109.12,38.22,108.37z
		 M38.7,109.82c-0.11-0.381-0.01-0.95-0.48-0.971C38.33,109.23,38.23,109.811,38.7,109.82z"/>
	<path d="M98.72,73.52c0.86-1.209,1.76,2.17,1.94,3.391c0.15,1.05-0.61,1.89,0,2.42c-0.16,1.13-0.58,2-0.97,2.9
		c-1.48,0.709-2.52,0.129-3.87-0.48c0.12-0.85,0.83-1.1,1.94-0.971c-0.2-0.93-1.88-0.379-1.45-1.939
		C97.96,78.23,99.95,75.41,98.72,73.52z"/>
</g>
<g>
	<path d="M68.74,120.45v-1.57c0-0.21,0.13-0.34,0.38-0.34h0.37v0.21h-0.06c-0.22,0-0.28,0.061-0.28,0.27v1.381
		c0,0.199-0.14,0.359-0.34,0.379c0.19,0.021,0.34,0.181,0.34,0.381v1.38c0,0.22,0.05,0.28,0.28,0.28h0.06v0.209h-0.37
		c-0.25,0-0.38-0.119-0.38-0.34v-1.569c0-0.2-0.13-0.33-0.3-0.341C68.61,120.779,68.74,120.65,68.74,120.45z"/>
	<path d="M71.93,120.18h0.27v0.801h-0.28c-0.08-0.201-0.13-0.28-0.25-0.381c-0.18-0.14-0.39-0.22-0.63-0.22
		c-0.32,0-0.52,0.12-0.52,0.31c0,0.09,0.08,0.17,0.2,0.221c0.12,0.04,0.25,0.07,0.53,0.109c0.42,0.061,0.46,0.07,0.63,0.131
		c0.29,0.109,0.44,0.33,0.44,0.629c0,0.451-0.41,0.761-1.01,0.761c-0.12,0-0.26-0.011-0.38-0.05c-0.23-0.051-0.33-0.1-0.55-0.27
		l-0.09,0.26h-0.28v-0.92h0.27c0.02,0.069,0.05,0.119,0.07,0.17c0.07,0.16,0.2,0.289,0.37,0.379c0.17,0.091,0.37,0.141,0.55,0.141
		c0.32,0,0.53-0.13,0.53-0.33c0-0.199-0.15-0.3-0.57-0.359c-0.2-0.021-0.31-0.041-0.33-0.041c-0.1-0.02-0.21-0.039-0.31-0.08
		c-0.4-0.109-0.58-0.31-0.58-0.629c0-0.431,0.39-0.74,0.96-0.74c0.1,0,0.21,0.01,0.33,0.029c0.22,0.051,0.32,0.101,0.56,0.26
		L71.93,120.18z"/>
	<path d="M72.47,120.17c0.29-0.02,0.41-0.08,0.53-0.23c0.1-0.129,0.14-0.279,0.17-0.6h0.29v0.83h0.72v0.311h-0.72v1.25
		c0,0.209,0.01,0.27,0.03,0.34c0.03,0.1,0.13,0.17,0.24,0.17c0.17,0,0.28-0.17,0.28-0.461v-0.18h0.28v0.24
		c0,0.471-0.24,0.721-0.69,0.721c-0.28,0-0.5-0.101-0.62-0.291c-0.09-0.14-0.11-0.24-0.11-0.58v-1.209h-0.41v-0.311H72.47z"/>
	<path d="M74.86,123.359c0.17,0,0.34-0.119,0.45-0.33l0.08-0.159l0.17-0.32l-0.93-1.84c-0.11-0.22-0.13-0.229-0.32-0.229h-0.1v-0.32
		h1.5v0.3h-0.26c-0.14,0-0.19,0.011-0.19,0.069c0,0.041,0.01,0.07,0.06,0.171l0.59,1.17l0.58-1.17c0.05-0.091,0.06-0.13,0.06-0.16
		c0-0.06-0.03-0.08-0.19-0.08H76.1v-0.3h1.18v0.3h-0.01h-0.15c-0.08,0-0.15,0.069-0.23,0.24l-1.12,2.159
		c-0.13,0.25-0.24,0.41-0.35,0.531c-0.13,0.149-0.33,0.229-0.56,0.229c-0.37,0-0.65-0.25-0.65-0.57c0-0.26,0.18-0.46,0.41-0.46
		c0.19,0,0.33,0.141,0.33,0.33s-0.12,0.311-0.34,0.33C74.72,123.34,74.77,123.359,74.86,123.359z"/>
	<path d="M77.22,122.189h0.19c0.14,0,0.18,0,0.22-0.039c0.05-0.03,0.05-0.07,0.06-0.2v-0.2v-2.109c0-0.211-0.03-0.24-0.25-0.24
		h-0.22v-0.311h1.06v2.87c0,0.13,0,0.16,0.04,0.2c0.03,0.029,0.07,0.04,0.18,0.04h0.22v0.31h-1.49v-0.32H77.22z"/>
	<path d="M79.5,121.38c0.01,0.29,0.04,0.42,0.15,0.57c0.14,0.21,0.38,0.329,0.64,0.329c0.37,0,0.61-0.199,0.72-0.609h0.35
		c-0.07,0.311-0.13,0.439-0.3,0.59c-0.2,0.2-0.5,0.311-0.86,0.311c-0.77,0-1.29-0.49-1.29-1.221c0-0.74,0.54-1.27,1.28-1.27
		c0.39,0,0.73,0.15,0.94,0.439c0.18,0.221,0.23,0.42,0.25,0.871H79.5V121.38z M79.52,121.07h1.28c-0.01-0.23-0.04-0.33-0.11-0.44
		c-0.1-0.17-0.28-0.271-0.5-0.271c-0.2,0-0.36,0.07-0.48,0.23C79.58,120.721,79.54,120.82,79.52,121.07z"/>
	<path d="M82.78,120.16h1.26v0.311h-0.09c-0.14,0-0.2,0.02-0.2,0.09c0,0.029,0.01,0.08,0.04,0.149l0.46,1.17l0.46-1.17
		c0.01-0.04,0.02-0.069,0.02-0.11c0-0.1-0.02-0.119-0.14-0.119h-0.05h-0.08v-0.311h1.29v0.32h-0.09c-0.13,0-0.2,0.039-0.2,0.109
		c0,0.021,0.01,0.07,0.03,0.121l0.47,1.209l0.48-1.209c0.02-0.061,0.03-0.101,0.03-0.131c0-0.07-0.07-0.109-0.2-0.109h-0.1v-0.311
		h1.03v0.311h-0.09c-0.2,0-0.27,0.049-0.34,0.24l-0.71,1.789h-0.48l-0.62-1.52l-0.62,1.52h-0.46l-0.71-1.789
		c-0.02-0.061-0.04-0.101-0.05-0.121c-0.03-0.08-0.1-0.109-0.22-0.109h-0.04h-0.09v-0.33H82.78z"/>
	<path d="M87.2,122.189h0.26c0.18,0,0.22-0.039,0.22-0.219v-0.021v-0.16v-1.069V120.6c0-0.02-0.02-0.06-0.03-0.08
		c-0.03-0.039-0.06-0.049-0.15-0.049h-0.26v-0.311h1.03v1.779c0,0.15,0,0.16,0.03,0.201c0.02,0.029,0.05,0.039,0.13,0.039h0.26
		v0.311H87.2V122.189z M87.9,119.01c0.22,0,0.41,0.16,0.41,0.37c0,0.2-0.18,0.38-0.39,0.38s-0.38-0.17-0.38-0.369
		C87.54,119.17,87.7,119.01,87.9,119.01z"/>
	<path d="M88.76,120.17c0.29-0.02,0.41-0.08,0.53-0.23c0.1-0.129,0.14-0.279,0.17-0.6h0.29v0.83h0.72v0.311h-0.72v1.25
		c0,0.209,0.01,0.27,0.03,0.34c0.03,0.1,0.13,0.17,0.24,0.17c0.17,0,0.28-0.17,0.28-0.461v-0.18h0.28v0.24
		c0,0.471-0.24,0.721-0.69,0.721c-0.28,0-0.5-0.101-0.62-0.291c-0.09-0.14-0.11-0.24-0.11-0.58v-1.209h-0.41v-0.311H88.76z"/>
	<path d="M90.68,122.189h0.26c0.18,0,0.21-0.029,0.21-0.239v-0.2v-2.109c0-0.07,0-0.111,0-0.121c0-0.029-0.01-0.049-0.03-0.069
		c-0.03-0.04-0.06-0.05-0.17-0.05h-0.26v-0.311h1.05v1.41c0.07-0.07,0.12-0.109,0.16-0.141c0.19-0.17,0.45-0.26,0.7-0.26
		c0.27,0,0.53,0.11,0.69,0.28c0.12,0.14,0.18,0.33,0.18,0.601v0.979c0,0.21,0.01,0.25,0.09,0.25h0.3v0.31h-1.38v-0.31h0.26
		c0.07,0,0.1-0.01,0.12-0.04c0.01-0.02,0.02-0.04,0.02-0.08v-0.119v-0.931c0-0.22-0.02-0.31-0.1-0.41
		c-0.08-0.11-0.22-0.17-0.37-0.17c-0.38,0-0.67,0.31-0.67,0.729v0.771c0,0.22,0.01,0.24,0.12,0.24h0.26v0.31h-1.43v-0.32H90.68z"/>
	<path d="M96.16,120.779c0,0.16-0.14,0.291-0.32,0.291c-0.19,0-0.34-0.141-0.34-0.34c0-0.371,0.48-0.631,1.17-0.631
		c0.67,0,1.01,0.271,1.01,0.801v0.939c0,0.2,0,0.26,0.02,0.301c0.01,0.049,0.07,0.1,0.12,0.1c0.05,0,0.08-0.03,0.1-0.1
		c0.01-0.031,0.02-0.07,0.02-0.111c0.01-0.079,0.01-0.1,0.02-0.399h0.28v0.13c0,0.61-0.15,0.82-0.56,0.82
		c-0.17,0-0.31-0.051-0.41-0.141c-0.06-0.06-0.09-0.119-0.14-0.26c-0.11,0.141-0.16,0.19-0.32,0.26c-0.2,0.09-0.43,0.15-0.64,0.15
		c-0.46,0-0.76-0.26-0.76-0.65c0-0.35,0.2-0.52,0.69-0.619l0.4-0.08c0.48-0.1,0.6-0.18,0.6-0.44c0-0.28-0.24-0.44-0.64-0.44
		c-0.05,0-0.11,0-0.17,0.011c-0.17,0.021-0.21,0.04-0.36,0.12C96.1,120.58,96.16,120.65,96.16,120.779z M97.1,121.311
		c-0.18,0.069-0.22,0.08-0.46,0.149c-0.48,0.12-0.61,0.21-0.61,0.431c0,0.229,0.16,0.369,0.42,0.369c0.17,0,0.37-0.08,0.49-0.21
		c0.11-0.12,0.16-0.26,0.16-0.5V121.311z"/>
	<path d="M98.25,120.17c0.29-0.02,0.41-0.08,0.53-0.23c0.1-0.129,0.14-0.279,0.17-0.6h0.29v0.83h0.72v0.311h-0.72v1.25
		c0,0.209,0.01,0.27,0.03,0.34c0.03,0.1,0.13,0.17,0.24,0.17c0.17,0,0.28-0.17,0.28-0.461v-0.18h0.28v0.24
		c0,0.471-0.24,0.721-0.69,0.721c-0.28,0-0.5-0.101-0.62-0.291c-0.09-0.14-0.11-0.24-0.11-0.58v-1.209h-0.41v-0.311H98.25z"/>
	<path d="M100.13,120.17c0.29-0.02,0.41-0.08,0.53-0.23c0.1-0.129,0.14-0.279,0.17-0.6h0.29v0.83h0.72v0.311h-0.72v1.25
		c0,0.209,0.01,0.27,0.03,0.34c0.03,0.1,0.13,0.17,0.24,0.17c0.17,0,0.28-0.17,0.28-0.461v-0.18h0.28v0.24
		c0,0.471-0.24,0.721-0.69,0.721c-0.28,0-0.5-0.101-0.62-0.291c-0.09-0.14-0.11-0.24-0.11-0.58v-1.209h-0.41v-0.311H100.13z"/>
	<path d="M102.08,122.189h0.26c0.18,0,0.22-0.039,0.22-0.219v-0.021v-0.16v-1.069V120.6c0-0.02-0.02-0.06-0.03-0.08
		c-0.03-0.039-0.06-0.049-0.15-0.049h-0.26v-0.311h1.03v1.779c0,0.15,0,0.16,0.03,0.201c0.02,0.029,0.05,0.039,0.13,0.039h0.26
		v0.311h-1.47v-0.301H102.08z M102.78,119.01c0.22,0,0.41,0.16,0.41,0.37c0,0.2-0.18,0.38-0.39,0.38s-0.38-0.17-0.38-0.369
		C102.42,119.17,102.58,119.01,102.78,119.01z"/>
	<path d="M103.64,120.17c0.29-0.02,0.41-0.08,0.53-0.23c0.1-0.129,0.14-0.279,0.17-0.6h0.29v0.83h0.72v0.311h-0.72v1.25
		c0,0.209,0.01,0.27,0.03,0.34c0.03,0.1,0.13,0.17,0.24,0.17c0.17,0,0.28-0.17,0.28-0.461v-0.18h0.28v0.24
		c0,0.471-0.24,0.721-0.69,0.721c-0.28,0-0.5-0.101-0.62-0.291c-0.09-0.14-0.11-0.24-0.11-0.58v-1.209h-0.41v-0.311H103.64z"/>
	<path d="M105.56,120.16h1v1.47c0,0.25,0.02,0.351,0.11,0.45c0.08,0.09,0.21,0.141,0.35,0.141c0.09,0,0.2-0.021,0.29-0.07
		c0.08-0.041,0.15-0.09,0.21-0.17c0.13-0.15,0.17-0.28,0.17-0.541v-0.719c0-0.141,0-0.16-0.03-0.201
		c-0.03-0.029-0.07-0.039-0.18-0.039h-0.26v-0.32h1.05v1.79c0,0.22,0.02,0.239,0.18,0.239h0.22v0.311h-0.98v-0.35
		c-0.1,0.119-0.15,0.17-0.25,0.24c-0.18,0.119-0.38,0.18-0.61,0.18c-0.15,0-0.29-0.021-0.41-0.08c-0.31-0.12-0.45-0.381-0.45-0.84
		v-0.93V120.6c0-0.029,0-0.05-0.01-0.08c-0.01-0.029-0.04-0.039-0.09-0.039h-0.3v-0.32H105.56z"/>
	<path d="M110.79,119.63c0-0.14-0.01-0.159-0.06-0.2c-0.04-0.039-0.09-0.05-0.23-0.05h-0.26v-0.31h1.13v2.869
		c0,0.141,0,0.16,0.04,0.201c0.03,0.029,0.06,0.039,0.17,0.039h0.23v0.311h-1.02v-0.32c-0.04,0.04-0.09,0.08-0.11,0.109
		c-0.2,0.171-0.44,0.261-0.69,0.261c-0.66,0-1.12-0.49-1.12-1.2c0-0.73,0.47-1.25,1.12-1.25c0.13,0,0.25,0.02,0.38,0.07
		c0.16,0.061,0.25,0.109,0.43,0.26v-0.79H110.79z M109.47,121.311v0.039c0,0.53,0.27,0.881,0.67,0.881c0.43,0,0.68-0.34,0.68-0.92
		c0-0.561-0.26-0.91-0.68-0.91C109.74,120.41,109.49,120.75,109.47,121.311z"/>
	<path d="M112.59,121.38c0.01,0.29,0.04,0.42,0.15,0.57c0.14,0.21,0.38,0.329,0.64,0.329c0.37,0,0.61-0.199,0.72-0.609h0.35
		c-0.07,0.311-0.13,0.439-0.3,0.59c-0.2,0.2-0.5,0.311-0.86,0.311c-0.77,0-1.29-0.49-1.29-1.221c0-0.74,0.54-1.27,1.28-1.27
		c0.39,0,0.73,0.15,0.94,0.439c0.18,0.221,0.23,0.42,0.25,0.871h-1.88V121.38z M112.61,121.07h1.28c-0.01-0.23-0.04-0.33-0.11-0.44
		c-0.1-0.17-0.28-0.271-0.5-0.271c-0.2,0-0.36,0.07-0.48,0.23C112.68,120.721,112.64,120.82,112.61,121.07z"/>
	<path d="M114.8,122.82h0.06c0.22,0,0.28-0.061,0.28-0.28v-1.38c0-0.2,0.14-0.36,0.34-0.381c-0.2-0.02-0.34-0.18-0.34-0.379v-1.381
		c0-0.22-0.05-0.27-0.28-0.27h-0.06v-0.21h0.37c0.25,0,0.38,0.12,0.38,0.34v1.57c0,0.2,0.13,0.329,0.3,0.34
		c-0.17,0.01-0.3,0.14-0.3,0.34v1.57c0,0.21-0.13,0.34-0.38,0.34h-0.37V122.82z"/>
</g>
<rect x="45" y="87" fill="#CE4DD6" width="72" height="29"/>
<g>
	<path fill="#FFFFFF" d="M62.46,94.37h1.45v5.069H62.4c-0.14-0.5-0.29-0.93-0.43-1.239c-0.35-0.771-1.01-1.53-1.8-1.97
		c-0.73-0.41-1.57-0.621-2.69-0.621c-1.8,0-3.02,0.811-3.02,1.961c0,0.39,0.14,0.789,0.37,1.039c0.21,0.23,0.54,0.431,0.93,0.58
		c0.68,0.25,1.61,0.461,2.94,0.73c0.95,0.189,1.57,0.33,1.88,0.391c0.54,0.119,1.06,0.31,1.63,0.56c1.45,0.659,2.26,1.92,2.26,3.46
		c0,1.061-0.39,1.99-1.12,2.75c-0.97,0.99-2.32,1.43-4.33,1.43c-0.91,0-1.72-0.14-2.79-0.46c-1.16-0.35-1.57-0.579-2.57-1.34
		l-0.45,1.55h-1.45V102.9h1.59c0.1,0.43,0.19,0.77,0.27,1.029c0.35,0.891,1.06,1.76,1.95,2.301c0.87,0.52,2.11,0.85,3.19,0.85
		c1.82,0,3.06-0.87,3.06-2.17c0-0.43-0.17-0.891-0.43-1.16c-0.29-0.29-0.68-0.54-1.18-0.7c-0.77-0.31-1.22-0.39-3.29-0.75
		c-1.82-0.35-2.61-0.62-3.56-1.26c-1.08-0.75-1.61-1.72-1.61-2.96c0-2.4,2.15-4.04,5.32-4.04c0.6,0,1.22,0.06,1.84,0.17
		c0.54,0.12,1.03,0.271,1.43,0.46c0.56,0.25,0.87,0.46,1.63,1.04L62.46,94.37z"/>
	<path fill="#FFFFFF" d="M68.48,101.279c0,0.681-0.58,1.201-1.35,1.201c-0.81,0-1.43-0.601-1.43-1.391c0-1.55,1.99-2.59,4.9-2.59
		c2.86,0,4.28,1.04,4.28,3.17v3.891c0,0.729,0,0.949,0.06,1.14c0.08,0.229,0.29,0.37,0.5,0.37c0.19,0,0.31-0.1,0.41-0.37
		c0.12-0.41,0.15-0.75,0.15-1.95h1.18v0.54c0,2.46-0.64,3.31-2.46,3.31c-0.74,0-1.28-0.17-1.7-0.52c-0.27-0.23-0.45-0.48-0.68-1.08
		c-0.48,0.62-0.74,0.811-1.39,1.1c-0.79,0.351-1.72,0.541-2.52,0.541c-1.86,0-3.1-1.041-3.1-2.611c0-1.449,0.81-2.229,2.71-2.59
		l1.64-0.31c1.97-0.409,2.5-0.76,2.5-1.78c0-1.08-0.91-1.72-2.5-1.72c-0.19,0-0.41,0-0.62,0.04c-0.66,0.1-0.85,0.141-1.39,0.439
		C68.26,100.48,68.48,100.77,68.48,101.279z M72.11,103.5c-0.68,0.33-0.79,0.37-1.7,0.6c-1.78,0.461-2.3,0.83-2.3,1.641
		c0,0.869,0.6,1.43,1.59,1.43c0.68,0,1.43-0.37,1.9-0.891c0.39-0.459,0.52-0.989,0.52-1.859v-0.92H72.11z"/>
	<path fill="#FFFFFF" d="M85.89,98.82h1.2v3.25h-1.26c-0.33-0.791-0.54-1.08-0.99-1.45c-0.64-0.54-1.51-0.83-2.46-0.83
		c-1.24,0-2.03,0.45-2.03,1.16c0,0.39,0.31,0.72,0.89,0.909c0.5,0.17,0.95,0.25,2.13,0.451c1.45,0.229,1.9,0.33,2.57,0.619
		c1.08,0.461,1.68,1.35,1.68,2.48c0,1.88-1.76,3.17-4.24,3.17c-0.46,0-0.95-0.061-1.45-0.15c-0.99-0.189-1.41-0.39-2.38-1.08
		l-0.39,0.99h-1.22v-3.68h1.22c0.12,0.27,0.21,0.48,0.31,0.64c0.29,0.56,0.79,1.04,1.43,1.39c0.66,0.351,1.45,0.561,2.17,0.561
		c1.18,0,2.03-0.52,2.03-1.26c0-0.79-0.56-1.1-2.42-1.41c-0.77-0.12-1.24-0.189-1.37-0.21c-0.43-0.101-0.85-0.19-1.26-0.351
		c-1.51-0.479-2.23-1.299-2.23-2.529c0-1.78,1.7-3.061,4.1-3.061c0.43,0,0.89,0.041,1.32,0.141c0.91,0.17,1.32,0.369,2.28,1.01
		L85.89,98.82z"/>
	<path fill="#FFFFFF" d="M96.78,98.82h1.2v3.25h-1.26c-0.33-0.791-0.54-1.08-0.99-1.45c-0.64-0.54-1.51-0.83-2.46-0.83
		c-1.24,0-2.03,0.45-2.03,1.16c0,0.39,0.31,0.72,0.89,0.909c0.5,0.17,0.95,0.25,2.13,0.451c1.45,0.229,1.9,0.33,2.57,0.619
		c1.08,0.461,1.68,1.35,1.68,2.48c0,1.88-1.76,3.17-4.24,3.17c-0.46,0-0.95-0.061-1.45-0.15c-0.99-0.189-1.41-0.39-2.38-1.08
		l-0.39,0.99h-1.22v-3.68h1.22c0.12,0.27,0.21,0.48,0.31,0.64c0.29,0.56,0.79,1.04,1.43,1.39c0.66,0.351,1.45,0.561,2.17,0.561
		c1.18,0,2.03-0.52,2.03-1.26c0-0.79-0.56-1.1-2.42-1.41c-0.77-0.12-1.24-0.189-1.37-0.21c-0.43-0.101-0.85-0.19-1.26-0.351
		c-1.51-0.479-2.23-1.299-2.23-2.529c0-1.78,1.7-3.061,4.1-3.061c0.43,0,0.89,0.041,1.32,0.141c0.91,0.17,1.32,0.369,2.28,1.01
		L96.78,98.82z"/>
	<path fill="#FFFFFF" d="M101.33,105.51c0.89,0,1.62,0.721,1.62,1.57c0,0.811-0.73,1.49-1.62,1.49c-0.91,0-1.61-0.66-1.63-1.471
		C99.71,106.23,100.42,105.51,101.33,105.51z"/>
</g>
</svg>
